<svg width="15" height="30" viewBox="0 0 696 1102" fill="none" xmlns="http://www.w3.org/2000/svg">
  <path fill="white" d="M0 0h58v986H0Z" />
  <path fill="black" d="M58 116h58v812H58Z" />
  <path fill="black" d="M116 174h58v696H116Z" />
  <path fill="black" d="M174 232h58v580H174Z" />
  <path fill="black" d="M232 290h58v464H232Z" />
  <path fill="black" d="M290 348h58v464H290Z" />
  <path fill="black" d="M348 406h58v522H348Z" />
  <path fill="black" d="M406 464h58v580H406Z" />
  <path fill="black" d="M464 928h58v116H464Z" />
  <path fill="black" d="M522 580h58v116H522Z" />
  <path fill="black" d="M580 638h58v58H580Z" />
  <path fill="black" d="M464 522h58v174H464Z" />
  <path fill="white" d="M58 58h58v58H58Z" />
  <path fill="white" d="M116 116h58v58H116Z" />
  <path fill="white" d="M174 174h58v58H174Z" />
  <path fill="white" d="M232 232h58v58H232Z" />
  <path fill="white" d="M290 290h58v58H290Z" />
  <path fill="white" d="M348 348h58v58H348Z" />
  <path fill="white" d="M406 406h58v58H406Z" />
  <path fill="white" d="M464 464h58v58H464Z" />
  <path fill="white" d="M522 522h58v58H522Z" />
  <path fill="white" d="M580 580h58v58H580Z" />
  <path fill="white" d="M638 638h58v116H638Z" />
  <path fill="white" d="M406 696h232v58H406Z" />
  <path fill="white" d="M464 812h58v58H464Z" />
  <path fill="white" d="M522 928h58v116H522Z" />
  <path fill="white" d="M406 754h58v58H406Z" />
  <path fill="white" d="M464 1044h58v58H464Z" />
  <path fill="white" d="M348 986h58v58H348Z" />
  <path fill="white" d="M406 1044h58v58H406Z" />
  <path fill="white" d="M348 928h58v58H348Z" />
  <path fill="white" d="M290 870h58v58H290Z" />
  <path fill="white" d="M290 812h58v58H290Z" />
  <path fill="white" d="M232 754h58v58H232Z" />
  <path fill="white" d="M174 812h58v58H174Z" />
  <path fill="white" d="M116 870h58v58H116Z" />
  <path fill="white" d="M58 928h58v58H58Z" />
  <path fill="white" d="M464 870h58v58H464Z" />
</svg>