<svg xmlns="http://www.w3.org/2000/svg" xmlns:xlink="http://www.w3.org/1999/xlink" width="1080" zoomAndPan="magnify" viewBox="0 0 810 809.999993" height="1080" preserveAspectRatio="xMidYMid meet" version="1.0"><defs><clipPath id="dfc2d4d191"><path d="M 85.273438 87.625 L 671.648438 87.625 L 671.648438 720 L 85.273438 720 Z M 85.273438 87.625 " clip-rule="nonzero"/></clipPath><clipPath id="4e5cc2ef1a"><path d="M 675.769531 137.988281 L 729 137.988281 L 729 720.734375 L 675.769531 720.734375 Z M 675.769531 137.988281 " clip-rule="nonzero"/></clipPath><clipPath id="698e5b377a"><path d="M 238.957031 87.625 L 417.589844 87.625 L 417.589844 291.390625 L 238.957031 291.390625 Z M 238.957031 87.625 " clip-rule="nonzero"/></clipPath><clipPath id="9d557b8f5a"><path d="M 410.300781 87.625 L 571.273438 87.625 L 571.273438 114.636719 L 410.300781 114.636719 Z M 410.300781 87.625 " clip-rule="nonzero"/></clipPath><clipPath id="68ab95e179"><path d="M 328.273438 263.71875 L 571.273438 263.71875 L 571.273438 291.390625 L 328.273438 291.390625 Z M 328.273438 263.71875 " clip-rule="nonzero"/></clipPath><clipPath id="533353e2f8"><path d="M 484.570312 114.636719 L 571.273438 114.636719 L 571.273438 267.695312 L 484.570312 267.695312 Z M 484.570312 114.636719 " clip-rule="nonzero"/></clipPath><clipPath id="a6439f2b98"><path d="M 654.835938 114.636719 L 696.703125 114.636719 L 696.703125 720.734375 L 654.835938 720.734375 Z M 654.835938 114.636719 " clip-rule="nonzero"/></clipPath></defs><g clip-path="url(#dfc2d4d191)"><path fill="#ffffff" d="M 85.273438 87.625 L 671.648438 87.625 L 671.648438 719.8125 L 85.273438 719.8125 Z M 85.273438 87.625 " fill-opacity="1" fill-rule="nonzero"/></g><g clip-path="url(#4e5cc2ef1a)"><path fill="#ffffff" d="M 675.769531 137.988281 L 729 137.988281 L 729 720.8125 L 675.769531 720.8125 Z M 675.769531 137.988281 " fill-opacity="1" fill-rule="nonzero"/></g><path fill="#000000" d="M 88.59375 63.285156 L 113.90625 63.285156 L 113.90625 88.601562 L 88.59375 88.601562 Z M 88.59375 63.285156 " fill-opacity="1" fill-rule="nonzero"/><path fill="#000000" d="M 63.28125 88.601562 L 88.59375 88.601562 L 88.59375 113.914062 L 63.28125 113.914062 Z M 63.28125 88.601562 " fill-opacity="1" fill-rule="nonzero"/><path fill="#000000" d="M 63.28125 113.914062 L 88.59375 113.914062 L 88.59375 139.230469 L 63.28125 139.230469 Z M 63.28125 113.914062 " fill-opacity="1" fill-rule="nonzero"/><path fill="#000000" d="M 63.28125 139.230469 L 88.59375 139.230469 L 88.59375 164.546875 L 63.28125 164.546875 Z M 63.28125 139.230469 " fill-opacity="1" fill-rule="nonzero"/><path fill="#000000" d="M 63.28125 164.546875 L 88.59375 164.546875 L 88.59375 189.859375 L 63.28125 189.859375 Z M 63.28125 164.546875 " fill-opacity="1" fill-rule="nonzero"/><path fill="#000000" d="M 63.28125 189.859375 L 88.59375 189.859375 L 88.59375 215.175781 L 63.28125 215.175781 Z M 63.28125 189.859375 " fill-opacity="1" fill-rule="nonzero"/><path fill="#000000" d="M 63.28125 215.175781 L 88.59375 215.175781 L 88.59375 240.488281 L 63.28125 240.488281 Z M 63.28125 215.175781 " fill-opacity="1" fill-rule="nonzero"/><path fill="#000000" d="M 63.28125 240.488281 L 88.59375 240.488281 L 88.59375 265.804688 L 63.28125 265.804688 Z M 63.28125 240.488281 " fill-opacity="1" fill-rule="nonzero"/><path fill="#000000" d="M 63.28125 265.804688 L 88.59375 265.804688 L 88.59375 291.117188 L 63.28125 291.117188 Z M 63.28125 265.804688 " fill-opacity="1" fill-rule="nonzero"/><path fill="#000000" d="M 63.28125 291.117188 L 88.59375 291.117188 L 88.59375 316.433594 L 63.28125 316.433594 Z M 63.28125 291.117188 " fill-opacity="1" fill-rule="nonzero"/><path fill="#000000" d="M 63.28125 316.433594 L 88.59375 316.433594 L 88.59375 341.746094 L 63.28125 341.746094 Z M 63.28125 316.433594 " fill-opacity="1" fill-rule="nonzero"/><path fill="#000000" d="M 63.28125 341.746094 L 88.59375 341.746094 L 88.59375 367.0625 L 63.28125 367.0625 Z M 63.28125 341.746094 " fill-opacity="1" fill-rule="nonzero"/><path fill="#000000" d="M 63.28125 367.0625 L 88.59375 367.0625 L 88.59375 392.378906 L 63.28125 392.378906 Z M 63.28125 367.0625 " fill-opacity="1" fill-rule="nonzero"/><path fill="#000000" d="M 63.28125 392.378906 L 88.59375 392.378906 L 88.59375 417.691406 L 63.28125 417.691406 Z M 63.28125 392.378906 " fill-opacity="1" fill-rule="nonzero"/><path fill="#000000" d="M 63.28125 417.691406 L 88.59375 417.691406 L 88.59375 443.007812 L 63.28125 443.007812 Z M 63.28125 417.691406 " fill-opacity="1" fill-rule="nonzero"/><path fill="#000000" d="M 63.28125 443.007812 L 88.59375 443.007812 L 88.59375 468.320312 L 63.28125 468.320312 Z M 63.28125 443.007812 " fill-opacity="1" fill-rule="nonzero"/><path fill="#000000" d="M 63.28125 468.320312 L 88.59375 468.320312 L 88.59375 493.636719 L 63.28125 493.636719 Z M 63.28125 468.320312 " fill-opacity="1" fill-rule="nonzero"/><path fill="#000000" d="M 63.28125 493.636719 L 88.59375 493.636719 L 88.59375 518.949219 L 63.28125 518.949219 Z M 63.28125 493.636719 " fill-opacity="1" fill-rule="nonzero"/><path fill="#000000" d="M 63.28125 518.949219 L 88.59375 518.949219 L 88.59375 544.265625 L 63.28125 544.265625 Z M 63.28125 518.949219 " fill-opacity="1" fill-rule="nonzero"/><path fill="#000000" d="M 63.28125 544.265625 L 88.59375 544.265625 L 88.59375 569.578125 L 63.28125 569.578125 Z M 63.28125 544.265625 " fill-opacity="1" fill-rule="nonzero"/><path fill="#000000" d="M 63.28125 569.578125 L 88.59375 569.578125 L 88.59375 594.894531 L 63.28125 594.894531 Z M 63.28125 569.578125 " fill-opacity="1" fill-rule="nonzero"/><path fill="#000000" d="M 63.28125 594.894531 L 88.59375 594.894531 L 88.59375 620.210938 L 63.28125 620.210938 Z M 63.28125 594.894531 " fill-opacity="1" fill-rule="nonzero"/><path fill="#000000" d="M 63.28125 620.210938 L 88.59375 620.210938 L 88.59375 645.523438 L 63.28125 645.523438 Z M 63.28125 620.210938 " fill-opacity="1" fill-rule="nonzero"/><path fill="#000000" d="M 63.28125 645.523438 L 88.59375 645.523438 L 88.59375 670.839844 L 63.28125 670.839844 Z M 63.28125 645.523438 " fill-opacity="1" fill-rule="nonzero"/><path fill="#000000" d="M 63.28125 670.839844 L 88.59375 670.839844 L 88.59375 696.152344 L 63.28125 696.152344 Z M 63.28125 670.839844 " fill-opacity="1" fill-rule="nonzero"/><path fill="#000000" d="M 63.28125 696.152344 L 88.59375 696.152344 L 88.59375 721.46875 L 63.28125 721.46875 Z M 63.28125 696.152344 " fill-opacity="1" fill-rule="nonzero"/><path fill="#000000" d="M 88.59375 721.46875 L 113.90625 721.46875 L 113.90625 746.78125 L 88.59375 746.78125 Z M 88.59375 721.46875 " fill-opacity="1" fill-rule="nonzero"/><path fill="#000000" d="M 113.90625 721.46875 L 139.21875 721.46875 L 139.21875 746.78125 L 113.90625 746.78125 Z M 113.90625 721.46875 " fill-opacity="1" fill-rule="nonzero"/><path fill="#000000" d="M 139.21875 721.46875 L 164.53125 721.46875 L 164.53125 746.78125 L 139.21875 746.78125 Z M 139.21875 721.46875 " fill-opacity="1" fill-rule="nonzero"/><path fill="#000000" d="M 164.53125 721.46875 L 189.84375 721.46875 L 189.84375 746.78125 L 164.53125 746.78125 Z M 164.53125 721.46875 " fill-opacity="1" fill-rule="nonzero"/><path fill="#000000" d="M 189.84375 721.46875 L 215.15625 721.46875 L 215.15625 746.78125 L 189.84375 746.78125 Z M 189.84375 721.46875 " fill-opacity="1" fill-rule="nonzero"/><path fill="#000000" d="M 215.15625 721.46875 L 240.46875 721.46875 L 240.46875 746.78125 L 215.15625 746.78125 Z M 215.15625 721.46875 " fill-opacity="1" fill-rule="nonzero"/><path fill="#000000" d="M 240.46875 721.46875 L 265.78125 721.46875 L 265.78125 746.78125 L 240.46875 746.78125 Z M 240.46875 721.46875 " fill-opacity="1" fill-rule="nonzero"/><path fill="#000000" d="M 265.78125 721.46875 L 291.09375 721.46875 L 291.09375 746.78125 L 265.78125 746.78125 Z M 265.78125 721.46875 " fill-opacity="1" fill-rule="nonzero"/><path fill="#000000" d="M 291.09375 721.46875 L 316.40625 721.46875 L 316.40625 746.78125 L 291.09375 746.78125 Z M 291.09375 721.46875 " fill-opacity="1" fill-rule="nonzero"/><path fill="#000000" d="M 316.40625 721.46875 L 341.71875 721.46875 L 341.71875 746.78125 L 316.40625 746.78125 Z M 316.40625 721.46875 " fill-opacity="1" fill-rule="nonzero"/><path fill="#000000" d="M 341.71875 721.46875 L 367.03125 721.46875 L 367.03125 746.78125 L 341.71875 746.78125 Z M 341.71875 721.46875 " fill-opacity="1" fill-rule="nonzero"/><path fill="#000000" d="M 367.03125 721.46875 L 392.34375 721.46875 L 392.34375 746.78125 L 367.03125 746.78125 Z M 367.03125 721.46875 " fill-opacity="1" fill-rule="nonzero"/><path fill="#000000" d="M 392.34375 721.46875 L 417.65625 721.46875 L 417.65625 746.78125 L 392.34375 746.78125 Z M 392.34375 721.46875 " fill-opacity="1" fill-rule="nonzero"/><path fill="#000000" d="M 417.65625 721.46875 L 442.96875 721.46875 L 442.96875 746.78125 L 417.65625 746.78125 Z M 417.65625 721.46875 " fill-opacity="1" fill-rule="nonzero"/><path fill="#000000" d="M 442.96875 721.46875 L 468.28125 721.46875 L 468.28125 746.78125 L 442.96875 746.78125 Z M 442.96875 721.46875 " fill-opacity="1" fill-rule="nonzero"/><path fill="#000000" d="M 468.28125 721.46875 L 493.59375 721.46875 L 493.59375 746.78125 L 468.28125 746.78125 Z M 468.28125 721.46875 " fill-opacity="1" fill-rule="nonzero"/><path fill="#000000" d="M 493.59375 721.46875 L 518.90625 721.46875 L 518.90625 746.78125 L 493.59375 746.78125 Z M 493.59375 721.46875 " fill-opacity="1" fill-rule="nonzero"/><path fill="#000000" d="M 518.90625 721.46875 L 544.21875 721.46875 L 544.21875 746.78125 L 518.90625 746.78125 Z M 518.90625 721.46875 " fill-opacity="1" fill-rule="nonzero"/><path fill="#000000" d="M 544.21875 721.46875 L 569.53125 721.46875 L 569.53125 746.78125 L 544.21875 746.78125 Z M 544.21875 721.46875 " fill-opacity="1" fill-rule="nonzero"/><path fill="#000000" d="M 569.53125 721.46875 L 594.84375 721.46875 L 594.84375 746.78125 L 569.53125 746.78125 Z M 569.53125 721.46875 " fill-opacity="1" fill-rule="nonzero"/><path fill="#000000" d="M 594.84375 721.46875 L 620.15625 721.46875 L 620.15625 746.78125 L 594.84375 746.78125 Z M 594.84375 721.46875 " fill-opacity="1" fill-rule="nonzero"/><path fill="#000000" d="M 620.15625 721.46875 L 645.46875 721.46875 L 645.46875 746.78125 L 620.15625 746.78125 Z M 620.15625 721.46875 " fill-opacity="1" fill-rule="nonzero"/><path fill="#000000" d="M 645.46875 721.46875 L 670.78125 721.46875 L 670.78125 746.78125 L 645.46875 746.78125 Z M 645.46875 721.46875 " fill-opacity="1" fill-rule="nonzero"/><path fill="#000000" d="M 670.78125 721.46875 L 696.09375 721.46875 L 696.09375 746.78125 L 670.78125 746.78125 Z M 670.78125 721.46875 " fill-opacity="1" fill-rule="nonzero"/><path fill="#000000" d="M 696.09375 721.46875 L 721.40625 721.46875 L 721.40625 746.78125 L 696.09375 746.78125 Z M 696.09375 721.46875 " fill-opacity="1" fill-rule="nonzero"/><path fill="#000000" d="M 721.40625 696.152344 L 746.71875 696.152344 L 746.71875 721.46875 L 721.40625 721.46875 Z M 721.40625 696.152344 " fill-opacity="1" fill-rule="nonzero"/><path fill="#000000" d="M 721.40625 670.839844 L 746.71875 670.839844 L 746.71875 696.152344 L 721.40625 696.152344 Z M 721.40625 670.839844 " fill-opacity="1" fill-rule="nonzero"/><path fill="#000000" d="M 721.40625 645.523438 L 746.71875 645.523438 L 746.71875 670.839844 L 721.40625 670.839844 Z M 721.40625 645.523438 " fill-opacity="1" fill-rule="nonzero"/><path fill="#000000" d="M 721.40625 620.210938 L 746.71875 620.210938 L 746.71875 645.523438 L 721.40625 645.523438 Z M 721.40625 620.210938 " fill-opacity="1" fill-rule="nonzero"/><path fill="#000000" d="M 721.40625 594.894531 L 746.71875 594.894531 L 746.71875 620.210938 L 721.40625 620.210938 Z M 721.40625 594.894531 " fill-opacity="1" fill-rule="nonzero"/><path fill="#000000" d="M 721.40625 569.578125 L 746.71875 569.578125 L 746.71875 594.894531 L 721.40625 594.894531 Z M 721.40625 569.578125 " fill-opacity="1" fill-rule="nonzero"/><path fill="#000000" d="M 721.40625 544.265625 L 746.71875 544.265625 L 746.71875 569.578125 L 721.40625 569.578125 Z M 721.40625 544.265625 " fill-opacity="1" fill-rule="nonzero"/><path fill="#000000" d="M 721.40625 518.949219 L 746.71875 518.949219 L 746.71875 544.265625 L 721.40625 544.265625 Z M 721.40625 518.949219 " fill-opacity="1" fill-rule="nonzero"/><path fill="#000000" d="M 721.40625 493.636719 L 746.71875 493.636719 L 746.71875 518.949219 L 721.40625 518.949219 Z M 721.40625 493.636719 " fill-opacity="1" fill-rule="nonzero"/><path fill="#000000" d="M 721.40625 468.320312 L 746.71875 468.320312 L 746.71875 493.636719 L 721.40625 493.636719 Z M 721.40625 468.320312 " fill-opacity="1" fill-rule="nonzero"/><path fill="#000000" d="M 721.40625 443.007812 L 746.71875 443.007812 L 746.71875 468.320312 L 721.40625 468.320312 Z M 721.40625 443.007812 " fill-opacity="1" fill-rule="nonzero"/><path fill="#000000" d="M 721.40625 417.691406 L 746.71875 417.691406 L 746.71875 443.007812 L 721.40625 443.007812 Z M 721.40625 417.691406 " fill-opacity="1" fill-rule="nonzero"/><path fill="#000000" d="M 721.40625 392.378906 L 746.71875 392.378906 L 746.71875 417.691406 L 721.40625 417.691406 Z M 721.40625 392.378906 " fill-opacity="1" fill-rule="nonzero"/><path fill="#000000" d="M 721.40625 367.0625 L 746.71875 367.0625 L 746.71875 392.378906 L 721.40625 392.378906 Z M 721.40625 367.0625 " fill-opacity="1" fill-rule="nonzero"/><path fill="#000000" d="M 721.40625 341.746094 L 746.71875 341.746094 L 746.71875 367.0625 L 721.40625 367.0625 Z M 721.40625 341.746094 " fill-opacity="1" fill-rule="nonzero"/><path fill="#000000" d="M 721.40625 316.433594 L 746.71875 316.433594 L 746.71875 341.746094 L 721.40625 341.746094 Z M 721.40625 316.433594 " fill-opacity="1" fill-rule="nonzero"/><path fill="#000000" d="M 721.40625 291.117188 L 746.71875 291.117188 L 746.71875 316.433594 L 721.40625 316.433594 Z M 721.40625 291.117188 " fill-opacity="1" fill-rule="nonzero"/><path fill="#000000" d="M 721.40625 265.804688 L 746.71875 265.804688 L 746.71875 291.117188 L 721.40625 291.117188 Z M 721.40625 265.804688 " fill-opacity="1" fill-rule="nonzero"/><path fill="#000000" d="M 721.40625 240.488281 L 746.71875 240.488281 L 746.71875 265.804688 L 721.40625 265.804688 Z M 721.40625 240.488281 " fill-opacity="1" fill-rule="nonzero"/><path fill="#000000" d="M 721.40625 215.175781 L 746.71875 215.175781 L 746.71875 240.488281 L 721.40625 240.488281 Z M 721.40625 215.175781 " fill-opacity="1" fill-rule="nonzero"/><path fill="#000000" d="M 721.40625 189.859375 L 746.71875 189.859375 L 746.71875 215.175781 L 721.40625 215.175781 Z M 721.40625 189.859375 " fill-opacity="1" fill-rule="nonzero"/><path fill="#000000" d="M 721.40625 164.546875 L 746.71875 164.546875 L 746.71875 189.859375 L 721.40625 189.859375 Z M 721.40625 164.546875 " fill-opacity="1" fill-rule="nonzero"/><path fill="#000000" d="M 721.40625 139.230469 L 746.71875 139.230469 L 746.71875 164.546875 L 721.40625 164.546875 Z M 721.40625 139.230469 " fill-opacity="1" fill-rule="nonzero"/><path fill="#000000" d="M 696.09375 113.914062 L 721.40625 113.914062 L 721.40625 139.230469 L 696.09375 139.230469 Z M 696.09375 113.914062 " fill-opacity="1" fill-rule="nonzero"/><path fill="#000000" d="M 670.78125 88.601562 L 696.09375 88.601562 L 696.09375 113.914062 L 670.78125 113.914062 Z M 670.78125 88.601562 " fill-opacity="1" fill-rule="nonzero"/><path fill="#000000" d="M 645.46875 63.285156 L 670.78125 63.285156 L 670.78125 88.601562 L 645.46875 88.601562 Z M 645.46875 63.285156 " fill-opacity="1" fill-rule="nonzero"/><path fill="#000000" d="M 620.15625 63.285156 L 645.46875 63.285156 L 645.46875 88.601562 L 620.15625 88.601562 Z M 620.15625 63.285156 " fill-opacity="1" fill-rule="nonzero"/><path fill="#000000" d="M 594.84375 63.285156 L 620.15625 63.285156 L 620.15625 88.601562 L 594.84375 88.601562 Z M 594.84375 63.285156 " fill-opacity="1" fill-rule="nonzero"/><path fill="#000000" d="M 569.53125 63.285156 L 594.84375 63.285156 L 594.84375 88.601562 L 569.53125 88.601562 Z M 569.53125 63.285156 " fill-opacity="1" fill-rule="nonzero"/><path fill="#000000" d="M 544.21875 63.285156 L 569.53125 63.285156 L 569.53125 88.601562 L 544.21875 88.601562 Z M 544.21875 63.285156 " fill-opacity="1" fill-rule="nonzero"/><path fill="#000000" d="M 518.90625 63.285156 L 544.21875 63.285156 L 544.21875 88.601562 L 518.90625 88.601562 Z M 518.90625 63.285156 " fill-opacity="1" fill-rule="nonzero"/><path fill="#000000" d="M 493.59375 63.285156 L 518.90625 63.285156 L 518.90625 88.601562 L 493.59375 88.601562 Z M 493.59375 63.285156 " fill-opacity="1" fill-rule="nonzero"/><path fill="#000000" d="M 468.28125 63.285156 L 493.59375 63.285156 L 493.59375 88.601562 L 468.28125 88.601562 Z M 468.28125 63.285156 " fill-opacity="1" fill-rule="nonzero"/><path fill="#000000" d="M 442.96875 63.285156 L 468.28125 63.285156 L 468.28125 88.601562 L 442.96875 88.601562 Z M 442.96875 63.285156 " fill-opacity="1" fill-rule="nonzero"/><path fill="#000000" d="M 417.65625 63.285156 L 442.96875 63.285156 L 442.96875 88.601562 L 417.65625 88.601562 Z M 417.65625 63.285156 " fill-opacity="1" fill-rule="nonzero"/><path fill="#000000" d="M 392.34375 63.285156 L 417.65625 63.285156 L 417.65625 88.601562 L 392.34375 88.601562 Z M 392.34375 63.285156 " fill-opacity="1" fill-rule="nonzero"/><path fill="#000000" d="M 367.03125 63.285156 L 392.34375 63.285156 L 392.34375 88.601562 L 367.03125 88.601562 Z M 367.03125 63.285156 " fill-opacity="1" fill-rule="nonzero"/><path fill="#000000" d="M 341.71875 63.285156 L 367.03125 63.285156 L 367.03125 88.601562 L 341.71875 88.601562 Z M 341.71875 63.285156 " fill-opacity="1" fill-rule="nonzero"/><path fill="#000000" d="M 316.40625 63.285156 L 341.71875 63.285156 L 341.71875 88.601562 L 316.40625 88.601562 Z M 316.40625 63.285156 " fill-opacity="1" fill-rule="nonzero"/><path fill="#000000" d="M 291.09375 63.285156 L 316.40625 63.285156 L 316.40625 88.601562 L 291.09375 88.601562 Z M 291.09375 63.285156 " fill-opacity="1" fill-rule="nonzero"/><path fill="#000000" d="M 265.78125 63.285156 L 291.09375 63.285156 L 291.09375 88.601562 L 265.78125 88.601562 Z M 265.78125 63.285156 " fill-opacity="1" fill-rule="nonzero"/><path fill="#000000" d="M 240.46875 63.285156 L 265.78125 63.285156 L 265.78125 88.601562 L 240.46875 88.601562 Z M 240.46875 63.285156 " fill-opacity="1" fill-rule="nonzero"/><path fill="#000000" d="M 215.15625 63.285156 L 240.46875 63.285156 L 240.46875 88.601562 L 215.15625 88.601562 Z M 215.15625 63.285156 " fill-opacity="1" fill-rule="nonzero"/><path fill="#000000" d="M 215.15625 88.601562 L 240.46875 88.601562 L 240.46875 113.914062 L 215.15625 113.914062 Z M 215.15625 88.601562 " fill-opacity="1" fill-rule="nonzero"/><path fill="#000000" d="M 215.15625 113.914062 L 240.46875 113.914062 L 240.46875 139.230469 L 215.15625 139.230469 Z M 215.15625 113.914062 " fill-opacity="1" fill-rule="nonzero"/><path fill="#000000" d="M 215.15625 139.230469 L 240.46875 139.230469 L 240.46875 164.546875 L 215.15625 164.546875 Z M 215.15625 139.230469 " fill-opacity="1" fill-rule="nonzero"/><path fill="#000000" d="M 215.15625 164.546875 L 240.46875 164.546875 L 240.46875 189.859375 L 215.15625 189.859375 Z M 215.15625 164.546875 " fill-opacity="1" fill-rule="nonzero"/><path fill="#000000" d="M 215.15625 189.859375 L 240.46875 189.859375 L 240.46875 215.175781 L 215.15625 215.175781 Z M 215.15625 189.859375 " fill-opacity="1" fill-rule="nonzero"/><path fill="#000000" d="M 215.15625 215.175781 L 240.46875 215.175781 L 240.46875 240.488281 L 215.15625 240.488281 Z M 215.15625 215.175781 " fill-opacity="1" fill-rule="nonzero"/><path fill="#000000" d="M 215.15625 240.488281 L 240.46875 240.488281 L 240.46875 265.804688 L 215.15625 265.804688 Z M 215.15625 240.488281 " fill-opacity="1" fill-rule="nonzero"/><path fill="#000000" d="M 215.15625 265.804688 L 240.46875 265.804688 L 240.46875 291.117188 L 215.15625 291.117188 Z M 215.15625 265.804688 " fill-opacity="1" fill-rule="nonzero"/><path fill="#000000" d="M 240.46875 291.117188 L 265.78125 291.117188 L 265.78125 316.433594 L 240.46875 316.433594 Z M 240.46875 291.117188 " fill-opacity="1" fill-rule="nonzero"/><path fill="#000000" d="M 189.84375 392.378906 L 215.15625 392.378906 L 215.15625 417.691406 L 189.84375 417.691406 Z M 189.84375 392.378906 " fill-opacity="1" fill-rule="nonzero"/><path fill="#000000" d="M 215.15625 392.378906 L 240.46875 392.378906 L 240.46875 417.691406 L 215.15625 417.691406 Z M 215.15625 392.378906 " fill-opacity="1" fill-rule="nonzero"/><path fill="#000000" d="M 240.46875 392.378906 L 265.78125 392.378906 L 265.78125 417.691406 L 240.46875 417.691406 Z M 240.46875 392.378906 " fill-opacity="1" fill-rule="nonzero"/><path fill="#000000" d="M 265.78125 392.378906 L 291.09375 392.378906 L 291.09375 417.691406 L 265.78125 417.691406 Z M 265.78125 392.378906 " fill-opacity="1" fill-rule="nonzero"/><path fill="#000000" d="M 291.09375 392.378906 L 316.40625 392.378906 L 316.40625 417.691406 L 291.09375 417.691406 Z M 291.09375 392.378906 " fill-opacity="1" fill-rule="nonzero"/><path fill="#000000" d="M 316.40625 392.378906 L 341.71875 392.378906 L 341.71875 417.691406 L 316.40625 417.691406 Z M 316.40625 392.378906 " fill-opacity="1" fill-rule="nonzero"/><path fill="#000000" d="M 341.71875 392.378906 L 367.03125 392.378906 L 367.03125 417.691406 L 341.71875 417.691406 Z M 341.71875 392.378906 " fill-opacity="1" fill-rule="nonzero"/><path fill="#000000" d="M 367.03125 392.378906 L 392.34375 392.378906 L 392.34375 417.691406 L 367.03125 417.691406 Z M 367.03125 392.378906 " fill-opacity="1" fill-rule="nonzero"/><path fill="#000000" d="M 392.34375 392.378906 L 417.65625 392.378906 L 417.65625 417.691406 L 392.34375 417.691406 Z M 392.34375 392.378906 " fill-opacity="1" fill-rule="nonzero"/><path fill="#000000" d="M 417.65625 392.378906 L 442.96875 392.378906 L 442.96875 417.691406 L 417.65625 417.691406 Z M 417.65625 392.378906 " fill-opacity="1" fill-rule="nonzero"/><path fill="#000000" d="M 442.96875 392.378906 L 468.28125 392.378906 L 468.28125 417.691406 L 442.96875 417.691406 Z M 442.96875 392.378906 " fill-opacity="1" fill-rule="nonzero"/><path fill="#000000" d="M 468.28125 392.378906 L 493.59375 392.378906 L 493.59375 417.691406 L 468.28125 417.691406 Z M 468.28125 392.378906 " fill-opacity="1" fill-rule="nonzero"/><path fill="#000000" d="M 493.59375 392.378906 L 518.90625 392.378906 L 518.90625 417.691406 L 493.59375 417.691406 Z M 493.59375 392.378906 " fill-opacity="1" fill-rule="nonzero"/><path fill="#000000" d="M 518.90625 392.378906 L 544.21875 392.378906 L 544.21875 417.691406 L 518.90625 417.691406 Z M 518.90625 392.378906 " fill-opacity="1" fill-rule="nonzero"/><path fill="#000000" d="M 544.21875 392.378906 L 569.53125 392.378906 L 569.53125 417.691406 L 544.21875 417.691406 Z M 544.21875 392.378906 " fill-opacity="1" fill-rule="nonzero"/><path fill="#000000" d="M 569.53125 392.378906 L 594.84375 392.378906 L 594.84375 417.691406 L 569.53125 417.691406 Z M 569.53125 392.378906 " fill-opacity="1" fill-rule="nonzero"/><path fill="#000000" d="M 594.84375 392.378906 L 620.15625 392.378906 L 620.15625 417.691406 L 594.84375 417.691406 Z M 594.84375 392.378906 " fill-opacity="1" fill-rule="nonzero"/><path fill="#000000" d="M 620.15625 417.691406 L 645.46875 417.691406 L 645.46875 443.007812 L 620.15625 443.007812 Z M 620.15625 417.691406 " fill-opacity="1" fill-rule="nonzero"/><path fill="#000000" d="M 620.15625 443.007812 L 645.46875 443.007812 L 645.46875 468.320312 L 620.15625 468.320312 Z M 620.15625 443.007812 " fill-opacity="1" fill-rule="nonzero"/><path fill="#000000" d="M 620.15625 468.320312 L 645.46875 468.320312 L 645.46875 493.636719 L 620.15625 493.636719 Z M 620.15625 468.320312 " fill-opacity="1" fill-rule="nonzero"/><path fill="#000000" d="M 620.15625 493.636719 L 645.46875 493.636719 L 645.46875 518.949219 L 620.15625 518.949219 Z M 620.15625 493.636719 " fill-opacity="1" fill-rule="nonzero"/><path fill="#000000" d="M 620.15625 518.949219 L 645.46875 518.949219 L 645.46875 544.265625 L 620.15625 544.265625 Z M 620.15625 518.949219 " fill-opacity="1" fill-rule="nonzero"/><path fill="#000000" d="M 620.15625 544.265625 L 645.46875 544.265625 L 645.46875 569.578125 L 620.15625 569.578125 Z M 620.15625 544.265625 " fill-opacity="1" fill-rule="nonzero"/><path fill="#000000" d="M 620.15625 569.578125 L 645.46875 569.578125 L 645.46875 594.894531 L 620.15625 594.894531 Z M 620.15625 569.578125 " fill-opacity="1" fill-rule="nonzero"/><path fill="#000000" d="M 620.15625 594.894531 L 645.46875 594.894531 L 645.46875 620.210938 L 620.15625 620.210938 Z M 620.15625 594.894531 " fill-opacity="1" fill-rule="nonzero"/><path fill="#000000" d="M 620.15625 620.210938 L 645.46875 620.210938 L 645.46875 645.523438 L 620.15625 645.523438 Z M 620.15625 620.210938 " fill-opacity="1" fill-rule="nonzero"/><path fill="#000000" d="M 620.15625 645.523438 L 645.46875 645.523438 L 645.46875 670.839844 L 620.15625 670.839844 Z M 620.15625 645.523438 " fill-opacity="1" fill-rule="nonzero"/><path fill="#000000" d="M 620.15625 670.839844 L 645.46875 670.839844 L 645.46875 696.152344 L 620.15625 696.152344 Z M 620.15625 670.839844 " fill-opacity="1" fill-rule="nonzero"/><path fill="#000000" d="M 620.15625 696.152344 L 645.46875 696.152344 L 645.46875 721.46875 L 620.15625 721.46875 Z M 620.15625 696.152344 " fill-opacity="1" fill-rule="nonzero"/><path fill="#000000" d="M 164.53125 417.691406 L 189.84375 417.691406 L 189.84375 443.007812 L 164.53125 443.007812 Z M 164.53125 417.691406 " fill-opacity="1" fill-rule="nonzero"/><path fill="#000000" d="M 164.53125 443.007812 L 189.84375 443.007812 L 189.84375 468.320312 L 164.53125 468.320312 Z M 164.53125 443.007812 " fill-opacity="1" fill-rule="nonzero"/><path fill="#000000" d="M 164.53125 468.320312 L 189.84375 468.320312 L 189.84375 493.636719 L 164.53125 493.636719 Z M 164.53125 468.320312 " fill-opacity="1" fill-rule="nonzero"/><path fill="#000000" d="M 164.53125 493.636719 L 189.84375 493.636719 L 189.84375 518.949219 L 164.53125 518.949219 Z M 164.53125 493.636719 " fill-opacity="1" fill-rule="nonzero"/><path fill="#000000" d="M 164.53125 518.949219 L 189.84375 518.949219 L 189.84375 544.265625 L 164.53125 544.265625 Z M 164.53125 518.949219 " fill-opacity="1" fill-rule="nonzero"/><path fill="#000000" d="M 164.53125 544.265625 L 189.84375 544.265625 L 189.84375 569.578125 L 164.53125 569.578125 Z M 164.53125 544.265625 " fill-opacity="1" fill-rule="nonzero"/><path fill="#000000" d="M 164.53125 569.578125 L 189.84375 569.578125 L 189.84375 594.894531 L 164.53125 594.894531 Z M 164.53125 569.578125 " fill-opacity="1" fill-rule="nonzero"/><path fill="#000000" d="M 164.53125 594.894531 L 189.84375 594.894531 L 189.84375 620.210938 L 164.53125 620.210938 Z M 164.53125 594.894531 " fill-opacity="1" fill-rule="nonzero"/><path fill="#000000" d="M 164.53125 620.210938 L 189.84375 620.210938 L 189.84375 645.523438 L 164.53125 645.523438 Z M 164.53125 620.210938 " fill-opacity="1" fill-rule="nonzero"/><path fill="#000000" d="M 164.53125 645.523438 L 189.84375 645.523438 L 189.84375 670.839844 L 164.53125 670.839844 Z M 164.53125 645.523438 " fill-opacity="1" fill-rule="nonzero"/><path fill="#000000" d="M 164.53125 670.839844 L 189.84375 670.839844 L 189.84375 696.152344 L 164.53125 696.152344 Z M 164.53125 670.839844 " fill-opacity="1" fill-rule="nonzero"/><path fill="#000000" d="M 164.53125 696.152344 L 189.84375 696.152344 L 189.84375 721.46875 L 164.53125 721.46875 Z M 164.53125 696.152344 " fill-opacity="1" fill-rule="nonzero"/><path fill="#000000" d="M 265.78125 291.117188 L 291.09375 291.117188 L 291.09375 316.433594 L 265.78125 316.433594 Z M 265.78125 291.117188 " fill-opacity="1" fill-rule="nonzero"/><path fill="#000000" d="M 291.09375 291.117188 L 316.40625 291.117188 L 316.40625 316.433594 L 291.09375 316.433594 Z M 291.09375 291.117188 " fill-opacity="1" fill-rule="nonzero"/><path fill="#000000" d="M 316.40625 291.117188 L 341.71875 291.117188 L 341.71875 316.433594 L 316.40625 316.433594 Z M 316.40625 291.117188 " fill-opacity="1" fill-rule="nonzero"/><path fill="#000000" d="M 341.71875 291.117188 L 367.03125 291.117188 L 367.03125 316.433594 L 341.71875 316.433594 Z M 341.71875 291.117188 " fill-opacity="1" fill-rule="nonzero"/><path fill="#000000" d="M 367.03125 291.117188 L 392.34375 291.117188 L 392.34375 316.433594 L 367.03125 316.433594 Z M 367.03125 291.117188 " fill-opacity="1" fill-rule="nonzero"/><path fill="#000000" d="M 392.34375 291.117188 L 417.65625 291.117188 L 417.65625 316.433594 L 392.34375 316.433594 Z M 392.34375 291.117188 " fill-opacity="1" fill-rule="nonzero"/><path fill="#000000" d="M 417.65625 291.117188 L 442.96875 291.117188 L 442.96875 316.433594 L 417.65625 316.433594 Z M 417.65625 291.117188 " fill-opacity="1" fill-rule="nonzero"/><path fill="#000000" d="M 442.96875 291.117188 L 468.28125 291.117188 L 468.28125 316.433594 L 442.96875 316.433594 Z M 442.96875 291.117188 " fill-opacity="1" fill-rule="nonzero"/><path fill="#000000" d="M 468.28125 291.117188 L 493.59375 291.117188 L 493.59375 316.433594 L 468.28125 316.433594 Z M 468.28125 291.117188 " fill-opacity="1" fill-rule="nonzero"/><path fill="#000000" d="M 493.59375 291.117188 L 518.90625 291.117188 L 518.90625 316.433594 L 493.59375 316.433594 Z M 493.59375 291.117188 " fill-opacity="1" fill-rule="nonzero"/><path fill="#000000" d="M 518.90625 291.117188 L 544.21875 291.117188 L 544.21875 316.433594 L 518.90625 316.433594 Z M 518.90625 291.117188 " fill-opacity="1" fill-rule="nonzero"/><path fill="#000000" d="M 544.21875 291.117188 L 569.53125 291.117188 L 569.53125 316.433594 L 544.21875 316.433594 Z M 544.21875 291.117188 " fill-opacity="1" fill-rule="nonzero"/><path fill="#000000" d="M 569.53125 265.804688 L 594.84375 265.804688 L 594.84375 291.117188 L 569.53125 291.117188 Z M 569.53125 265.804688 " fill-opacity="1" fill-rule="nonzero"/><path fill="#000000" d="M 569.53125 240.488281 L 594.84375 240.488281 L 594.84375 265.804688 L 569.53125 265.804688 Z M 569.53125 240.488281 " fill-opacity="1" fill-rule="nonzero"/><path fill="#000000" d="M 569.53125 215.175781 L 594.84375 215.175781 L 594.84375 240.488281 L 569.53125 240.488281 Z M 569.53125 215.175781 " fill-opacity="1" fill-rule="nonzero"/><path fill="#000000" d="M 569.53125 189.859375 L 594.84375 189.859375 L 594.84375 215.175781 L 569.53125 215.175781 Z M 569.53125 189.859375 " fill-opacity="1" fill-rule="nonzero"/><path fill="#000000" d="M 569.53125 164.546875 L 594.84375 164.546875 L 594.84375 189.859375 L 569.53125 189.859375 Z M 569.53125 164.546875 " fill-opacity="1" fill-rule="nonzero"/><path fill="#000000" d="M 569.53125 139.230469 L 594.84375 139.230469 L 594.84375 164.546875 L 569.53125 164.546875 Z M 569.53125 139.230469 " fill-opacity="1" fill-rule="nonzero"/><path fill="#000000" d="M 569.53125 113.914062 L 594.84375 113.914062 L 594.84375 139.230469 L 569.53125 139.230469 Z M 569.53125 113.914062 " fill-opacity="1" fill-rule="nonzero"/><path fill="#000000" d="M 493.59375 139.230469 L 518.90625 139.230469 L 518.90625 164.546875 L 493.59375 164.546875 Z M 493.59375 139.230469 " fill-opacity="1" fill-rule="nonzero"/><path fill="#000000" d="M 493.59375 164.546875 L 518.90625 164.546875 L 518.90625 189.859375 L 493.59375 189.859375 Z M 493.59375 164.546875 " fill-opacity="1" fill-rule="nonzero"/><path fill="#000000" d="M 493.59375 189.859375 L 518.90625 189.859375 L 518.90625 215.175781 L 493.59375 215.175781 Z M 493.59375 189.859375 " fill-opacity="1" fill-rule="nonzero"/><path fill="#000000" d="M 493.59375 215.175781 L 518.90625 215.175781 L 518.90625 240.488281 L 493.59375 240.488281 Z M 493.59375 215.175781 " fill-opacity="1" fill-rule="nonzero"/><path fill="#000000" d="M 468.28125 240.488281 L 493.59375 240.488281 L 493.59375 265.804688 L 468.28125 265.804688 Z M 468.28125 240.488281 " fill-opacity="1" fill-rule="nonzero"/><path fill="#000000" d="M 468.28125 113.914062 L 493.59375 113.914062 L 493.59375 139.230469 L 468.28125 139.230469 Z M 468.28125 113.914062 " fill-opacity="1" fill-rule="nonzero"/><path fill="#000000" d="M 442.96875 113.914062 L 468.28125 113.914062 L 468.28125 139.230469 L 442.96875 139.230469 Z M 442.96875 113.914062 " fill-opacity="1" fill-rule="nonzero"/><path fill="#000000" d="M 392.34375 139.230469 L 417.65625 139.230469 L 417.65625 164.546875 L 392.34375 164.546875 Z M 392.34375 139.230469 " fill-opacity="1" fill-rule="nonzero"/><path fill="#000000" d="M 417.65625 113.914062 L 442.96875 113.914062 L 442.96875 139.230469 L 417.65625 139.230469 Z M 417.65625 113.914062 " fill-opacity="1" fill-rule="nonzero"/><path fill="#000000" d="M 392.34375 164.546875 L 417.65625 164.546875 L 417.65625 189.859375 L 392.34375 189.859375 Z M 392.34375 164.546875 " fill-opacity="1" fill-rule="nonzero"/><path fill="#000000" d="M 392.34375 189.859375 L 417.65625 189.859375 L 417.65625 215.175781 L 392.34375 215.175781 Z M 392.34375 189.859375 " fill-opacity="1" fill-rule="nonzero"/><path fill="#000000" d="M 392.34375 215.175781 L 417.65625 215.175781 L 417.65625 240.488281 L 392.34375 240.488281 Z M 392.34375 215.175781 " fill-opacity="1" fill-rule="nonzero"/><path fill="#000000" d="M 417.65625 240.488281 L 442.96875 240.488281 L 442.96875 265.804688 L 417.65625 265.804688 Z M 417.65625 240.488281 " fill-opacity="1" fill-rule="nonzero"/><path fill="#000000" d="M 442.96875 240.488281 L 468.28125 240.488281 L 468.28125 265.804688 L 442.96875 265.804688 Z M 442.96875 240.488281 " fill-opacity="1" fill-rule="nonzero"/><path fill="#000000" d="M 569.53125 88.601562 L 594.84375 88.601562 L 594.84375 113.914062 L 569.53125 113.914062 Z M 569.53125 88.601562 " fill-opacity="1" fill-rule="nonzero"/><path fill="#000000" d="M 189.84375 63.285156 L 215.15625 63.285156 L 215.15625 88.601562 L 189.84375 88.601562 Z M 189.84375 63.285156 " fill-opacity="1" fill-rule="nonzero"/><path fill="#000000" d="M 164.53125 63.285156 L 189.84375 63.285156 L 189.84375 88.601562 L 164.53125 88.601562 Z M 164.53125 63.285156 " fill-opacity="1" fill-rule="nonzero"/><path fill="#000000" d="M 139.21875 63.285156 L 164.53125 63.285156 L 164.53125 88.601562 L 139.21875 88.601562 Z M 139.21875 63.285156 " fill-opacity="1" fill-rule="nonzero"/><path fill="#000000" d="M 113.90625 63.285156 L 139.21875 63.285156 L 139.21875 88.601562 L 113.90625 88.601562 Z M 113.90625 63.285156 " fill-opacity="1" fill-rule="nonzero"/><g clip-path="url(#698e5b377a)"><path fill="#000000" d="M 238.957031 87.625 L 417.589844 87.625 L 417.589844 291.378906 L 238.957031 291.378906 Z M 238.957031 87.625 " fill-opacity="1" fill-rule="nonzero"/></g><g clip-path="url(#9d557b8f5a)"><path fill="#000000" d="M 410.300781 87.625 L 571.304688 87.625 L 571.304688 114.636719 L 410.300781 114.636719 Z M 410.300781 87.625 " fill-opacity="1" fill-rule="nonzero"/></g><g clip-path="url(#68ab95e179)"><path fill="#000000" d="M 328.273438 263.71875 L 571.269531 263.71875 L 571.269531 291.390625 L 328.273438 291.390625 Z M 328.273438 263.71875 " fill-opacity="1" fill-rule="nonzero"/></g><g clip-path="url(#533353e2f8)"><path fill="#000000" d="M 484.570312 114.636719 L 571.273438 114.636719 L 571.273438 267.71875 L 484.570312 267.71875 Z M 484.570312 114.636719 " fill-opacity="1" fill-rule="nonzero"/></g><g clip-path="url(#a6439f2b98)"><path fill="#ffffff" d="M 654.835938 114.636719 L 696.703125 114.636719 L 696.703125 720.746094 L 654.835938 720.746094 Z M 654.835938 114.636719 " fill-opacity="1" fill-rule="nonzero"/></g></svg>