<svg width="120" height="125" viewBox="0 0 120 125" fill="none" xmlns="http://www.w3.org/2000/svg">
<path d="M16 36.5H20V40.5H16V36.5Z" fill="#000000"/>
<path d="M12 32.5H16V36.5H12V32.5Z" fill="#000000"/>
<path d="M16 28.5H20V32.5H16V28.5Z" fill="#000000"/>
<path d="M20 24.5H24V28.5H20V24.5Z" fill="#000000"/>
<path d="M24 20.5H28V24.5H24V20.5Z" fill="#000000"/>
<path d="M28 16.5H32V20.5H28V16.5Z" fill="#000000"/>
<path d="M32 12.5H36V16.5H32V12.5Z" fill="#000000"/>
<path d="M32 8.5H36V12.5H32V8.5Z" fill="#000000"/>
<path d="M36 4.5H40V8.5H36V4.5Z" fill="#000000"/>
<path d="M40 4.5H44V8.5H40V4.5Z" fill="#000000"/>
<path d="M44 4.5H48V8.5H44V4.5Z" fill="#000000"/>
<path d="M48 0.5H52V4.5H48V0.5Z" fill="#000000"/>
<path d="M52 0.5H56V4.5H52V0.5Z" fill="#000000"/>
<path d="M56 0.5H60V4.5H56V0.5Z" fill="#000000"/>
<path d="M60 0.5H64V4.5H60V0.5Z" fill="#000000"/>
<path d="M64 0.5H68V4.5H64V0.5Z" fill="#000000"/>
<path d="M68 0.5H72V4.5H68V0.5Z" fill="#000000"/>
<path d="M68 4.5H72V8.5H68V4.5Z" fill="#000000"/>
<path d="M72 4.5H76V8.5H72V4.5Z" fill="#000000"/>
<path d="M72 8.5H76V12.5H72V8.5Z" fill="#000000"/>
<path d="M76 12.5H80V16.5H76V12.5Z" fill="#000000"/>
<path d="M72 16.5H76V20.5H72V16.5Z" fill="#000000"/>
<path d="M68 20.5H72V24.5H68V20.5Z" fill="#000000"/>
<path d="M64 16.5H68V20.5H64V16.5Z" fill="#000000"/>
<path d="M68 12.5H72V16.5H68V12.5Z" fill="#000000"/>
<path d="M76 4.5H80V8.5H76V4.5Z" fill="#000000"/>
<path d="M80 4.5H84V8.5H80V4.5Z" fill="#000000"/>
<path d="M84 8.5H88V12.5H84V8.5Z" fill="#000000"/>
<path d="M88 8.5H92V12.5H88V8.5Z" fill="#000000"/>
<path d="M92 12.5H96V16.5H92V12.5Z" fill="#000000"/>
<path d="M96 16.5H100V20.5H96V16.5Z" fill="#000000"/>
<path d="M100 20.5H104V24.5H100V20.5Z" fill="#000000"/>
<path d="M104 24.5H108V28.5H104V24.5Z" fill="#000000"/>
<path d="M108 28.5H112V32.5H108V28.5Z" fill="#000000"/>
<path d="M108 32.5H112V36.5H108V32.5Z" fill="#000000"/>
<path d="M108 36.5H112V40.5H108V36.5Z" fill="#000000"/>
<path d="M112 36.5H116V40.5H112V36.5Z" fill="#000000"/>
<path d="M112 40.5H116V44.5H112V40.5Z" fill="#000000"/>
<path d="M104 40.5H108V44.5H104V40.5Z" fill="#000000"/>
<path d="M100 36.5H104V40.5H100V36.5Z" fill="#000000"/>
<path d="M104 32.5H108V36.5H104V32.5Z" fill="#000000"/>
<path d="M100 28.5H104V32.5H100V28.5Z" fill="#000000"/>
<path d="M96 24.5H100V28.5H96V24.5Z" fill="#000000"/>
<path d="M92 20.5H96V24.5H92V20.5Z" fill="#000000"/>
<path d="M76 28.5H80V32.5H76V28.5Z" fill="#000000"/>
<path d="M84 44.5H88V48.5H84V44.5Z" fill="#000000"/>
<path d="M96 40.5H100V44.5H96V40.5Z" fill="#000000"/>
<path d="M92 36.5H96V40.5H92V36.5Z" fill="#000000"/>
<path d="M96 32.5H100V36.5H96V32.5Z" fill="#000000"/>
<path d="M92 28.5H96V32.5H92V28.5Z" fill="#000000"/>
<path d="M88 24.5H92V28.5H88V24.5Z" fill="#000000"/>
<path d="M88 40.5H92V44.5H88V40.5Z" fill="#000000"/>
<path d="M84 36.5H88V40.5H84V36.5Z" fill="#000000"/>
<path d="M88 32.5H92V36.5H88V32.5Z" fill="#000000"/>
<path d="M84 28.5H88V32.5H84V28.5Z" fill="#000000"/>
<path d="M80 24.5H84V28.5H80V24.5Z" fill="#000000"/>
<path d="M80 40.5H84V44.5H80V40.5Z" fill="#000000"/>
<path d="M28 8.5H32V12.5H28V8.5Z" fill="#000000"/>
<path d="M24 12.5H28V16.5H24V12.5Z" fill="#000000"/>
<path d="M20 16.5H24V20.5H20V16.5Z" fill="#000000"/>
<path d="M16 20.5H20V24.5H16V20.5Z" fill="#000000"/>
<path d="M12 24.5H16V28.5H12V24.5Z" fill="#000000"/>
<path d="M8 28.5H12V32.5H8V28.5Z" fill="#000000"/>
<path d="M8 32.5H12V36.5H8V32.5Z" fill="#000000"/>
<path d="M4 36.5H8V40.5H4V36.5Z" fill="#000000"/>
<path d="M4 40.5H8V44.5H4V40.5Z" fill="#000000"/>
<path d="M4 44.5H8V48.5H4V44.5Z" fill="#000000"/>
<path d="M0 48.5H4V52.5H0V48.5Z" fill="#000000"/>
<path d="M0 52.5H4V56.5H0V52.5Z" fill="#000000"/>
<path d="M0 56.5H4V60.5H0V56.5Z" fill="#000000"/>
<path d="M0 60.5H4V64.5H0V60.5Z" fill="#000000"/>
<path d="M0 64.5H4V68.5H0V64.5Z" fill="#000000"/>
<path d="M0 68.5H4V72.5H0V68.5Z" fill="#000000"/>
<path d="M0 72.5H4V76.5H0V72.5Z" fill="#000000"/>
<path d="M4 76.5H8V80.5H4V76.5Z" fill="#000000"/>
<path d="M4 80.5H8V84.5H4V80.5Z" fill="#000000"/>
<path d="M4 84.5H8V88.5H4V84.5Z" fill="#000000"/>
<path d="M8 88.5H12V92.5H8V88.5Z" fill="#000000"/>
<path d="M8 92.5H12V96.5H8V92.5Z" fill="#000000"/>
<path d="M12 96.5H16V100.5H12V96.5Z" fill="#000000"/>
<path d="M16 100.5H20V104.5H16V100.5Z" fill="#000000"/>
<path d="M20 104.5H24V108.5H20V104.5Z" fill="#000000"/>
<path d="M24 108.5H28V112.5H24V108.5Z" fill="#000000"/>
<path d="M28 112.5H32V116.5H28V112.5Z" fill="#000000"/>
<path d="M32 112.5H36V116.5H32V112.5Z" fill="#000000"/>
<path d="M36 116.5H40V120.5H36V116.5Z" fill="#000000"/>
<path d="M40 116.5H44V120.5H40V116.5Z" fill="#000000"/>
<path d="M44 116.5H48V120.5H44V116.5Z" fill="#000000"/>
<path d="M48 120.5H52V124.5H48V120.5Z" fill="#000000"/>
<path d="M52 120.5H56V124.5H52V120.5Z" fill="#000000"/>
<path d="M56 120.5H60V124.5H56V120.5Z" fill="#000000"/>
<path d="M60 120.5H64V124.5H60V120.5Z" fill="#000000"/>
<path d="M64 120.5H68V124.5H64V120.5Z" fill="#000000"/>
<path d="M68 120.5H72V124.5H68V120.5Z" fill="#000000"/>
<path d="M20 32.5H24V36.5H20V32.5Z" fill="#000000"/>
<path d="M24 28.5H28V32.5H24V28.5Z" fill="#000000"/>
<path d="M28 24.5H32V28.5H28V24.5Z" fill="#000000"/>
<path d="M32 20.5H36V24.5H32V20.5Z" fill="#000000"/>
<path d="M36 16.5H40V20.5H36V16.5Z" fill="#000000"/>
<path d="M40 12.5H44V16.5H40V12.5Z" fill="#000000"/>
<path d="M44 8.5H48V12.5H44V8.5Z" fill="#000000"/>
<path d="M48 12.5H52V16.5H48V12.5Z" fill="#000000"/>
<path d="M52 16.5H56V20.5H52V16.5Z" fill="#000000"/>
<path d="M44 16.5H48V20.5H44V16.5Z" fill="#000000"/>
<path d="M40 20.5H44V24.5H40V20.5Z" fill="#000000"/>
<path d="M36 24.5H40V28.5H36V24.5Z" fill="#000000"/>
<path d="M32 28.5H36V32.5H32V28.5Z" fill="#000000"/>
<path d="M28 32.5H32V36.5H28V32.5Z" fill="#000000"/>
<path d="M24 36.5H28V40.5H24V36.5Z" fill="#000000"/>
<path d="M20 40.5H24V44.5H20V40.5Z" fill="#000000"/>
<path d="M24 44.5H28V48.5H24V44.5Z" fill="#000000"/>
<path d="M28 40.5H32V44.5H28V40.5Z" fill="#000000"/>
<path d="M32 36.5H36V40.5H32V36.5Z" fill="#000000"/>
<path d="M36 32.5H40V36.5H36V32.5Z" fill="#000000"/>
<path d="M40 28.5H44V32.5H40V28.5Z" fill="#000000"/>
<path d="M44 24.5H48V28.5H44V24.5Z" fill="#000000"/>
<path d="M48 28.5H52V32.5H48V28.5Z" fill="#000000"/>
<path d="M44 32.5H48V36.5H44V32.5Z" fill="#000000"/>
<path d="M36 40.5H40V44.5H36V40.5Z" fill="#000000"/>
<path d="M32 44.5H36V48.5H32V44.5Z" fill="#000000"/>
<path d="M28 48.5H32V52.5H28V48.5Z" fill="#000000"/>
<path d="M24 52.5H28V56.5H24V52.5Z" fill="#000000"/>
<path d="M20 56.5H24V60.5H20V56.5Z" fill="#000000"/>
<path d="M24 60.5H28V64.5H24V60.5Z" fill="#000000"/>
<path d="M28 64.5H32V68.5H28V64.5Z" fill="#000000"/>
<path d="M32 68.5H36V72.5H32V68.5Z" fill="#000000"/>
<path d="M28 72.5H32V76.5H28V72.5Z" fill="#000000"/>
<path d="M24 68.5H28V72.5H24V68.5Z" fill="#000000"/>
<path d="M36 72.5H40V76.5H36V72.5Z" fill="#000000"/>
<path d="M40 76.5H44V80.5H40V76.5Z" fill="#000000"/>
<path d="M44 80.5H48V84.5H44V80.5Z" fill="#000000"/>
<path d="M48 84.5H52V88.5H48V84.5Z" fill="#000000"/>
<path d="M52 80.5H56V84.5H52V80.5Z" fill="#000000"/>
<path d="M56 84.5H60V88.5H56V84.5Z" fill="#000000"/>
<path d="M60 88.5H64V92.5H60V88.5Z" fill="#000000"/>
<path d="M64 92.5H68V96.5H64V92.5Z" fill="#000000"/>
<path d="M68 96.5H72V100.5H68V96.5Z" fill="#000000"/>
<path d="M64 100.5H68V104.5H64V100.5Z" fill="#000000"/>
<path d="M68 104.5H72V108.5H68V104.5Z" fill="#000000"/>
<path d="M72 108.5H76V112.5H72V108.5Z" fill="#000000"/>
<path d="M72 116.5H76V120.5H72V116.5Z" fill="#000000"/>
<path d="M76 116.5H80V120.5H76V116.5Z" fill="#000000"/>
<path d="M80 116.5H84V120.5H80V116.5Z" fill="#000000"/>
<path d="M84 112.5H88V116.5H84V112.5Z" fill="#000000"/>
<path d="M88 112.5H92V116.5H88V112.5Z" fill="#000000"/>
<path d="M92 108.5H96V112.5H92V108.5Z" fill="#000000"/>
<path d="M96 104.5H100V108.5H96V104.5Z" fill="#000000"/>
<path d="M100 100.5H104V104.5H100V100.5Z" fill="#000000"/>
<path d="M104 96.5H108V100.5H104V96.5Z" fill="#000000"/>
<path d="M108 92.5H112V96.5H108V92.5Z" fill="#000000"/>
<path d="M108 88.5H112V92.5H108V88.5Z" fill="#000000"/>
<path d="M112 84.5H116V88.5H112V84.5Z" fill="#000000"/>
<path d="M112 80.5H116V84.5H112V80.5Z" fill="#000000"/>
<path d="M112 76.5H116V80.5H112V76.5Z" fill="#000000"/>
<path d="M116 72.5H120V76.5H116V72.5Z" fill="#000000"/>
<path d="M116 68.5H120V72.5H116V68.5Z" fill="#000000"/>
<path d="M116 64.5H120V68.5H116V64.5Z" fill="#000000"/>
<path d="M112 64.5H116V68.5H112V64.5Z" fill="#000000"/>
<path d="M108 68.5H112V72.5H108V68.5Z" fill="#000000"/>
<path d="M104 64.5H108V68.5H104V64.5Z" fill="#000000"/>
<path d="M100 68.5H104V72.5H100V68.5Z" fill="#000000"/>
<path d="M96 72.5H100V76.5H96V72.5Z" fill="#000000"/>
<path d="M92 68.5H96V72.5H92V68.5Z" fill="#000000"/>
<path d="M96 64.5H100V68.5H96V64.5Z" fill="#000000"/>
<path d="M92 60.5H96V64.5H92V60.5Z" fill="#000000"/>
<path d="M88 56.5H92V60.5H88V56.5Z" fill="#000000"/>
<path d="M100 60.5H104V64.5H100V60.5Z" fill="#000000"/>
<path d="M96 56.5H100V60.5H96V56.5Z" fill="#000000"/>
<path d="M92 52.5H96V56.5H92V52.5Z" fill="#000000"/>
<path d="M104 56.5H108V60.5H104V56.5Z" fill="#000000"/>
<path d="M100 52.5H104V56.5H100V52.5Z" fill="#000000"/>
<path d="M96 48.5H100V52.5H96V48.5Z" fill="#000000"/>
<path d="M108 52.5H112V56.5H108V52.5Z" fill="#000000"/>
<path d="M112 56.5H116V60.5H112V56.5Z" fill="#000000"/>
<path d="M108 60.5H112V64.5H108V60.5Z" fill="#000000"/>
<path d="M88 64.5H92V68.5H88V64.5Z" fill="#000000"/>
<path d="M84 68.5H88V72.5H84V68.5Z" fill="#000000"/>
<path d="M88 72.5H92V76.5H88V72.5Z" fill="#000000"/>
<path d="M84 60.5H88V64.5H84V60.5Z" fill="#000000"/>
<path d="M116 60.5H120V64.5H116V60.5Z" fill="#000000"/>
<path d="M116 56.5H120V60.5H116V56.5Z" fill="#000000"/>
<path d="M116 52.5H120V56.5H116V52.5Z" fill="#000000"/>
<path d="M116 48.5H120V52.5H116V48.5Z" fill="#000000"/>
<path d="M112 44.5H116V48.5H112V44.5Z" fill="#000000"/>
<path d="M68 112.5H72V116.5H68V112.5Z" fill="#000000"/>
<path d="M64 116.5H68V120.5H64V116.5Z" fill="#000000"/>
<path d="M64 108.5H68V112.5H64V108.5Z" fill="#000000"/>
<path d="M72 100.5H76V104.5H72V100.5Z" fill="#000000"/>
<path d="M76 104.5H80V108.5H76V104.5Z" fill="#000000"/>
<path d="M80 100.5H84V104.5H80V100.5Z" fill="#000000"/>
<path d="M76 96.5H80V100.5H76V96.5Z" fill="#000000"/>
<path d="M80 92.5H84V96.5H80V92.5Z" fill="#000000"/>
<path d="M76 88.5H80V92.5H76V88.5Z" fill="#000000"/>
<path d="M72 84.5H76V88.5H72V84.5Z" fill="#000000"/>
<path d="M68 80.5H72V84.5H68V80.5Z" fill="#000000"/>
<path d="M72 92.5H76V96.5H72V92.5Z" fill="#000000"/>
<path d="M68 88.5H72V92.5H68V88.5Z" fill="#000000"/>
<path d="M64 84.5H68V88.5H64V84.5Z" fill="#000000"/>
<path d="M48 76.5H52V80.5H48V76.5Z" fill="#000000"/>
<path d="M52 72.5H56V76.5H52V72.5Z" fill="#000000"/>
<path d="M56 68.5H60V72.5H56V68.5Z" fill="#000000"/>
<path d="M56 60.5H60V64.5H56V60.5Z" fill="#000000"/>
<path d="M56 52.5H60V56.5H56V52.5Z" fill="#000000"/>
<path d="M56 44.5H60V48.5H56V44.5Z" fill="#000000"/>
<path d="M56 36.5H60V40.5H56V36.5Z" fill="#000000"/>
<path d="M56 28.5H60V32.5H56V28.5Z" fill="#000000"/>
<path d="M60 24.5H64V28.5H60V24.5Z" fill="#000000"/>
<path d="M64 28.5H68V32.5H64V28.5Z" fill="#000000"/>
<path d="M60 32.5H64V36.5H60V32.5Z" fill="#000000"/>
<path d="M64 36.5H68V40.5H64V36.5Z" fill="#000000"/>
<path d="M64 44.5H68V48.5H64V44.5Z" fill="#000000"/>
<path d="M60 48.5H64V52.5H60V48.5Z" fill="#000000"/>
<path d="M68 48.5H72V52.5H68V48.5Z" fill="#000000"/>
<path d="M60 56.5H64V60.5H60V56.5Z" fill="#000000"/>
<path d="M52 32.5H56V36.5H52V32.5Z" fill="#000000"/>
<path d="M52 48.5H56V52.5H52V48.5Z" fill="#000000"/>
<path d="M52 56.5H56V60.5H52V56.5Z" fill="#000000"/>
<path d="M48 52.5H52V56.5H48V52.5Z" fill="#000000"/>
<path d="M44 48.5H48V52.5H44V48.5Z" fill="#000000"/>
<path d="M48 44.5H52V48.5H48V44.5Z" fill="#000000"/>
<path d="M48 36.5H52V40.5H48V36.5Z" fill="#000000"/>
<path d="M40 44.5H44V48.5H40V44.5Z" fill="#000000"/>
<path d="M52 64.5H56V68.5H52V64.5Z" fill="#000000"/>
<path d="M48 68.5H52V72.5H48V68.5Z" fill="#000000"/>
<path d="M48 60.5H52V64.5H48V60.5Z" fill="#000000"/>
<path d="M44 64.5H48V68.5H44V64.5Z" fill="#000000"/>
<path d="M40 68.5H44V72.5H40V68.5Z" fill="#000000"/>
<path d="M44 56.5H48V60.5H44V56.5Z" fill="#000000"/>
<path d="M40 60.5H44V64.5H40V60.5Z" fill="#000000"/>
<path d="M36 64.5H40V68.5H36V64.5Z" fill="#000000"/>
<path d="M40 52.5H44V56.5H40V52.5Z" fill="#000000"/>
<path d="M36 56.5H40V60.5H36V56.5Z" fill="#000000"/>
<path d="M32 60.5H36V64.5H32V60.5Z" fill="#000000"/>
<path d="M36 48.5H40V52.5H36V48.5Z" fill="#000000"/>
<path d="M32 52.5H36V56.5H32V52.5Z" fill="#000000"/>
<path d="M28 56.5H32V60.5H28V56.5Z" fill="#000000"/>
<path d="M20 48.5H24V52.5H20V48.5Z" fill="#000000"/>
</svg>
