<svg xmlns="http://www.w3.org/2000/svg" xmlns:xlink="http://www.w3.org/1999/xlink" width="1080" zoomAndPan="magnify" viewBox="0 0 810 809.999993" height="1080" preserveAspectRatio="xMidYMid meet" version="1.0"><defs><clipPath id="6988a9e13a"><path d="M 40.621094 314.457031 L 769.378906 314.457031 L 769.378906 496.277344 L 40.621094 496.277344 Z M 40.621094 314.457031 " clip-rule="nonzero"/></clipPath><clipPath id="a0863ee4e7"><path d="M 326.320312 28.515625 L 484.894531 28.515625 L 484.894531 781.742188 L 326.320312 781.742188 Z M 326.320312 28.515625 " clip-rule="nonzero"/></clipPath><clipPath id="c351852c0b"><path d="M 248.625 54.078125 L 561.367188 54.078125 L 561.367188 755.917969 L 248.625 755.917969 Z M 248.625 54.078125 " clip-rule="nonzero"/></clipPath><clipPath id="73a781b7bb"><path d="M 196.011719 80.996094 L 613.980469 80.996094 L 613.980469 728.996094 L 196.011719 728.996094 Z M 196.011719 80.996094 " clip-rule="nonzero"/></clipPath><clipPath id="ae7fa52d2a"><path d="M 171.539062 106.691406 L 639.675781 106.691406 L 639.675781 704.527344 L 171.539062 704.527344 Z M 171.539062 106.691406 " clip-rule="nonzero"/></clipPath><clipPath id="c14b3ebfbb"><path d="M 145.84375 131.164062 L 664.148438 131.164062 L 664.148438 678.832031 L 145.84375 678.832031 Z M 145.84375 131.164062 " clip-rule="nonzero"/></clipPath><clipPath id="288479b9ba"><path d="M 119.539062 156.863281 L 690.453125 156.863281 L 690.453125 651.917969 L 119.539062 651.917969 Z M 119.539062 156.863281 " clip-rule="nonzero"/></clipPath><clipPath id="cb8f00d68e"><path d="M 93 183.785156 L 717.371094 183.785156 L 717.371094 626.226562 L 93 626.226562 Z M 93 183.785156 " clip-rule="nonzero"/></clipPath><clipPath id="e73a19427c"><path d="M 67 236.394531 L 743.066406 236.394531 L 743.066406 573.609375 L 67 573.609375 Z M 67 236.394531 " clip-rule="nonzero"/></clipPath><clipPath id="8c3eb323c0"><path d="M 16.199219 314 L 43 314 L 43 341 L 16.199219 341 Z M 16.199219 314 " clip-rule="nonzero"/></clipPath><clipPath id="974c83ccc7"><path d="M 16.199219 340 L 43 340 L 43 367 L 16.199219 367 Z M 16.199219 340 " clip-rule="nonzero"/></clipPath><clipPath id="dddb1f1fdc"><path d="M 16.199219 366 L 43 366 L 43 393 L 16.199219 393 Z M 16.199219 366 " clip-rule="nonzero"/></clipPath><clipPath id="d4d0f3e6d5"><path d="M 16.199219 392 L 43 392 L 43 418 L 16.199219 418 Z M 16.199219 392 " clip-rule="nonzero"/></clipPath><clipPath id="ed44fd08f9"><path d="M 16.199219 417 L 43 417 L 43 444 L 16.199219 444 Z M 16.199219 417 " clip-rule="nonzero"/></clipPath><clipPath id="c5924efa80"><path d="M 16.199219 443 L 43 443 L 43 470 L 16.199219 470 Z M 16.199219 443 " clip-rule="nonzero"/></clipPath><clipPath id="42efb094a1"><path d="M 16.199219 469 L 43 469 L 43 496 L 16.199219 496 Z M 16.199219 469 " clip-rule="nonzero"/></clipPath><clipPath id="d4eef2472a"><path d="M 768 469 L 793.949219 469 L 793.949219 496 L 768 496 Z M 768 469 " clip-rule="nonzero"/></clipPath><clipPath id="7370fdb6e8"><path d="M 768 443 L 793.949219 443 L 793.949219 470 L 768 470 Z M 768 443 " clip-rule="nonzero"/></clipPath><clipPath id="00d5145b90"><path d="M 768 417 L 793.949219 417 L 793.949219 444 L 768 444 Z M 768 417 " clip-rule="nonzero"/></clipPath><clipPath id="9ad0345f19"><path d="M 768 392 L 793.949219 392 L 793.949219 418 L 768 418 Z M 768 392 " clip-rule="nonzero"/></clipPath><clipPath id="1b0d346cc5"><path d="M 768 366 L 793.949219 366 L 793.949219 393 L 768 393 Z M 768 366 " clip-rule="nonzero"/></clipPath><clipPath id="3158195cfd"><path d="M 768 340 L 793.949219 340 L 793.949219 367 L 768 367 Z M 768 340 " clip-rule="nonzero"/></clipPath><clipPath id="fb92646fd0"><path d="M 768 314 L 793.949219 314 L 793.949219 341 L 768 341 Z M 768 314 " clip-rule="nonzero"/></clipPath></defs><g clip-path="url(#6988a9e13a)"><path fill="#ffffff" d="M 40.621094 314.457031 L 769.328125 314.457031 L 769.328125 496.277344 L 40.621094 496.277344 Z M 40.621094 314.457031 " fill-opacity="1" fill-rule="nonzero"/></g><g clip-path="url(#a0863ee4e7)"><path fill="#ffffff" d="M 484.894531 28.515625 L 484.894531 781.742188 L 326.320312 781.742188 L 326.320312 28.515625 Z M 484.894531 28.515625 " fill-opacity="1" fill-rule="nonzero"/></g><g clip-path="url(#c351852c0b)"><path fill="#ffffff" d="M 561.367188 54.078125 L 561.367188 755.308594 L 248.625 755.308594 L 248.625 54.078125 Z M 561.367188 54.078125 " fill-opacity="1" fill-rule="nonzero"/></g><g clip-path="url(#73a781b7bb)"><path fill="#ffffff" d="M 613.980469 80.996094 L 613.980469 729.175781 L 196.011719 729.175781 L 196.011719 80.996094 Z M 613.980469 80.996094 " fill-opacity="1" fill-rule="nonzero"/></g><g clip-path="url(#ae7fa52d2a)"><path fill="#ffffff" d="M 639.675781 106.691406 L 639.675781 704.664062 L 171.539062 704.664062 L 171.539062 106.691406 Z M 639.675781 106.691406 " fill-opacity="1" fill-rule="nonzero"/></g><g clip-path="url(#c14b3ebfbb)"><path fill="#ffffff" d="M 664.148438 131.164062 L 664.148438 679.835938 L 145.84375 679.835938 L 145.84375 131.164062 Z M 664.148438 131.164062 " fill-opacity="1" fill-rule="nonzero"/></g><g clip-path="url(#288479b9ba)"><path fill="#ffffff" d="M 690.453125 156.863281 L 690.453125 651.917969 L 119.980469 651.917969 L 119.980469 156.863281 Z M 690.453125 156.863281 " fill-opacity="1" fill-rule="nonzero"/></g><g clip-path="url(#cb8f00d68e)"><path fill="#ffffff" d="M 717.371094 183.785156 L 717.371094 626.226562 L 93.457031 626.226562 L 93.457031 183.785156 Z M 717.371094 183.785156 " fill-opacity="1" fill-rule="nonzero"/></g><g clip-path="url(#e73a19427c)"><path fill="#ffffff" d="M 743.066406 236.394531 L 743.066406 573.609375 L 67.316406 573.609375 L 67.316406 236.394531 Z M 743.066406 236.394531 " fill-opacity="1" fill-rule="nonzero"/></g><path fill="#000000" d="M 119.898438 236.519531 L 145.824219 236.519531 L 145.824219 262.441406 L 119.898438 262.441406 Z M 119.898438 236.519531 " fill-opacity="1" fill-rule="nonzero"/><path fill="#000000" d="M 93.976562 210.601562 L 119.898438 210.601562 L 119.898438 236.519531 L 93.976562 236.519531 Z M 93.976562 210.601562 " fill-opacity="1" fill-rule="nonzero"/><path fill="#000000" d="M 119.898438 184.679688 L 145.824219 184.679688 L 145.824219 210.601562 L 119.898438 210.601562 Z M 119.898438 184.679688 " fill-opacity="1" fill-rule="nonzero"/><path fill="#000000" d="M 145.824219 158.761719 L 171.75 158.761719 L 171.75 184.679688 L 145.824219 184.679688 Z M 145.824219 158.761719 " fill-opacity="1" fill-rule="nonzero"/><path fill="#000000" d="M 171.75 132.839844 L 197.675781 132.839844 L 197.675781 158.761719 L 171.75 158.761719 Z M 171.75 132.839844 " fill-opacity="1" fill-rule="nonzero"/><path fill="#000000" d="M 197.675781 106.921875 L 223.601562 106.921875 L 223.601562 132.839844 L 197.675781 132.839844 Z M 197.675781 106.921875 " fill-opacity="1" fill-rule="nonzero"/><path fill="#000000" d="M 223.601562 81 L 249.523438 81 L 249.523438 106.921875 L 223.601562 106.921875 Z M 223.601562 81 " fill-opacity="1" fill-rule="nonzero"/><path fill="#000000" d="M 223.601562 55.082031 L 249.523438 55.082031 L 249.523438 81 L 223.601562 81 Z M 223.601562 55.082031 " fill-opacity="1" fill-rule="nonzero"/><path fill="#000000" d="M 249.523438 29.160156 L 275.449219 29.160156 L 275.449219 55.082031 L 249.523438 55.082031 Z M 249.523438 29.160156 " fill-opacity="1" fill-rule="nonzero"/><path fill="#000000" d="M 275.449219 29.160156 L 301.375 29.160156 L 301.375 55.082031 L 275.449219 55.082031 Z M 275.449219 29.160156 " fill-opacity="1" fill-rule="nonzero"/><path fill="#000000" d="M 301.375 29.160156 L 327.300781 29.160156 L 327.300781 55.082031 L 301.375 55.082031 Z M 301.375 29.160156 " fill-opacity="1" fill-rule="nonzero"/><path fill="#000000" d="M 327.300781 3.242188 L 353.226562 3.242188 L 353.226562 29.160156 L 327.300781 29.160156 Z M 327.300781 3.242188 " fill-opacity="1" fill-rule="nonzero"/><path fill="#000000" d="M 353.226562 3.242188 L 379.148438 3.242188 L 379.148438 29.160156 L 353.226562 29.160156 Z M 353.226562 3.242188 " fill-opacity="1" fill-rule="nonzero"/><path fill="#000000" d="M 379.148438 3.242188 L 405.074219 3.242188 L 405.074219 29.160156 L 379.148438 29.160156 Z M 379.148438 3.242188 " fill-opacity="1" fill-rule="nonzero"/><path fill="#000000" d="M 405.074219 3.242188 L 431 3.242188 L 431 29.160156 L 405.074219 29.160156 Z M 405.074219 3.242188 " fill-opacity="1" fill-rule="nonzero"/><path fill="#000000" d="M 431 3.242188 L 456.925781 3.242188 L 456.925781 29.160156 L 431 29.160156 Z M 431 3.242188 " fill-opacity="1" fill-rule="nonzero"/><path fill="#000000" d="M 456.925781 3.242188 L 482.851562 3.242188 L 482.851562 29.160156 L 456.925781 29.160156 Z M 456.925781 3.242188 " fill-opacity="1" fill-rule="nonzero"/><path fill="#000000" d="M 456.925781 29.160156 L 482.851562 29.160156 L 482.851562 55.082031 L 456.925781 55.082031 Z M 456.925781 29.160156 " fill-opacity="1" fill-rule="nonzero"/><path fill="#000000" d="M 482.851562 29.160156 L 508.773438 29.160156 L 508.773438 55.082031 L 482.851562 55.082031 Z M 482.851562 29.160156 " fill-opacity="1" fill-rule="nonzero"/><path fill="#000000" d="M 482.851562 55.082031 L 508.773438 55.082031 L 508.773438 81 L 482.851562 81 Z M 482.851562 55.082031 " fill-opacity="1" fill-rule="nonzero"/><path fill="#000000" d="M 508.773438 81 L 534.699219 81 L 534.699219 106.921875 L 508.773438 106.921875 Z M 508.773438 81 " fill-opacity="1" fill-rule="nonzero"/><path fill="#000000" d="M 482.851562 106.921875 L 508.773438 106.921875 L 508.773438 132.839844 L 482.851562 132.839844 Z M 482.851562 106.921875 " fill-opacity="1" fill-rule="nonzero"/><path fill="#000000" d="M 456.925781 132.839844 L 482.851562 132.839844 L 482.851562 158.761719 L 456.925781 158.761719 Z M 456.925781 132.839844 " fill-opacity="1" fill-rule="nonzero"/><path fill="#000000" d="M 431 106.921875 L 456.925781 106.921875 L 456.925781 132.839844 L 431 132.839844 Z M 431 106.921875 " fill-opacity="1" fill-rule="nonzero"/><path fill="#000000" d="M 456.925781 81 L 482.851562 81 L 482.851562 106.921875 L 456.925781 106.921875 Z M 456.925781 81 " fill-opacity="1" fill-rule="nonzero"/><path fill="#000000" d="M 508.773438 29.160156 L 534.699219 29.160156 L 534.699219 55.082031 L 508.773438 55.082031 Z M 508.773438 29.160156 " fill-opacity="1" fill-rule="nonzero"/><path fill="#000000" d="M 534.699219 29.160156 L 560.625 29.160156 L 560.625 55.082031 L 534.699219 55.082031 Z M 534.699219 29.160156 " fill-opacity="1" fill-rule="nonzero"/><path fill="#000000" d="M 560.625 55.082031 L 586.550781 55.082031 L 586.550781 81 L 560.625 81 Z M 560.625 55.082031 " fill-opacity="1" fill-rule="nonzero"/><path fill="#000000" d="M 586.550781 55.082031 L 612.476562 55.082031 L 612.476562 81 L 586.550781 81 Z M 586.550781 55.082031 " fill-opacity="1" fill-rule="nonzero"/><path fill="#000000" d="M 612.476562 81 L 638.398438 81 L 638.398438 106.921875 L 612.476562 106.921875 Z M 612.476562 81 " fill-opacity="1" fill-rule="nonzero"/><path fill="#000000" d="M 638.398438 106.921875 L 664.324219 106.921875 L 664.324219 132.839844 L 638.398438 132.839844 Z M 638.398438 106.921875 " fill-opacity="1" fill-rule="nonzero"/><path fill="#000000" d="M 664.324219 132.839844 L 690.25 132.839844 L 690.25 158.761719 L 664.324219 158.761719 Z M 664.324219 132.839844 " fill-opacity="1" fill-rule="nonzero"/><path fill="#000000" d="M 690.25 158.761719 L 716.175781 158.761719 L 716.175781 184.679688 L 690.25 184.679688 Z M 690.25 158.761719 " fill-opacity="1" fill-rule="nonzero"/><path fill="#000000" d="M 716.175781 184.679688 L 742.101562 184.679688 L 742.101562 210.601562 L 716.175781 210.601562 Z M 716.175781 184.679688 " fill-opacity="1" fill-rule="nonzero"/><path fill="#000000" d="M 716.175781 210.601562 L 742.101562 210.601562 L 742.101562 236.519531 L 716.175781 236.519531 Z M 716.175781 210.601562 " fill-opacity="1" fill-rule="nonzero"/><path fill="#000000" d="M 716.175781 236.519531 L 742.101562 236.519531 L 742.101562 262.441406 L 716.175781 262.441406 Z M 716.175781 236.519531 " fill-opacity="1" fill-rule="nonzero"/><path fill="#000000" d="M 742.101562 236.519531 L 768.023438 236.519531 L 768.023438 262.441406 L 742.101562 262.441406 Z M 742.101562 236.519531 " fill-opacity="1" fill-rule="nonzero"/><path fill="#000000" d="M 742.101562 262.441406 L 768.023438 262.441406 L 768.023438 288.359375 L 742.101562 288.359375 Z M 742.101562 262.441406 " fill-opacity="1" fill-rule="nonzero"/><path fill="#000000" d="M 690.25 262.441406 L 716.175781 262.441406 L 716.175781 288.359375 L 690.25 288.359375 Z M 690.25 262.441406 " fill-opacity="1" fill-rule="nonzero"/><path fill="#000000" d="M 664.324219 236.519531 L 690.25 236.519531 L 690.25 262.441406 L 664.324219 262.441406 Z M 664.324219 236.519531 " fill-opacity="1" fill-rule="nonzero"/><path fill="#000000" d="M 690.25 210.601562 L 716.175781 210.601562 L 716.175781 236.519531 L 690.25 236.519531 Z M 690.25 210.601562 " fill-opacity="1" fill-rule="nonzero"/><path fill="#000000" d="M 664.324219 184.679688 L 690.25 184.679688 L 690.25 210.601562 L 664.324219 210.601562 Z M 664.324219 184.679688 " fill-opacity="1" fill-rule="nonzero"/><path fill="#000000" d="M 638.398438 158.761719 L 664.324219 158.761719 L 664.324219 184.679688 L 638.398438 184.679688 Z M 638.398438 158.761719 " fill-opacity="1" fill-rule="nonzero"/><path fill="#000000" d="M 612.476562 132.839844 L 638.398438 132.839844 L 638.398438 158.761719 L 612.476562 158.761719 Z M 612.476562 132.839844 " fill-opacity="1" fill-rule="nonzero"/><path fill="#000000" d="M 508.773438 184.679688 L 534.699219 184.679688 L 534.699219 210.601562 L 508.773438 210.601562 Z M 508.773438 184.679688 " fill-opacity="1" fill-rule="nonzero"/><path fill="#000000" d="M 560.625 288.359375 L 586.550781 288.359375 L 586.550781 314.28125 L 560.625 314.28125 Z M 560.625 288.359375 " fill-opacity="1" fill-rule="nonzero"/><path fill="#000000" d="M 638.398438 262.441406 L 664.324219 262.441406 L 664.324219 288.359375 L 638.398438 288.359375 Z M 638.398438 262.441406 " fill-opacity="1" fill-rule="nonzero"/><path fill="#000000" d="M 612.476562 236.519531 L 638.398438 236.519531 L 638.398438 262.441406 L 612.476562 262.441406 Z M 612.476562 236.519531 " fill-opacity="1" fill-rule="nonzero"/><path fill="#000000" d="M 638.398438 210.601562 L 664.324219 210.601562 L 664.324219 236.519531 L 638.398438 236.519531 Z M 638.398438 210.601562 " fill-opacity="1" fill-rule="nonzero"/><path fill="#000000" d="M 612.476562 184.679688 L 638.398438 184.679688 L 638.398438 210.601562 L 612.476562 210.601562 Z M 612.476562 184.679688 " fill-opacity="1" fill-rule="nonzero"/><path fill="#000000" d="M 586.550781 158.761719 L 612.476562 158.761719 L 612.476562 184.679688 L 586.550781 184.679688 Z M 586.550781 158.761719 " fill-opacity="1" fill-rule="nonzero"/><path fill="#000000" d="M 586.550781 262.441406 L 612.476562 262.441406 L 612.476562 288.359375 L 586.550781 288.359375 Z M 586.550781 262.441406 " fill-opacity="1" fill-rule="nonzero"/><path fill="#000000" d="M 560.625 236.519531 L 586.550781 236.519531 L 586.550781 262.441406 L 560.625 262.441406 Z M 560.625 236.519531 " fill-opacity="1" fill-rule="nonzero"/><path fill="#000000" d="M 586.550781 210.601562 L 612.476562 210.601562 L 612.476562 236.519531 L 586.550781 236.519531 Z M 586.550781 210.601562 " fill-opacity="1" fill-rule="nonzero"/><path fill="#000000" d="M 560.625 184.679688 L 586.550781 184.679688 L 586.550781 210.601562 L 560.625 210.601562 Z M 560.625 184.679688 " fill-opacity="1" fill-rule="nonzero"/><path fill="#000000" d="M 534.699219 158.761719 L 560.625 158.761719 L 560.625 184.679688 L 534.699219 184.679688 Z M 534.699219 158.761719 " fill-opacity="1" fill-rule="nonzero"/><path fill="#000000" d="M 534.699219 262.441406 L 560.625 262.441406 L 560.625 288.359375 L 534.699219 288.359375 Z M 534.699219 262.441406 " fill-opacity="1" fill-rule="nonzero"/><path fill="#000000" d="M 197.675781 55.082031 L 223.601562 55.082031 L 223.601562 81 L 197.675781 81 Z M 197.675781 55.082031 " fill-opacity="1" fill-rule="nonzero"/><path fill="#000000" d="M 171.75 81 L 197.675781 81 L 197.675781 106.921875 L 171.75 106.921875 Z M 171.75 81 " fill-opacity="1" fill-rule="nonzero"/><path fill="#000000" d="M 145.824219 106.921875 L 171.75 106.921875 L 171.75 132.839844 L 145.824219 132.839844 Z M 145.824219 106.921875 " fill-opacity="1" fill-rule="nonzero"/><path fill="#000000" d="M 119.898438 132.839844 L 145.824219 132.839844 L 145.824219 158.761719 L 119.898438 158.761719 Z M 119.898438 132.839844 " fill-opacity="1" fill-rule="nonzero"/><path fill="#000000" d="M 93.976562 158.761719 L 119.898438 158.761719 L 119.898438 184.679688 L 93.976562 184.679688 Z M 93.976562 158.761719 " fill-opacity="1" fill-rule="nonzero"/><path fill="#000000" d="M 68.050781 184.679688 L 93.976562 184.679688 L 93.976562 210.601562 L 68.050781 210.601562 Z M 68.050781 184.679688 " fill-opacity="1" fill-rule="nonzero"/><path fill="#000000" d="M 68.050781 210.601562 L 93.976562 210.601562 L 93.976562 236.519531 L 68.050781 236.519531 Z M 68.050781 210.601562 " fill-opacity="1" fill-rule="nonzero"/><path fill="#000000" d="M 42.125 236.519531 L 68.050781 236.519531 L 68.050781 262.441406 L 42.125 262.441406 Z M 42.125 236.519531 " fill-opacity="1" fill-rule="nonzero"/><path fill="#000000" d="M 42.125 262.441406 L 68.050781 262.441406 L 68.050781 288.359375 L 42.125 288.359375 Z M 42.125 262.441406 " fill-opacity="1" fill-rule="nonzero"/><path fill="#000000" d="M 42.125 288.359375 L 68.050781 288.359375 L 68.050781 314.28125 L 42.125 314.28125 Z M 42.125 288.359375 " fill-opacity="1" fill-rule="nonzero"/><g clip-path="url(#8c3eb323c0)"><path fill="#000000" d="M 16.199219 314.28125 L 42.125 314.28125 L 42.125 340.199219 L 16.199219 340.199219 Z M 16.199219 314.28125 " fill-opacity="1" fill-rule="nonzero"/></g><g clip-path="url(#974c83ccc7)"><path fill="#000000" d="M 16.199219 340.199219 L 42.125 340.199219 L 42.125 366.121094 L 16.199219 366.121094 Z M 16.199219 340.199219 " fill-opacity="1" fill-rule="nonzero"/></g><g clip-path="url(#dddb1f1fdc)"><path fill="#000000" d="M 16.199219 366.121094 L 42.125 366.121094 L 42.125 392.039062 L 16.199219 392.039062 Z M 16.199219 366.121094 " fill-opacity="1" fill-rule="nonzero"/></g><g clip-path="url(#d4d0f3e6d5)"><path fill="#000000" d="M 16.199219 392.039062 L 42.125 392.039062 L 42.125 417.960938 L 16.199219 417.960938 Z M 16.199219 392.039062 " fill-opacity="1" fill-rule="nonzero"/></g><g clip-path="url(#ed44fd08f9)"><path fill="#000000" d="M 16.199219 417.960938 L 42.125 417.960938 L 42.125 443.878906 L 16.199219 443.878906 Z M 16.199219 417.960938 " fill-opacity="1" fill-rule="nonzero"/></g><g clip-path="url(#c5924efa80)"><path fill="#000000" d="M 16.199219 443.878906 L 42.125 443.878906 L 42.125 469.800781 L 16.199219 469.800781 Z M 16.199219 443.878906 " fill-opacity="1" fill-rule="nonzero"/></g><g clip-path="url(#42efb094a1)"><path fill="#000000" d="M 16.199219 469.800781 L 42.125 469.800781 L 42.125 495.71875 L 16.199219 495.71875 Z M 16.199219 469.800781 " fill-opacity="1" fill-rule="nonzero"/></g><path fill="#000000" d="M 42.125 495.71875 L 68.050781 495.71875 L 68.050781 521.640625 L 42.125 521.640625 Z M 42.125 495.71875 " fill-opacity="1" fill-rule="nonzero"/><path fill="#000000" d="M 42.125 521.640625 L 68.050781 521.640625 L 68.050781 547.558594 L 42.125 547.558594 Z M 42.125 521.640625 " fill-opacity="1" fill-rule="nonzero"/><path fill="#000000" d="M 42.125 547.558594 L 68.050781 547.558594 L 68.050781 573.480469 L 42.125 573.480469 Z M 42.125 547.558594 " fill-opacity="1" fill-rule="nonzero"/><path fill="#000000" d="M 68.050781 573.480469 L 93.976562 573.480469 L 93.976562 599.398438 L 68.050781 599.398438 Z M 68.050781 573.480469 " fill-opacity="1" fill-rule="nonzero"/><path fill="#000000" d="M 68.050781 599.398438 L 93.976562 599.398438 L 93.976562 625.320312 L 68.050781 625.320312 Z M 68.050781 599.398438 " fill-opacity="1" fill-rule="nonzero"/><path fill="#000000" d="M 93.976562 625.320312 L 119.898438 625.320312 L 119.898438 651.238281 L 93.976562 651.238281 Z M 93.976562 625.320312 " fill-opacity="1" fill-rule="nonzero"/><path fill="#000000" d="M 119.898438 651.238281 L 145.824219 651.238281 L 145.824219 677.160156 L 119.898438 677.160156 Z M 119.898438 651.238281 " fill-opacity="1" fill-rule="nonzero"/><path fill="#000000" d="M 145.824219 677.160156 L 171.75 677.160156 L 171.75 703.078125 L 145.824219 703.078125 Z M 145.824219 677.160156 " fill-opacity="1" fill-rule="nonzero"/><path fill="#000000" d="M 171.75 703.078125 L 197.675781 703.078125 L 197.675781 729 L 171.75 729 Z M 171.75 703.078125 " fill-opacity="1" fill-rule="nonzero"/><path fill="#000000" d="M 197.675781 729 L 223.601562 729 L 223.601562 754.917969 L 197.675781 754.917969 Z M 197.675781 729 " fill-opacity="1" fill-rule="nonzero"/><path fill="#000000" d="M 223.601562 729 L 249.523438 729 L 249.523438 754.917969 L 223.601562 754.917969 Z M 223.601562 729 " fill-opacity="1" fill-rule="nonzero"/><path fill="#000000" d="M 249.523438 754.917969 L 275.449219 754.917969 L 275.449219 780.839844 L 249.523438 780.839844 Z M 249.523438 754.917969 " fill-opacity="1" fill-rule="nonzero"/><path fill="#000000" d="M 275.449219 754.917969 L 301.375 754.917969 L 301.375 780.839844 L 275.449219 780.839844 Z M 275.449219 754.917969 " fill-opacity="1" fill-rule="nonzero"/><path fill="#000000" d="M 301.375 754.917969 L 327.300781 754.917969 L 327.300781 780.839844 L 301.375 780.839844 Z M 301.375 754.917969 " fill-opacity="1" fill-rule="nonzero"/><path fill="#000000" d="M 327.300781 780.839844 L 353.226562 780.839844 L 353.226562 806.757812 L 327.300781 806.757812 Z M 327.300781 780.839844 " fill-opacity="1" fill-rule="nonzero"/><path fill="#000000" d="M 353.226562 780.839844 L 379.148438 780.839844 L 379.148438 806.757812 L 353.226562 806.757812 Z M 353.226562 780.839844 " fill-opacity="1" fill-rule="nonzero"/><path fill="#000000" d="M 379.148438 780.839844 L 405.074219 780.839844 L 405.074219 806.757812 L 379.148438 806.757812 Z M 379.148438 780.839844 " fill-opacity="1" fill-rule="nonzero"/><path fill="#000000" d="M 405.074219 780.839844 L 431 780.839844 L 431 806.757812 L 405.074219 806.757812 Z M 405.074219 780.839844 " fill-opacity="1" fill-rule="nonzero"/><path fill="#000000" d="M 431 780.839844 L 456.925781 780.839844 L 456.925781 806.757812 L 431 806.757812 Z M 431 780.839844 " fill-opacity="1" fill-rule="nonzero"/><path fill="#000000" d="M 456.925781 780.839844 L 482.851562 780.839844 L 482.851562 806.757812 L 456.925781 806.757812 Z M 456.925781 780.839844 " fill-opacity="1" fill-rule="nonzero"/><path fill="#000000" d="M 145.824219 210.601562 L 171.75 210.601562 L 171.75 236.519531 L 145.824219 236.519531 Z M 145.824219 210.601562 " fill-opacity="1" fill-rule="nonzero"/><path fill="#000000" d="M 171.75 184.679688 L 197.675781 184.679688 L 197.675781 210.601562 L 171.75 210.601562 Z M 171.75 184.679688 " fill-opacity="1" fill-rule="nonzero"/><path fill="#000000" d="M 197.675781 158.761719 L 223.601562 158.761719 L 223.601562 184.679688 L 197.675781 184.679688 Z M 197.675781 158.761719 " fill-opacity="1" fill-rule="nonzero"/><path fill="#000000" d="M 223.601562 132.839844 L 249.523438 132.839844 L 249.523438 158.761719 L 223.601562 158.761719 Z M 223.601562 132.839844 " fill-opacity="1" fill-rule="nonzero"/><path fill="#000000" d="M 249.523438 106.921875 L 275.449219 106.921875 L 275.449219 132.839844 L 249.523438 132.839844 Z M 249.523438 106.921875 " fill-opacity="1" fill-rule="nonzero"/><path fill="#000000" d="M 275.449219 81 L 301.375 81 L 301.375 106.921875 L 275.449219 106.921875 Z M 275.449219 81 " fill-opacity="1" fill-rule="nonzero"/><path fill="#000000" d="M 301.375 55.082031 L 327.300781 55.082031 L 327.300781 81 L 301.375 81 Z M 301.375 55.082031 " fill-opacity="1" fill-rule="nonzero"/><path fill="#000000" d="M 327.300781 81 L 353.226562 81 L 353.226562 106.921875 L 327.300781 106.921875 Z M 327.300781 81 " fill-opacity="1" fill-rule="nonzero"/><path fill="#000000" d="M 353.226562 106.921875 L 379.148438 106.921875 L 379.148438 132.839844 L 353.226562 132.839844 Z M 353.226562 106.921875 " fill-opacity="1" fill-rule="nonzero"/><path fill="#000000" d="M 301.375 106.921875 L 327.300781 106.921875 L 327.300781 132.839844 L 301.375 132.839844 Z M 301.375 106.921875 " fill-opacity="1" fill-rule="nonzero"/><path fill="#000000" d="M 275.449219 132.839844 L 301.375 132.839844 L 301.375 158.761719 L 275.449219 158.761719 Z M 275.449219 132.839844 " fill-opacity="1" fill-rule="nonzero"/><path fill="#000000" d="M 249.523438 158.761719 L 275.449219 158.761719 L 275.449219 184.679688 L 249.523438 184.679688 Z M 249.523438 158.761719 " fill-opacity="1" fill-rule="nonzero"/><path fill="#000000" d="M 223.601562 184.679688 L 249.523438 184.679688 L 249.523438 210.601562 L 223.601562 210.601562 Z M 223.601562 184.679688 " fill-opacity="1" fill-rule="nonzero"/><path fill="#000000" d="M 197.675781 210.601562 L 223.601562 210.601562 L 223.601562 236.519531 L 197.675781 236.519531 Z M 197.675781 210.601562 " fill-opacity="1" fill-rule="nonzero"/><path fill="#000000" d="M 171.75 236.519531 L 197.675781 236.519531 L 197.675781 262.441406 L 171.75 262.441406 Z M 171.75 236.519531 " fill-opacity="1" fill-rule="nonzero"/><path fill="#000000" d="M 145.824219 262.441406 L 171.75 262.441406 L 171.75 288.359375 L 145.824219 288.359375 Z M 145.824219 262.441406 " fill-opacity="1" fill-rule="nonzero"/><path fill="#000000" d="M 171.75 288.359375 L 197.675781 288.359375 L 197.675781 314.28125 L 171.75 314.28125 Z M 171.75 288.359375 " fill-opacity="1" fill-rule="nonzero"/><path fill="#000000" d="M 197.675781 262.441406 L 223.601562 262.441406 L 223.601562 288.359375 L 197.675781 288.359375 Z M 197.675781 262.441406 " fill-opacity="1" fill-rule="nonzero"/><path fill="#000000" d="M 223.601562 236.519531 L 249.523438 236.519531 L 249.523438 262.441406 L 223.601562 262.441406 Z M 223.601562 236.519531 " fill-opacity="1" fill-rule="nonzero"/><path fill="#000000" d="M 249.523438 210.601562 L 275.449219 210.601562 L 275.449219 236.519531 L 249.523438 236.519531 Z M 249.523438 210.601562 " fill-opacity="1" fill-rule="nonzero"/><path fill="#000000" d="M 275.449219 184.679688 L 301.375 184.679688 L 301.375 210.601562 L 275.449219 210.601562 Z M 275.449219 184.679688 " fill-opacity="1" fill-rule="nonzero"/><path fill="#000000" d="M 301.375 158.761719 L 327.300781 158.761719 L 327.300781 184.679688 L 301.375 184.679688 Z M 301.375 158.761719 " fill-opacity="1" fill-rule="nonzero"/><path fill="#000000" d="M 327.300781 184.679688 L 353.226562 184.679688 L 353.226562 210.601562 L 327.300781 210.601562 Z M 327.300781 184.679688 " fill-opacity="1" fill-rule="nonzero"/><path fill="#000000" d="M 301.375 210.601562 L 327.300781 210.601562 L 327.300781 236.519531 L 301.375 236.519531 Z M 301.375 210.601562 " fill-opacity="1" fill-rule="nonzero"/><path fill="#000000" d="M 249.523438 262.441406 L 275.449219 262.441406 L 275.449219 288.359375 L 249.523438 288.359375 Z M 249.523438 262.441406 " fill-opacity="1" fill-rule="nonzero"/><path fill="#000000" d="M 223.601562 288.359375 L 249.523438 288.359375 L 249.523438 314.28125 L 223.601562 314.28125 Z M 223.601562 288.359375 " fill-opacity="1" fill-rule="nonzero"/><path fill="#000000" d="M 197.675781 314.28125 L 223.601562 314.28125 L 223.601562 340.199219 L 197.675781 340.199219 Z M 197.675781 314.28125 " fill-opacity="1" fill-rule="nonzero"/><path fill="#000000" d="M 171.75 340.199219 L 197.675781 340.199219 L 197.675781 366.121094 L 171.75 366.121094 Z M 171.75 340.199219 " fill-opacity="1" fill-rule="nonzero"/><path fill="#000000" d="M 145.824219 366.121094 L 171.75 366.121094 L 171.75 392.039062 L 145.824219 392.039062 Z M 145.824219 366.121094 " fill-opacity="1" fill-rule="nonzero"/><path fill="#000000" d="M 171.75 392.039062 L 197.675781 392.039062 L 197.675781 417.960938 L 171.75 417.960938 Z M 171.75 392.039062 " fill-opacity="1" fill-rule="nonzero"/><path fill="#000000" d="M 197.675781 417.960938 L 223.601562 417.960938 L 223.601562 443.878906 L 197.675781 443.878906 Z M 197.675781 417.960938 " fill-opacity="1" fill-rule="nonzero"/><path fill="#000000" d="M 223.601562 443.878906 L 249.523438 443.878906 L 249.523438 469.800781 L 223.601562 469.800781 Z M 223.601562 443.878906 " fill-opacity="1" fill-rule="nonzero"/><path fill="#000000" d="M 197.675781 469.800781 L 223.601562 469.800781 L 223.601562 495.71875 L 197.675781 495.71875 Z M 197.675781 469.800781 " fill-opacity="1" fill-rule="nonzero"/><path fill="#000000" d="M 171.75 443.878906 L 197.675781 443.878906 L 197.675781 469.800781 L 171.75 469.800781 Z M 171.75 443.878906 " fill-opacity="1" fill-rule="nonzero"/><path fill="#000000" d="M 249.523438 469.800781 L 275.449219 469.800781 L 275.449219 495.71875 L 249.523438 495.71875 Z M 249.523438 469.800781 " fill-opacity="1" fill-rule="nonzero"/><path fill="#000000" d="M 275.449219 495.71875 L 301.375 495.71875 L 301.375 521.640625 L 275.449219 521.640625 Z M 275.449219 495.71875 " fill-opacity="1" fill-rule="nonzero"/><path fill="#000000" d="M 301.375 521.640625 L 327.300781 521.640625 L 327.300781 547.558594 L 301.375 547.558594 Z M 301.375 521.640625 " fill-opacity="1" fill-rule="nonzero"/><path fill="#000000" d="M 327.300781 547.558594 L 353.226562 547.558594 L 353.226562 573.480469 L 327.300781 573.480469 Z M 327.300781 547.558594 " fill-opacity="1" fill-rule="nonzero"/><path fill="#000000" d="M 353.226562 521.640625 L 379.148438 521.640625 L 379.148438 547.558594 L 353.226562 547.558594 Z M 353.226562 521.640625 " fill-opacity="1" fill-rule="nonzero"/><path fill="#000000" d="M 379.148438 547.558594 L 405.074219 547.558594 L 405.074219 573.480469 L 379.148438 573.480469 Z M 379.148438 547.558594 " fill-opacity="1" fill-rule="nonzero"/><path fill="#000000" d="M 405.074219 573.480469 L 431 573.480469 L 431 599.398438 L 405.074219 599.398438 Z M 405.074219 573.480469 " fill-opacity="1" fill-rule="nonzero"/><path fill="#000000" d="M 431 599.398438 L 456.925781 599.398438 L 456.925781 625.320312 L 431 625.320312 Z M 431 599.398438 " fill-opacity="1" fill-rule="nonzero"/><path fill="#000000" d="M 456.925781 625.320312 L 482.851562 625.320312 L 482.851562 651.238281 L 456.925781 651.238281 Z M 456.925781 625.320312 " fill-opacity="1" fill-rule="nonzero"/><path fill="#000000" d="M 431 651.238281 L 456.925781 651.238281 L 456.925781 677.160156 L 431 677.160156 Z M 431 651.238281 " fill-opacity="1" fill-rule="nonzero"/><path fill="#000000" d="M 456.925781 677.160156 L 482.851562 677.160156 L 482.851562 703.078125 L 456.925781 703.078125 Z M 456.925781 677.160156 " fill-opacity="1" fill-rule="nonzero"/><path fill="#000000" d="M 482.851562 703.078125 L 508.773438 703.078125 L 508.773438 729 L 482.851562 729 Z M 482.851562 703.078125 " fill-opacity="1" fill-rule="nonzero"/><path fill="#000000" d="M 482.851562 754.917969 L 508.773438 754.917969 L 508.773438 780.839844 L 482.851562 780.839844 Z M 482.851562 754.917969 " fill-opacity="1" fill-rule="nonzero"/><path fill="#000000" d="M 508.773438 754.917969 L 534.699219 754.917969 L 534.699219 780.839844 L 508.773438 780.839844 Z M 508.773438 754.917969 " fill-opacity="1" fill-rule="nonzero"/><path fill="#000000" d="M 534.699219 754.917969 L 560.625 754.917969 L 560.625 780.839844 L 534.699219 780.839844 Z M 534.699219 754.917969 " fill-opacity="1" fill-rule="nonzero"/><path fill="#000000" d="M 560.625 729 L 586.550781 729 L 586.550781 754.917969 L 560.625 754.917969 Z M 560.625 729 " fill-opacity="1" fill-rule="nonzero"/><path fill="#000000" d="M 586.550781 729 L 612.476562 729 L 612.476562 754.917969 L 586.550781 754.917969 Z M 586.550781 729 " fill-opacity="1" fill-rule="nonzero"/><path fill="#000000" d="M 612.476562 703.078125 L 638.398438 703.078125 L 638.398438 729 L 612.476562 729 Z M 612.476562 703.078125 " fill-opacity="1" fill-rule="nonzero"/><path fill="#000000" d="M 638.398438 677.160156 L 664.324219 677.160156 L 664.324219 703.078125 L 638.398438 703.078125 Z M 638.398438 677.160156 " fill-opacity="1" fill-rule="nonzero"/><path fill="#000000" d="M 664.324219 651.238281 L 690.25 651.238281 L 690.25 677.160156 L 664.324219 677.160156 Z M 664.324219 651.238281 " fill-opacity="1" fill-rule="nonzero"/><path fill="#000000" d="M 690.25 625.320312 L 716.175781 625.320312 L 716.175781 651.238281 L 690.25 651.238281 Z M 690.25 625.320312 " fill-opacity="1" fill-rule="nonzero"/><path fill="#000000" d="M 716.175781 599.398438 L 742.101562 599.398438 L 742.101562 625.320312 L 716.175781 625.320312 Z M 716.175781 599.398438 " fill-opacity="1" fill-rule="nonzero"/><path fill="#000000" d="M 716.175781 573.480469 L 742.101562 573.480469 L 742.101562 599.398438 L 716.175781 599.398438 Z M 716.175781 573.480469 " fill-opacity="1" fill-rule="nonzero"/><path fill="#000000" d="M 742.101562 547.558594 L 768.023438 547.558594 L 768.023438 573.480469 L 742.101562 573.480469 Z M 742.101562 547.558594 " fill-opacity="1" fill-rule="nonzero"/><path fill="#000000" d="M 742.101562 521.640625 L 768.023438 521.640625 L 768.023438 547.558594 L 742.101562 547.558594 Z M 742.101562 521.640625 " fill-opacity="1" fill-rule="nonzero"/><path fill="#000000" d="M 742.101562 495.71875 L 768.023438 495.71875 L 768.023438 521.640625 L 742.101562 521.640625 Z M 742.101562 495.71875 " fill-opacity="1" fill-rule="nonzero"/><g clip-path="url(#d4eef2472a)"><path fill="#000000" d="M 768.023438 469.800781 L 793.949219 469.800781 L 793.949219 495.71875 L 768.023438 495.71875 Z M 768.023438 469.800781 " fill-opacity="1" fill-rule="nonzero"/></g><g clip-path="url(#7370fdb6e8)"><path fill="#000000" d="M 768.023438 443.878906 L 793.949219 443.878906 L 793.949219 469.800781 L 768.023438 469.800781 Z M 768.023438 443.878906 " fill-opacity="1" fill-rule="nonzero"/></g><g clip-path="url(#00d5145b90)"><path fill="#000000" d="M 768.023438 417.960938 L 793.949219 417.960938 L 793.949219 443.878906 L 768.023438 443.878906 Z M 768.023438 417.960938 " fill-opacity="1" fill-rule="nonzero"/></g><path fill="#000000" d="M 742.101562 417.960938 L 768.023438 417.960938 L 768.023438 443.878906 L 742.101562 443.878906 Z M 742.101562 417.960938 " fill-opacity="1" fill-rule="nonzero"/><path fill="#000000" d="M 716.175781 443.878906 L 742.101562 443.878906 L 742.101562 469.800781 L 716.175781 469.800781 Z M 716.175781 443.878906 " fill-opacity="1" fill-rule="nonzero"/><path fill="#000000" d="M 690.25 417.960938 L 716.175781 417.960938 L 716.175781 443.878906 L 690.25 443.878906 Z M 690.25 417.960938 " fill-opacity="1" fill-rule="nonzero"/><path fill="#000000" d="M 664.324219 443.878906 L 690.25 443.878906 L 690.25 469.800781 L 664.324219 469.800781 Z M 664.324219 443.878906 " fill-opacity="1" fill-rule="nonzero"/><path fill="#000000" d="M 638.398438 469.800781 L 664.324219 469.800781 L 664.324219 495.71875 L 638.398438 495.71875 Z M 638.398438 469.800781 " fill-opacity="1" fill-rule="nonzero"/><path fill="#000000" d="M 612.476562 443.878906 L 638.398438 443.878906 L 638.398438 469.800781 L 612.476562 469.800781 Z M 612.476562 443.878906 " fill-opacity="1" fill-rule="nonzero"/><path fill="#000000" d="M 638.398438 417.960938 L 664.324219 417.960938 L 664.324219 443.878906 L 638.398438 443.878906 Z M 638.398438 417.960938 " fill-opacity="1" fill-rule="nonzero"/><path fill="#000000" d="M 612.476562 392.039062 L 638.398438 392.039062 L 638.398438 417.960938 L 612.476562 417.960938 Z M 612.476562 392.039062 " fill-opacity="1" fill-rule="nonzero"/><path fill="#000000" d="M 586.550781 366.121094 L 612.476562 366.121094 L 612.476562 392.039062 L 586.550781 392.039062 Z M 586.550781 366.121094 " fill-opacity="1" fill-rule="nonzero"/><path fill="#000000" d="M 664.324219 392.039062 L 690.25 392.039062 L 690.25 417.960938 L 664.324219 417.960938 Z M 664.324219 392.039062 " fill-opacity="1" fill-rule="nonzero"/><path fill="#000000" d="M 638.398438 366.121094 L 664.324219 366.121094 L 664.324219 392.039062 L 638.398438 392.039062 Z M 638.398438 366.121094 " fill-opacity="1" fill-rule="nonzero"/><path fill="#000000" d="M 612.476562 340.199219 L 638.398438 340.199219 L 638.398438 366.121094 L 612.476562 366.121094 Z M 612.476562 340.199219 " fill-opacity="1" fill-rule="nonzero"/><path fill="#000000" d="M 690.25 366.121094 L 716.175781 366.121094 L 716.175781 392.039062 L 690.25 392.039062 Z M 690.25 366.121094 " fill-opacity="1" fill-rule="nonzero"/><path fill="#000000" d="M 664.324219 340.199219 L 690.25 340.199219 L 690.25 366.121094 L 664.324219 366.121094 Z M 664.324219 340.199219 " fill-opacity="1" fill-rule="nonzero"/><path fill="#000000" d="M 638.398438 314.28125 L 664.324219 314.28125 L 664.324219 340.199219 L 638.398438 340.199219 Z M 638.398438 314.28125 " fill-opacity="1" fill-rule="nonzero"/><path fill="#000000" d="M 716.175781 340.199219 L 742.101562 340.199219 L 742.101562 366.121094 L 716.175781 366.121094 Z M 716.175781 340.199219 " fill-opacity="1" fill-rule="nonzero"/><path fill="#000000" d="M 742.101562 366.121094 L 768.023438 366.121094 L 768.023438 392.039062 L 742.101562 392.039062 Z M 742.101562 366.121094 " fill-opacity="1" fill-rule="nonzero"/><path fill="#000000" d="M 716.175781 392.039062 L 742.101562 392.039062 L 742.101562 417.960938 L 716.175781 417.960938 Z M 716.175781 392.039062 " fill-opacity="1" fill-rule="nonzero"/><path fill="#000000" d="M 586.550781 417.960938 L 612.476562 417.960938 L 612.476562 443.878906 L 586.550781 443.878906 Z M 586.550781 417.960938 " fill-opacity="1" fill-rule="nonzero"/><path fill="#000000" d="M 560.625 443.878906 L 586.550781 443.878906 L 586.550781 469.800781 L 560.625 469.800781 Z M 560.625 443.878906 " fill-opacity="1" fill-rule="nonzero"/><path fill="#000000" d="M 586.550781 469.800781 L 612.476562 469.800781 L 612.476562 495.71875 L 586.550781 495.71875 Z M 586.550781 469.800781 " fill-opacity="1" fill-rule="nonzero"/><path fill="#000000" d="M 560.625 392.039062 L 586.550781 392.039062 L 586.550781 417.960938 L 560.625 417.960938 Z M 560.625 392.039062 " fill-opacity="1" fill-rule="nonzero"/><g clip-path="url(#9ad0345f19)"><path fill="#000000" d="M 768.023438 392.039062 L 793.949219 392.039062 L 793.949219 417.960938 L 768.023438 417.960938 Z M 768.023438 392.039062 " fill-opacity="1" fill-rule="nonzero"/></g><g clip-path="url(#1b0d346cc5)"><path fill="#000000" d="M 768.023438 366.121094 L 793.949219 366.121094 L 793.949219 392.039062 L 768.023438 392.039062 Z M 768.023438 366.121094 " fill-opacity="1" fill-rule="nonzero"/></g><g clip-path="url(#3158195cfd)"><path fill="#000000" d="M 768.023438 340.199219 L 793.949219 340.199219 L 793.949219 366.121094 L 768.023438 366.121094 Z M 768.023438 340.199219 " fill-opacity="1" fill-rule="nonzero"/></g><g clip-path="url(#fb92646fd0)"><path fill="#000000" d="M 768.023438 314.28125 L 793.949219 314.28125 L 793.949219 340.199219 L 768.023438 340.199219 Z M 768.023438 314.28125 " fill-opacity="1" fill-rule="nonzero"/></g><path fill="#000000" d="M 742.101562 288.359375 L 768.023438 288.359375 L 768.023438 314.28125 L 742.101562 314.28125 Z M 742.101562 288.359375 " fill-opacity="1" fill-rule="nonzero"/><path fill="#000000" d="M 456.925781 729 L 482.851562 729 L 482.851562 754.917969 L 456.925781 754.917969 Z M 456.925781 729 " fill-opacity="1" fill-rule="nonzero"/><path fill="#000000" d="M 431 754.917969 L 456.925781 754.917969 L 456.925781 780.839844 L 431 780.839844 Z M 431 754.917969 " fill-opacity="1" fill-rule="nonzero"/><path fill="#000000" d="M 431 703.078125 L 456.925781 703.078125 L 456.925781 729 L 431 729 Z M 431 703.078125 " fill-opacity="1" fill-rule="nonzero"/><path fill="#000000" d="M 482.851562 651.238281 L 508.773438 651.238281 L 508.773438 677.160156 L 482.851562 677.160156 Z M 482.851562 651.238281 " fill-opacity="1" fill-rule="nonzero"/><path fill="#000000" d="M 508.773438 677.160156 L 534.699219 677.160156 L 534.699219 703.078125 L 508.773438 703.078125 Z M 508.773438 677.160156 " fill-opacity="1" fill-rule="nonzero"/><path fill="#000000" d="M 534.699219 651.238281 L 560.625 651.238281 L 560.625 677.160156 L 534.699219 677.160156 Z M 534.699219 651.238281 " fill-opacity="1" fill-rule="nonzero"/><path fill="#000000" d="M 508.773438 625.320312 L 534.699219 625.320312 L 534.699219 651.238281 L 508.773438 651.238281 Z M 508.773438 625.320312 " fill-opacity="1" fill-rule="nonzero"/><path fill="#000000" d="M 534.699219 599.398438 L 560.625 599.398438 L 560.625 625.320312 L 534.699219 625.320312 Z M 534.699219 599.398438 " fill-opacity="1" fill-rule="nonzero"/><path fill="#000000" d="M 508.773438 573.480469 L 534.699219 573.480469 L 534.699219 599.398438 L 508.773438 599.398438 Z M 508.773438 573.480469 " fill-opacity="1" fill-rule="nonzero"/><path fill="#000000" d="M 482.851562 547.558594 L 508.773438 547.558594 L 508.773438 573.480469 L 482.851562 573.480469 Z M 482.851562 547.558594 " fill-opacity="1" fill-rule="nonzero"/><path fill="#000000" d="M 456.925781 521.640625 L 482.851562 521.640625 L 482.851562 547.558594 L 456.925781 547.558594 Z M 456.925781 521.640625 " fill-opacity="1" fill-rule="nonzero"/><path fill="#000000" d="M 482.851562 599.398438 L 508.773438 599.398438 L 508.773438 625.320312 L 482.851562 625.320312 Z M 482.851562 599.398438 " fill-opacity="1" fill-rule="nonzero"/><path fill="#000000" d="M 456.925781 573.480469 L 482.851562 573.480469 L 482.851562 599.398438 L 456.925781 599.398438 Z M 456.925781 573.480469 " fill-opacity="1" fill-rule="nonzero"/><path fill="#000000" d="M 431 547.558594 L 456.925781 547.558594 L 456.925781 573.480469 L 431 573.480469 Z M 431 547.558594 " fill-opacity="1" fill-rule="nonzero"/><path fill="#000000" d="M 327.300781 495.71875 L 353.226562 495.71875 L 353.226562 521.640625 L 327.300781 521.640625 Z M 327.300781 495.71875 " fill-opacity="1" fill-rule="nonzero"/><path fill="#000000" d="M 353.226562 469.800781 L 379.148438 469.800781 L 379.148438 495.71875 L 353.226562 495.71875 Z M 353.226562 469.800781 " fill-opacity="1" fill-rule="nonzero"/><path fill="#000000" d="M 379.148438 443.878906 L 405.074219 443.878906 L 405.074219 469.800781 L 379.148438 469.800781 Z M 379.148438 443.878906 " fill-opacity="1" fill-rule="nonzero"/><path fill="#000000" d="M 379.148438 392.039062 L 405.074219 392.039062 L 405.074219 417.960938 L 379.148438 417.960938 Z M 379.148438 392.039062 " fill-opacity="1" fill-rule="nonzero"/><path fill="#000000" d="M 379.148438 340.199219 L 405.074219 340.199219 L 405.074219 366.121094 L 379.148438 366.121094 Z M 379.148438 340.199219 " fill-opacity="1" fill-rule="nonzero"/><path fill="#000000" d="M 379.148438 288.359375 L 405.074219 288.359375 L 405.074219 314.28125 L 379.148438 314.28125 Z M 379.148438 288.359375 " fill-opacity="1" fill-rule="nonzero"/><path fill="#000000" d="M 379.148438 236.519531 L 405.074219 236.519531 L 405.074219 262.441406 L 379.148438 262.441406 Z M 379.148438 236.519531 " fill-opacity="1" fill-rule="nonzero"/><path fill="#000000" d="M 379.148438 184.679688 L 405.074219 184.679688 L 405.074219 210.601562 L 379.148438 210.601562 Z M 379.148438 184.679688 " fill-opacity="1" fill-rule="nonzero"/><path fill="#000000" d="M 405.074219 158.761719 L 431 158.761719 L 431 184.679688 L 405.074219 184.679688 Z M 405.074219 158.761719 " fill-opacity="1" fill-rule="nonzero"/><path fill="#000000" d="M 431 184.679688 L 456.925781 184.679688 L 456.925781 210.601562 L 431 210.601562 Z M 431 184.679688 " fill-opacity="1" fill-rule="nonzero"/><path fill="#000000" d="M 405.074219 210.601562 L 431 210.601562 L 431 236.519531 L 405.074219 236.519531 Z M 405.074219 210.601562 " fill-opacity="1" fill-rule="nonzero"/><path fill="#000000" d="M 431 236.519531 L 456.925781 236.519531 L 456.925781 262.441406 L 431 262.441406 Z M 431 236.519531 " fill-opacity="1" fill-rule="nonzero"/><path fill="#000000" d="M 431 288.359375 L 456.925781 288.359375 L 456.925781 314.28125 L 431 314.28125 Z M 431 288.359375 " fill-opacity="1" fill-rule="nonzero"/><path fill="#000000" d="M 405.074219 314.28125 L 431 314.28125 L 431 340.199219 L 405.074219 340.199219 Z M 405.074219 314.28125 " fill-opacity="1" fill-rule="nonzero"/><path fill="#000000" d="M 456.925781 314.28125 L 482.851562 314.28125 L 482.851562 340.199219 L 456.925781 340.199219 Z M 456.925781 314.28125 " fill-opacity="1" fill-rule="nonzero"/><path fill="#000000" d="M 405.074219 366.121094 L 431 366.121094 L 431 392.039062 L 405.074219 392.039062 Z M 405.074219 366.121094 " fill-opacity="1" fill-rule="nonzero"/><path fill="#000000" d="M 353.226562 210.601562 L 379.148438 210.601562 L 379.148438 236.519531 L 353.226562 236.519531 Z M 353.226562 210.601562 " fill-opacity="1" fill-rule="nonzero"/><path fill="#000000" d="M 353.226562 314.28125 L 379.148438 314.28125 L 379.148438 340.199219 L 353.226562 340.199219 Z M 353.226562 314.28125 " fill-opacity="1" fill-rule="nonzero"/><path fill="#000000" d="M 353.226562 366.121094 L 379.148438 366.121094 L 379.148438 392.039062 L 353.226562 392.039062 Z M 353.226562 366.121094 " fill-opacity="1" fill-rule="nonzero"/><path fill="#000000" d="M 327.300781 340.199219 L 353.226562 340.199219 L 353.226562 366.121094 L 327.300781 366.121094 Z M 327.300781 340.199219 " fill-opacity="1" fill-rule="nonzero"/><path fill="#000000" d="M 301.375 314.28125 L 327.300781 314.28125 L 327.300781 340.199219 L 301.375 340.199219 Z M 301.375 314.28125 " fill-opacity="1" fill-rule="nonzero"/><path fill="#000000" d="M 327.300781 288.359375 L 353.226562 288.359375 L 353.226562 314.28125 L 327.300781 314.28125 Z M 327.300781 288.359375 " fill-opacity="1" fill-rule="nonzero"/><path fill="#000000" d="M 327.300781 236.519531 L 353.226562 236.519531 L 353.226562 262.441406 L 327.300781 262.441406 Z M 327.300781 236.519531 " fill-opacity="1" fill-rule="nonzero"/><path fill="#000000" d="M 275.449219 288.359375 L 301.375 288.359375 L 301.375 314.28125 L 275.449219 314.28125 Z M 275.449219 288.359375 " fill-opacity="1" fill-rule="nonzero"/><path fill="#000000" d="M 353.226562 417.960938 L 379.148438 417.960938 L 379.148438 443.878906 L 353.226562 443.878906 Z M 353.226562 417.960938 " fill-opacity="1" fill-rule="nonzero"/><path fill="#000000" d="M 327.300781 443.878906 L 353.226562 443.878906 L 353.226562 469.800781 L 327.300781 469.800781 Z M 327.300781 443.878906 " fill-opacity="1" fill-rule="nonzero"/><path fill="#000000" d="M 327.300781 392.039062 L 353.226562 392.039062 L 353.226562 417.960938 L 327.300781 417.960938 Z M 327.300781 392.039062 " fill-opacity="1" fill-rule="nonzero"/><path fill="#000000" d="M 301.375 417.960938 L 327.300781 417.960938 L 327.300781 443.878906 L 301.375 443.878906 Z M 301.375 417.960938 " fill-opacity="1" fill-rule="nonzero"/><path fill="#000000" d="M 275.449219 443.878906 L 301.375 443.878906 L 301.375 469.800781 L 275.449219 469.800781 Z M 275.449219 443.878906 " fill-opacity="1" fill-rule="nonzero"/><path fill="#000000" d="M 301.375 366.121094 L 327.300781 366.121094 L 327.300781 392.039062 L 301.375 392.039062 Z M 301.375 366.121094 " fill-opacity="1" fill-rule="nonzero"/><path fill="#000000" d="M 275.449219 392.039062 L 301.375 392.039062 L 301.375 417.960938 L 275.449219 417.960938 Z M 275.449219 392.039062 " fill-opacity="1" fill-rule="nonzero"/><path fill="#000000" d="M 249.523438 417.960938 L 275.449219 417.960938 L 275.449219 443.878906 L 249.523438 443.878906 Z M 249.523438 417.960938 " fill-opacity="1" fill-rule="nonzero"/><path fill="#000000" d="M 275.449219 340.199219 L 301.375 340.199219 L 301.375 366.121094 L 275.449219 366.121094 Z M 275.449219 340.199219 " fill-opacity="1" fill-rule="nonzero"/><path fill="#000000" d="M 249.523438 366.121094 L 275.449219 366.121094 L 275.449219 392.039062 L 249.523438 392.039062 Z M 249.523438 366.121094 " fill-opacity="1" fill-rule="nonzero"/><path fill="#000000" d="M 223.601562 392.039062 L 249.523438 392.039062 L 249.523438 417.960938 L 223.601562 417.960938 Z M 223.601562 392.039062 " fill-opacity="1" fill-rule="nonzero"/><path fill="#000000" d="M 249.523438 314.28125 L 275.449219 314.28125 L 275.449219 340.199219 L 249.523438 340.199219 Z M 249.523438 314.28125 " fill-opacity="1" fill-rule="nonzero"/><path fill="#000000" d="M 223.601562 340.199219 L 249.523438 340.199219 L 249.523438 366.121094 L 223.601562 366.121094 Z M 223.601562 340.199219 " fill-opacity="1" fill-rule="nonzero"/><path fill="#000000" d="M 197.675781 366.121094 L 223.601562 366.121094 L 223.601562 392.039062 L 197.675781 392.039062 Z M 197.675781 366.121094 " fill-opacity="1" fill-rule="nonzero"/><path fill="#000000" d="M 145.824219 314.28125 L 171.75 314.28125 L 171.75 340.199219 L 145.824219 340.199219 Z M 145.824219 314.28125 " fill-opacity="1" fill-rule="nonzero"/></svg>