<svg width="128" height="129" viewBox="0 0 128 129" fill="none" xmlns="http://www.w3.org/2000/svg">
<rect x="15" y="2" width="74" height="126" fill="white"/>
<rect x="88" y="25" width="26" height="103" fill="white"/>
<rect x="87" y="7" width="7" height="21" fill="white"/>
<rect x="91" y="12" width="7" height="21" fill="white"/>
<rect x="95" y="16" width="7" height="21" fill="white"/>
<rect x="99" y="20" width="7" height="21" fill="white"/>
<path d="M14 4.5H18V8.5H14V4.5Z" fill="#212121"/>
<path d="M14 0.5H18V4.5H14V0.5Z" fill="#212121"/>
<path d="M18 0.5H22V4.5H18V0.5Z" fill="#212121"/>
<path d="M22 0.5H26V4.5H22V0.5Z" fill="#212121"/>
<path d="M26 0.5H30V4.5H26V0.5Z" fill="#212121"/>
<path d="M30 0.5H34V4.5H30V0.5Z" fill="#212121"/>
<path d="M34 0.5H38V4.5H34V0.5Z" fill="#212121"/>
<path d="M38 0.5H42V4.5H38V0.5Z" fill="#212121"/>
<path d="M42 0.5H46V4.5H42V0.5Z" fill="#212121"/>
<path d="M46 0.5H50V4.5H46V0.5Z" fill="#212121"/>
<path d="M50 0.5H54V4.5H50V0.5Z" fill="#212121"/>
<path d="M54 0.5H58V4.5H54V0.5Z" fill="#212121"/>
<path d="M58 0.5H62V4.5H58V0.5Z" fill="#212121"/>
<path d="M62 0.5H66V4.5H62V0.5Z" fill="#212121"/>
<path d="M66 0.5H70V4.5H66V0.5Z" fill="#212121"/>
<path d="M70 0.5H74V4.5H70V0.5Z" fill="#212121"/>
<path d="M74 0.5H78V4.5H74V0.5Z" fill="#212121"/>
<path d="M78 0.5H82V4.5H78V0.5Z" fill="#212121"/>
<path d="M82 0.5H86V4.5H82V0.5Z" fill="#212121"/>
<path d="M86 0.5H90V4.5H86V0.5Z" fill="#212121"/>
<path d="M90 4.5H94V8.5H90V4.5Z" fill="#212121"/>
<path d="M94 8.5H98V12.5H94V8.5Z" fill="#212121"/>
<path d="M98 12.5H102V16.5H98V12.5Z" fill="#212121"/>
<path d="M102 16.5H106V20.5H102V16.5Z" fill="#212121"/>
<path d="M106 20.5H110V24.5H106V20.5Z" fill="#212121"/>
<path d="M110 24.5H114V28.5H110V24.5Z" fill="#212121"/>
<path d="M110 28.5H114V32.5H110V28.5Z" fill="#212121"/>
<path d="M110 32.5H114V36.5H110V32.5Z" fill="#212121"/>
<path d="M110 36.5H114V40.5H110V36.5Z" fill="#212121"/>
<path d="M110 40.5H114V44.5H110V40.5Z" fill="#212121"/>
<path d="M110 44.5H114V48.5H110V44.5Z" fill="#212121"/>
<path d="M110 48.5H114V52.5H110V48.5Z" fill="#212121"/>
<path d="M110 52.5H114V56.5H110V52.5Z" fill="#212121"/>
<path d="M110 56.5H114V60.5H110V56.5Z" fill="#212121"/>
<path d="M110 60.5H114V64.5H110V60.5Z" fill="#212121"/>
<path d="M110 64.5H114V68.5H110V64.5Z" fill="#212121"/>
<path d="M110 68.5H114V72.5H110V68.5Z" fill="#212121"/>
<path d="M110 72.5H114V76.5H110V72.5Z" fill="#212121"/>
<path d="M110 76.5H114V80.5H110V76.5Z" fill="#212121"/>
<path d="M110 80.5H114V84.5H110V80.5Z" fill="#212121"/>
<path d="M110 84.5H114V88.5H110V84.5Z" fill="#212121"/>
<path d="M110 88.5H114V92.5H110V88.5Z" fill="#212121"/>
<path d="M110 92.5H114V96.5H110V92.5Z" fill="#212121"/>
<path d="M110 96.5H114V100.5H110V96.5Z" fill="#212121"/>
<path d="M110 100.5H114V104.5H110V100.5Z" fill="#212121"/>
<path d="M110 104.5H114V108.5H110V104.5Z" fill="#212121"/>
<path d="M110 108.5H114V112.5H110V108.5Z" fill="#212121"/>
<path d="M110 112.5H114V116.5H110V112.5Z" fill="#212121"/>
<path d="M110 116.5H114V120.5H110V116.5Z" fill="#212121"/>
<path d="M110 120.5H114V124.5H110V120.5Z" fill="#212121"/>
<path d="M110 124.5H114V128.5H110V124.5Z" fill="#212121"/>
<path d="M106 124.5H110V128.5H106V124.5Z" fill="#212121"/>
<path d="M102 124.5H106V128.5H102V124.5Z" fill="#212121"/>
<path d="M98 124.5H102V128.5H98V124.5Z" fill="#212121"/>
<path d="M94 124.5H98V128.5H94V124.5Z" fill="#212121"/>
<path d="M90 124.5H94V128.5H90V124.5Z" fill="#212121"/>
<path d="M86 124.5H90V128.5H86V124.5Z" fill="#212121"/>
<path d="M82 124.5H86V128.5H82V124.5Z" fill="#212121"/>
<path d="M78 124.5H82V128.5H78V124.5Z" fill="#212121"/>
<path d="M74 124.5H78V128.5H74V124.5Z" fill="#212121"/>
<path d="M70 124.5H74V128.5H70V124.5Z" fill="#212121"/>
<path d="M66 124.5H70V128.5H66V124.5Z" fill="#212121"/>
<path d="M62 124.5H66V128.5H62V124.5Z" fill="#212121"/>
<path d="M58 124.5H62V128.5H58V124.5Z" fill="#212121"/>
<path d="M54 124.5H58V128.5H54V124.5Z" fill="#212121"/>
<path d="M50 124.5H54V128.5H50V124.5Z" fill="#212121"/>
<path d="M46 124.5H50V128.5H46V124.5Z" fill="#212121"/>
<path d="M42 124.5H46V128.5H42V124.5Z" fill="#212121"/>
<path d="M38 124.5H42V128.5H38V124.5Z" fill="#212121"/>
<path d="M34 124.5H38V128.5H34V124.5Z" fill="#212121"/>
<path d="M30 124.5H34V128.5H30V124.5Z" fill="#212121"/>
<path d="M26 124.5H30V128.5H26V124.5Z" fill="#212121"/>
<path d="M22 124.5H26V128.5H22V124.5Z" fill="#212121"/>
<path d="M106 24.5H110V28.5H106V24.5Z" fill="#212121"/>
<path d="M102 24.5H106V28.5H102V24.5Z" fill="#212121"/>
<path d="M98 24.5H102V28.5H98V24.5Z" fill="#212121"/>
<path d="M94 24.5H98V28.5H94V24.5Z" fill="#212121"/>
<path d="M90 24.5H94V28.5H90V24.5Z" fill="#212121"/>
<path d="M86 24.5H90V28.5H86V24.5Z" fill="#212121"/>
<path d="M86 20.5H90V24.5H86V20.5Z" fill="#212121"/>
<path d="M82 20.5H86V24.5H82V20.5Z" fill="#212121"/>
<path d="M78 20.5H82V24.5H78V20.5Z" fill="#212121"/>
<path d="M74 20.5H78V24.5H74V20.5Z" fill="#212121"/>
<path d="M66 20.5H70V24.5H66V20.5Z" fill="#212121"/>
<path d="M62 20.5H66V24.5H62V20.5Z" fill="#212121"/>
<path d="M58 20.5H62V24.5H58V20.5Z" fill="#212121"/>
<path d="M54 20.5H58V24.5H54V20.5Z" fill="#212121"/>
<path d="M46 20.5H50V24.5H46V20.5Z" fill="#212121"/>
<path d="M42 20.5H46V24.5H42V20.5Z" fill="#212121"/>
<path d="M38 20.5H42V24.5H38V20.5Z" fill="#212121"/>
<path d="M38 28.5H42V32.5H38V28.5Z" fill="#212121"/>
<path d="M46 28.5H50V32.5H46V28.5Z" fill="#212121"/>
<path d="M50 28.5H54V32.5H50V28.5Z" fill="#212121"/>
<path d="M54 28.5H58V32.5H54V28.5Z" fill="#212121"/>
<path d="M62 28.5H66V32.5H62V28.5Z" fill="#212121"/>
<path d="M66 28.5H70V32.5H66V28.5Z" fill="#212121"/>
<path d="M70 28.5H74V32.5H70V28.5Z" fill="#212121"/>
<path d="M74 28.5H78V32.5H74V28.5Z" fill="#212121"/>
<path d="M78 28.5H82V32.5H78V28.5Z" fill="#212121"/>
<path d="M34 28.5H38V32.5H34V28.5Z" fill="#212121"/>
<path d="M30 28.5H34V32.5H30V28.5Z" fill="#212121"/>
<path d="M30 36.5H34V40.5H30V36.5Z" fill="#212121"/>
<path d="M34 36.5H38V40.5H34V36.5Z" fill="#212121"/>
<path d="M38 36.5H42V40.5H38V36.5Z" fill="#212121"/>
<path d="M42 36.5H46V40.5H42V36.5Z" fill="#212121"/>
<path d="M46 36.5H50V40.5H46V36.5Z" fill="#212121"/>
<path d="M54 36.5H58V40.5H54V36.5Z" fill="#212121"/>
<path d="M58 36.5H62V40.5H58V36.5Z" fill="#212121"/>
<path d="M62 36.5H66V40.5H62V36.5Z" fill="#212121"/>
<path d="M66 36.5H70V40.5H66V36.5Z" fill="#212121"/>
<path d="M70 36.5H74V40.5H70V36.5Z" fill="#212121"/>
<path d="M74 36.5H78V40.5H74V36.5Z" fill="#212121"/>
<path d="M82 36.5H86V40.5H82V36.5Z" fill="#212121"/>
<path d="M86 36.5H90V40.5H86V36.5Z" fill="#212121"/>
<path d="M90 36.5H94V40.5H90V36.5Z" fill="#212121"/>
<path d="M90 44.5H94V48.5H90V44.5Z" fill="#212121"/>
<path d="M86 44.5H90V48.5H86V44.5Z" fill="#212121"/>
<path d="M82 44.5H86V48.5H82V44.5Z" fill="#212121"/>
<path d="M78 44.5H82V48.5H78V44.5Z" fill="#212121"/>
<path d="M70 44.5H74V48.5H70V44.5Z" fill="#212121"/>
<path d="M66 44.5H70V48.5H66V44.5Z" fill="#212121"/>
<path d="M62 44.5H66V48.5H62V44.5Z" fill="#212121"/>
<path d="M54 44.5H58V48.5H54V44.5Z" fill="#212121"/>
<path d="M50 44.5H54V48.5H50V44.5Z" fill="#212121"/>
<path d="M46 44.5H50V48.5H46V44.5Z" fill="#212121"/>
<path d="M38 44.5H42V48.5H38V44.5Z" fill="#212121"/>
<path d="M34 44.5H38V48.5H34V44.5Z" fill="#212121"/>
<path d="M94 36.5H98V40.5H94V36.5Z" fill="#212121"/>
<path d="M30 44.5H34V48.5H30V44.5Z" fill="#212121"/>
<path d="M38 56.5H42V60.5H38V56.5Z" fill="#212121"/>
<path d="M42 56.5H46V60.5H42V56.5Z" fill="#212121"/>
<path d="M46 56.5H50V60.5H46V56.5Z" fill="#212121"/>
<path d="M50 56.5H54V60.5H50V56.5Z" fill="#212121"/>
<path d="M58 56.5H62V60.5H58V56.5Z" fill="#212121"/>
<path d="M62 56.5H66V60.5H62V56.5Z" fill="#212121"/>
<path d="M66 56.5H70V60.5H66V56.5Z" fill="#212121"/>
<path d="M70 56.5H74V60.5H70V56.5Z" fill="#212121"/>
<path d="M78 56.5H82V60.5H78V56.5Z" fill="#212121"/>
<path d="M82 56.5H86V60.5H82V56.5Z" fill="#212121"/>
<path d="M86 56.5H90V60.5H86V56.5Z" fill="#212121"/>
<path d="M90 56.5H94V60.5H90V56.5Z" fill="#212121"/>
<path d="M94 56.5H98V60.5H94V56.5Z" fill="#212121"/>
<path d="M30 64.5H34V68.5H30V64.5Z" fill="#212121"/>
<path d="M34 64.5H38V68.5H34V64.5Z" fill="#212121"/>
<path d="M38 64.5H42V68.5H38V64.5Z" fill="#212121"/>
<path d="M42 64.5H46V68.5H42V64.5Z" fill="#212121"/>
<path d="M50 64.5H54V68.5H50V64.5Z" fill="#212121"/>
<path d="M54 64.5H58V68.5H54V64.5Z" fill="#212121"/>
<path d="M58 64.5H62V68.5H58V64.5Z" fill="#212121"/>
<path d="M62 64.5H66V68.5H62V64.5Z" fill="#212121"/>
<path d="M70 64.5H74V68.5H70V64.5Z" fill="#212121"/>
<path d="M74 64.5H78V68.5H74V64.5Z" fill="#212121"/>
<path d="M78 64.5H82V68.5H78V64.5Z" fill="#212121"/>
<path d="M82 64.5H86V68.5H82V64.5Z" fill="#212121"/>
<path d="M90 64.5H94V68.5H90V64.5Z" fill="#212121"/>
<path d="M94 64.5H98V68.5H94V64.5Z" fill="#212121"/>
<path d="M30 72.5H34V76.5H30V72.5Z" fill="#212121"/>
<path d="M34 72.5H38V76.5H34V72.5Z" fill="#212121"/>
<path d="M42 72.5H46V76.5H42V72.5Z" fill="#212121"/>
<path d="M46 72.5H50V76.5H46V72.5Z" fill="#212121"/>
<path d="M50 72.5H54V76.5H50V72.5Z" fill="#212121"/>
<path d="M54 72.5H58V76.5H54V72.5Z" fill="#212121"/>
<path d="M62 72.5H66V76.5H62V72.5Z" fill="#212121"/>
<path d="M66 72.5H70V76.5H66V72.5Z" fill="#212121"/>
<path d="M70 72.5H74V76.5H70V72.5Z" fill="#212121"/>
<path d="M74 72.5H78V76.5H74V72.5Z" fill="#212121"/>
<path d="M82 72.5H86V76.5H82V72.5Z" fill="#212121"/>
<path d="M86 72.5H90V76.5H86V72.5Z" fill="#212121"/>
<path d="M90 72.5H94V76.5H90V72.5Z" fill="#212121"/>
<path d="M94 72.5H98V76.5H94V72.5Z" fill="#212121"/>
<path d="M30 80.5H34V84.5H30V80.5Z" fill="#212121"/>
<path d="M34 80.5H38V84.5H34V80.5Z" fill="#212121"/>
<path d="M38 80.5H42V84.5H38V80.5Z" fill="#212121"/>
<path d="M42 80.5H46V84.5H42V80.5Z" fill="#212121"/>
<path d="M50 80.5H54V84.5H50V80.5Z" fill="#212121"/>
<path d="M54 80.5H58V84.5H54V80.5Z" fill="#212121"/>
<path d="M58 80.5H62V84.5H58V80.5Z" fill="#212121"/>
<path d="M62 80.5H66V84.5H62V80.5Z" fill="#212121"/>
<path d="M66 80.5H70V84.5H66V80.5Z" fill="#212121"/>
<path d="M74 80.5H78V84.5H74V80.5Z" fill="#212121"/>
<path d="M78 80.5H82V84.5H78V80.5Z" fill="#212121"/>
<path d="M82 80.5H86V84.5H82V80.5Z" fill="#212121"/>
<path d="M86 80.5H90V84.5H86V80.5Z" fill="#212121"/>
<path d="M38 92.5H42V96.5H38V92.5Z" fill="#212121"/>
<path d="M42 92.5H46V96.5H42V92.5Z" fill="#212121"/>
<path d="M46 92.5H50V96.5H46V92.5Z" fill="#212121"/>
<path d="M50 92.5H54V96.5H50V92.5Z" fill="#212121"/>
<path d="M58 92.5H62V96.5H58V92.5Z" fill="#212121"/>
<path d="M62 92.5H66V96.5H62V92.5Z" fill="#212121"/>
<path d="M66 92.5H70V96.5H66V92.5Z" fill="#212121"/>
<path d="M74 92.5H78V96.5H74V92.5Z" fill="#212121"/>
<path d="M78 92.5H82V96.5H78V92.5Z" fill="#212121"/>
<path d="M86 92.5H90V96.5H86V92.5Z" fill="#212121"/>
<path d="M90 92.5H94V96.5H90V92.5Z" fill="#212121"/>
<path d="M94 92.5H98V96.5H94V92.5Z" fill="#212121"/>
<path d="M30 100.5H34V104.5H30V100.5Z" fill="#212121"/>
<path d="M34 100.5H38V104.5H34V100.5Z" fill="#212121"/>
<path d="M38 100.5H42V104.5H38V100.5Z" fill="#212121"/>
<path d="M42 100.5H46V104.5H42V100.5Z" fill="#212121"/>
<path d="M50 100.5H54V104.5H50V100.5Z" fill="#212121"/>
<path d="M54 100.5H58V104.5H54V100.5Z" fill="#212121"/>
<path d="M58 100.5H62V104.5H58V100.5Z" fill="#212121"/>
<path d="M66 100.5H70V104.5H66V100.5Z" fill="#212121"/>
<path d="M70 100.5H74V104.5H70V100.5Z" fill="#212121"/>
<path d="M74 100.5H78V104.5H74V100.5Z" fill="#212121"/>
<path d="M82 100.5H86V104.5H82V100.5Z" fill="#212121"/>
<path d="M86 100.5H90V104.5H86V100.5Z" fill="#212121"/>
<path d="M90 100.5H94V104.5H90V100.5Z" fill="#212121"/>
<path d="M94 100.5H98V104.5H94V100.5Z" fill="#212121"/>
<path d="M30 108.5H34V112.5H30V108.5Z" fill="#212121"/>
<path d="M34 108.5H38V112.5H34V108.5Z" fill="#212121"/>
<path d="M38 108.5H42V112.5H38V108.5Z" fill="#212121"/>
<path d="M46 108.5H50V112.5H46V108.5Z" fill="#212121"/>
<path d="M50 108.5H54V112.5H50V108.5Z" fill="#212121"/>
<path d="M54 108.5H58V112.5H54V108.5Z" fill="#212121"/>
<path d="M58 108.5H62V112.5H58V108.5Z" fill="#212121"/>
<path d="M62 108.5H66V112.5H62V108.5Z" fill="#212121"/>
<path d="M70 108.5H74V112.5H70V108.5Z" fill="#212121"/>
<path d="M74 108.5H78V112.5H74V108.5Z" fill="#212121"/>
<path d="M78 108.5H82V112.5H78V108.5Z" fill="#212121"/>
<path d="M82 108.5H86V112.5H82V108.5Z" fill="#212121"/>
<path d="M90 108.5H94V112.5H90V108.5Z" fill="#212121"/>
<path d="M94 108.5H98V112.5H94V108.5Z" fill="#212121"/>
<path d="M86 16.5H90V20.5H86V16.5Z" fill="#212121"/>
<path d="M86 12.5H90V16.5H86V12.5Z" fill="#212121"/>
<path d="M86 8.5H90V12.5H86V8.5Z" fill="#212121"/>
<path d="M86 4.5H90V8.5H86V4.5Z" fill="#212121"/>
<path d="M14 8.5H18V12.5H14V8.5Z" fill="#212121"/>
<path d="M14 12.5H18V16.5H14V12.5Z" fill="#212121"/>
<path d="M14 16.5H18V20.5H14V16.5Z" fill="#212121"/>
<path d="M14 20.5H18V24.5H14V20.5Z" fill="#212121"/>
<path d="M14 24.5H18V28.5H14V24.5Z" fill="#212121"/>
<path d="M14 28.5H18V32.5H14V28.5Z" fill="#212121"/>
<path d="M14 32.5H18V36.5H14V32.5Z" fill="#212121"/>
<path d="M14 36.5H18V40.5H14V36.5Z" fill="#212121"/>
<path d="M14 40.5H18V44.5H14V40.5Z" fill="#212121"/>
<path d="M14 44.5H18V48.5H14V44.5Z" fill="#212121"/>
<path d="M14 48.5H18V52.5H14V48.5Z" fill="#212121"/>
<path d="M14 52.5H18V56.5H14V52.5Z" fill="#212121"/>
<path d="M14 56.5H18V60.5H14V56.5Z" fill="#212121"/>
<path d="M14 60.5H18V64.5H14V60.5Z" fill="#212121"/>
<path d="M14 64.5H18V68.5H14V64.5Z" fill="#212121"/>
<path d="M14 68.5H18V72.5H14V68.5Z" fill="#212121"/>
<path d="M14 72.5H18V76.5H14V72.5Z" fill="#212121"/>
<path d="M14 76.5H18V80.5H14V76.5Z" fill="#212121"/>
<path d="M14 80.5H18V84.5H14V80.5Z" fill="#212121"/>
<path d="M14 84.5H18V88.5H14V84.5Z" fill="#212121"/>
<path d="M14 88.5H18V92.5H14V88.5Z" fill="#212121"/>
<path d="M14 92.5H18V96.5H14V92.5Z" fill="#212121"/>
<path d="M14 96.5H18V100.5H14V96.5Z" fill="#212121"/>
<path d="M14 100.5H18V104.5H14V100.5Z" fill="#212121"/>
<path d="M14 104.5H18V108.5H14V104.5Z" fill="#212121"/>
<path d="M14 108.5H18V112.5H14V108.5Z" fill="#212121"/>
<path d="M14 112.5H18V116.5H14V112.5Z" fill="#212121"/>
<path d="M14 116.5H18V120.5H14V116.5Z" fill="#212121"/>
<path d="M14 120.5H18V124.5H14V120.5Z" fill="#212121"/>
<path d="M14 124.5H18V128.5H14V124.5Z" fill="#212121"/>
<path d="M18 124.5H22V128.5H18V124.5Z" fill="#212121"/>
</svg>
