<svg width="128" height="129" viewBox="0 0 128 129" fill="none" xmlns="http://www.w3.org/2000/svg">
<rect x="15" y="2" width="74" height="126" fill="white"/>
<rect x="88" y="25" width="26" height="103" fill="white"/>
<rect x="87" y="7" width="7" height="21" fill="white"/>
<rect x="91" y="12" width="7" height="21" fill="white"/>
<rect x="95" y="16" width="7" height="21" fill="white"/>
<rect x="99" y="20" width="7" height="21" fill="white"/>
<path d="M14 4.5H18V8.5H14V4.5Z" fill="#212121"/>
<path d="M14 0.5H18V4.5H14V0.5Z" fill="#212121"/>
<path d="M18 0.5H22V4.5H18V0.5Z" fill="#212121"/>
<path d="M22 0.5H26V4.5H22V0.5Z" fill="#212121"/>
<path d="M26 0.5H30V4.5H26V0.5Z" fill="#212121"/>
<path d="M30 0.5H34V4.5H30V0.5Z" fill="#212121"/>
<path d="M34 0.5H38V4.5H34V0.5Z" fill="#212121"/>
<path d="M38 0.5H42V4.5H38V0.5Z" fill="#212121"/>
<path d="M42 0.5H46V4.5H42V0.5Z" fill="#212121"/>
<path d="M46 0.5H50V4.5H46V0.5Z" fill="#212121"/>
<path d="M50 0.5H54V4.5H50V0.5Z" fill="#212121"/>
<path d="M54 0.5H58V4.5H54V0.5Z" fill="#212121"/>
<path d="M58 0.5H62V4.5H58V0.5Z" fill="#212121"/>
<path d="M62 0.5H66V4.5H62V0.5Z" fill="#212121"/>
<path d="M66 0.5H70V4.5H66V0.5Z" fill="#212121"/>
<path d="M70 0.5H74V4.5H70V0.5Z" fill="#212121"/>
<path d="M74 0.5H78V4.5H74V0.5Z" fill="#212121"/>
<path d="M78 0.5H82V4.5H78V0.5Z" fill="#212121"/>
<path d="M82 0.5H86V4.5H82V0.5Z" fill="#212121"/>
<path d="M86 0.5H90V4.5H86V0.5Z" fill="#212121"/>
<path d="M90 4.5H94V8.5H90V4.5Z" fill="#212121"/>
<path d="M94 8.5H98V12.5H94V8.5Z" fill="#212121"/>
<path d="M98 12.5H102V16.5H98V12.5Z" fill="#212121"/>
<path d="M102 16.5H106V20.5H102V16.5Z" fill="#212121"/>
<path d="M106 20.5H110V24.5H106V20.5Z" fill="#212121"/>
<path d="M110 24.5H114V28.5H110V24.5Z" fill="#212121"/>
<path d="M110 28.5H114V32.5H110V28.5Z" fill="#212121"/>
<path d="M110 32.5H114V36.5H110V32.5Z" fill="#212121"/>
<path d="M110 36.5H114V40.5H110V36.5Z" fill="#212121"/>
<path d="M110 40.5H114V44.5H110V40.5Z" fill="#212121"/>
<path d="M110 44.5H114V48.5H110V44.5Z" fill="#212121"/>
<path d="M110 48.5H114V52.5H110V48.5Z" fill="#212121"/>
<path d="M110 52.5H114V56.5H110V52.5Z" fill="#212121"/>
<path d="M110 56.5H114V60.5H110V56.5Z" fill="#212121"/>
<path d="M110 60.5H114V64.5H110V60.5Z" fill="#212121"/>
<path d="M110 64.5H114V68.5H110V64.5Z" fill="#212121"/>
<path d="M110 68.5H114V72.5H110V68.5Z" fill="#212121"/>
<path d="M110 72.5H114V76.5H110V72.5Z" fill="#212121"/>
<path d="M110 76.5H114V80.5H110V76.5Z" fill="#212121"/>
<path d="M110 80.5H114V84.5H110V80.5Z" fill="#212121"/>
<path d="M110 84.5H114V88.5H110V84.5Z" fill="#212121"/>
<path d="M110 88.5H114V92.5H110V88.5Z" fill="#212121"/>
<path d="M110 92.5H114V96.5H110V92.5Z" fill="#212121"/>
<path d="M110 96.5H114V100.5H110V96.5Z" fill="#212121"/>
<path d="M110 100.5H114V104.5H110V100.5Z" fill="#212121"/>
<path d="M110 104.5H114V108.5H110V104.5Z" fill="#212121"/>
<path d="M110 108.5H114V112.5H110V108.5Z" fill="#212121"/>
<path d="M110 112.5H114V116.5H110V112.5Z" fill="#212121"/>
<path d="M110 116.5H114V120.5H110V116.5Z" fill="#212121"/>
<path d="M110 120.5H114V124.5H110V120.5Z" fill="#212121"/>
<path d="M110 124.5H114V128.5H110V124.5Z" fill="#212121"/>
<path d="M106 124.5H110V128.5H106V124.5Z" fill="#212121"/>
<path d="M102 124.5H106V128.5H102V124.5Z" fill="#212121"/>
<path d="M26 16.5H30V20.5H26V16.5Z" fill="#212121"/>
<path d="M26 40.5H30V44.5H26V40.5Z" fill="#212121"/>
<path d="M26 64.5H30V68.5H26V64.5Z" fill="#212121"/>
<path d="M26 88.5H30V92.5H26V88.5Z" fill="#212121"/>
<path d="M26 112.5H30V116.5H26V112.5Z" fill="#212121"/>
<path d="M50 16.5H54V20.5H50V16.5Z" fill="#212121"/>
<path d="M50 64.5H54V68.5H50V64.5Z" fill="#212121"/>
<path d="M62 64.5H66V68.5H62V64.5Z" fill="#212121"/>
<path d="M62 40.5H66V44.5H62V40.5Z" fill="#212121"/>
<path d="M62 44.5H66V48.5H62V44.5Z" fill="#212121"/>
<path d="M86 44.5H90V48.5H86V44.5Z" fill="#212121"/>
<path d="M62 48.5H66V52.5H62V48.5Z" fill="#212121"/>
<path d="M86 48.5H90V52.5H86V48.5Z" fill="#212121"/>
<path d="M62 52.5H66V56.5H62V52.5Z" fill="#212121"/>
<path d="M86 52.5H90V56.5H86V52.5Z" fill="#212121"/>
<path d="M62 56.5H66V60.5H62V56.5Z" fill="#212121"/>
<path d="M86 56.5H90V60.5H86V56.5Z" fill="#212121"/>
<path d="M62 60.5H66V64.5H62V60.5Z" fill="#212121"/>
<path d="M86 60.5H90V64.5H86V60.5Z" fill="#212121"/>
<path d="M50 28.5H54V32.5H50V28.5Z" fill="#212121"/>
<path d="M50 32.5H54V36.5H50V32.5Z" fill="#212121"/>
<path d="M50 36.5H54V40.5H50V36.5Z" fill="#212121"/>
<path d="M50 40.5H54V44.5H50V40.5Z" fill="#212121"/>
<path d="M50 44.5H54V48.5H50V44.5Z" fill="#212121"/>
<path d="M50 48.5H54V52.5H50V48.5Z" fill="#212121"/>
<path d="M50 52.5H54V56.5H50V52.5Z" fill="#212121"/>
<path d="M54 52.5H58V56.5H54V52.5Z" fill="#212121"/>
<path d="M58 52.5H62V56.5H58V52.5Z" fill="#212121"/>
<path d="M66 64.5H70V68.5H66V64.5Z" fill="#212121"/>
<path d="M66 40.5H70V44.5H66V40.5Z" fill="#212121"/>
<path d="M54 28.5H58V32.5H54V28.5Z" fill="#212121"/>
<path d="M70 64.5H74V68.5H70V64.5Z" fill="#212121"/>
<path d="M70 40.5H74V44.5H70V40.5Z" fill="#212121"/>
<path d="M58 28.5H62V32.5H58V28.5Z" fill="#212121"/>
<path d="M74 64.5H78V68.5H74V64.5Z" fill="#212121"/>
<path d="M74 40.5H78V44.5H74V40.5Z" fill="#212121"/>
<path d="M74 36.5H78V40.5H74V36.5Z" fill="#212121"/>
<path d="M74 32.5H78V36.5H74V32.5Z" fill="#212121"/>
<path d="M62 28.5H66V32.5H62V28.5Z" fill="#212121"/>
<path d="M78 64.5H82V68.5H78V64.5Z" fill="#212121"/>
<path d="M78 40.5H82V44.5H78V40.5Z" fill="#212121"/>
<path d="M66 28.5H70V32.5H66V28.5Z" fill="#212121"/>
<path d="M82 64.5H86V68.5H82V64.5Z" fill="#212121"/>
<path d="M82 40.5H86V44.5H82V40.5Z" fill="#212121"/>
<path d="M70 28.5H74V32.5H70V28.5Z" fill="#212121"/>
<path d="M86 64.5H90V68.5H86V64.5Z" fill="#212121"/>
<path d="M86 40.5H90V44.5H86V40.5Z" fill="#212121"/>
<path d="M74 28.5H78V32.5H74V28.5Z" fill="#212121"/>
<path d="M98 64.5H102V68.5H98V64.5Z" fill="#212121"/>
<path d="M98 88.5H102V92.5H98V88.5Z" fill="#212121"/>
<path d="M98 112.5H102V116.5H98V112.5Z" fill="#212121"/>
<path d="M98 40.5H102V44.5H98V40.5Z" fill="#212121"/>
<path d="M74 16.5H78V20.5H74V16.5Z" fill="#212121"/>
<path d="M74 88.5H78V92.5H74V88.5Z" fill="#212121"/>
<path d="M74 112.5H78V116.5H74V112.5Z" fill="#212121"/>
<path d="M98 124.5H102V128.5H98V124.5Z" fill="#212121"/>
<path d="M94 124.5H98V128.5H94V124.5Z" fill="#212121"/>
<path d="M90 124.5H94V128.5H90V124.5Z" fill="#212121"/>
<path d="M86 124.5H90V128.5H86V124.5Z" fill="#212121"/>
<path d="M82 124.5H86V128.5H82V124.5Z" fill="#212121"/>
<path d="M78 124.5H82V128.5H78V124.5Z" fill="#212121"/>
<path d="M74 124.5H78V128.5H74V124.5Z" fill="#212121"/>
<path d="M70 124.5H74V128.5H70V124.5Z" fill="#212121"/>
<path d="M66 124.5H70V128.5H66V124.5Z" fill="#212121"/>
<path d="M62 124.5H66V128.5H62V124.5Z" fill="#212121"/>
<path d="M58 124.5H62V128.5H58V124.5Z" fill="#212121"/>
<path d="M54 124.5H58V128.5H54V124.5Z" fill="#212121"/>
<path d="M50 124.5H54V128.5H50V124.5Z" fill="#212121"/>
<path d="M46 124.5H50V128.5H46V124.5Z" fill="#212121"/>
<path d="M42 124.5H46V128.5H42V124.5Z" fill="#212121"/>
<path d="M38 124.5H42V128.5H38V124.5Z" fill="#212121"/>
<path d="M34 124.5H38V128.5H34V124.5Z" fill="#212121"/>
<path d="M30 124.5H34V128.5H30V124.5Z" fill="#212121"/>
<path d="M26 124.5H30V128.5H26V124.5Z" fill="#212121"/>
<path d="M22 124.5H26V128.5H22V124.5Z" fill="#212121"/>
<path d="M106 24.5H110V28.5H106V24.5Z" fill="#212121"/>
<path d="M102 24.5H106V28.5H102V24.5Z" fill="#212121"/>
<path d="M98 24.5H102V28.5H98V24.5Z" fill="#212121"/>
<path d="M94 24.5H98V28.5H94V24.5Z" fill="#212121"/>
<path d="M90 24.5H94V28.5H90V24.5Z" fill="#212121"/>
<path d="M86 24.5H90V28.5H86V24.5Z" fill="#212121"/>
<path d="M86 20.5H90V24.5H86V20.5Z" fill="#212121"/>
<path d="M86 16.5H90V20.5H86V16.5Z" fill="#212121"/>
<path d="M86 12.5H90V16.5H86V12.5Z" fill="#212121"/>
<path d="M86 8.5H90V12.5H86V8.5Z" fill="#212121"/>
<path d="M86 4.5H90V8.5H86V4.5Z" fill="#212121"/>
<path d="M14 8.5H18V12.5H14V8.5Z" fill="#212121"/>
<path d="M14 12.5H18V16.5H14V12.5Z" fill="#212121"/>
<path d="M14 16.5H18V20.5H14V16.5Z" fill="#212121"/>
<path d="M14 20.5H18V24.5H14V20.5Z" fill="#212121"/>
<path d="M14 24.5H18V28.5H14V24.5Z" fill="#212121"/>
<path d="M14 28.5H18V32.5H14V28.5Z" fill="#212121"/>
<path d="M14 32.5H18V36.5H14V32.5Z" fill="#212121"/>
<path d="M14 36.5H18V40.5H14V36.5Z" fill="#212121"/>
<path d="M14 40.5H18V44.5H14V40.5Z" fill="#212121"/>
<path d="M14 44.5H18V48.5H14V44.5Z" fill="#212121"/>
<path d="M14 48.5H18V52.5H14V48.5Z" fill="#212121"/>
<path d="M14 52.5H18V56.5H14V52.5Z" fill="#212121"/>
<path d="M14 56.5H18V60.5H14V56.5Z" fill="#212121"/>
<path d="M14 60.5H18V64.5H14V60.5Z" fill="#212121"/>
<path d="M14 64.5H18V68.5H14V64.5Z" fill="#212121"/>
<path d="M14 68.5H18V72.5H14V68.5Z" fill="#212121"/>
<path d="M14 72.5H18V76.5H14V72.5Z" fill="#212121"/>
<path d="M14 76.5H18V80.5H14V76.5Z" fill="#212121"/>
<path d="M14 80.5H18V84.5H14V80.5Z" fill="#212121"/>
<path d="M14 84.5H18V88.5H14V84.5Z" fill="#212121"/>
<path d="M14 88.5H18V92.5H14V88.5Z" fill="#212121"/>
<path d="M14 92.5H18V96.5H14V92.5Z" fill="#212121"/>
<path d="M14 96.5H18V100.5H14V96.5Z" fill="#212121"/>
<path d="M38 96.5H42V100.5H38V96.5Z" fill="#212121"/>
<path d="M42 92.5H46V96.5H42V92.5Z" fill="#212121"/>
<path d="M46 88.5H50V92.5H46V88.5Z" fill="#212121"/>
<path d="M50 88.5H54V92.5H50V88.5Z" fill="#212121"/>
<path d="M54 88.5H58V92.5H54V88.5Z" fill="#212121"/>
<path d="M58 92.5H62V96.5H58V92.5Z" fill="#212121"/>
<path d="M62 96.5H66V100.5H62V96.5Z" fill="#212121"/>
<path d="M62 100.5H66V104.5H62V100.5Z" fill="#212121"/>
<path d="M62 104.5H66V108.5H62V104.5Z" fill="#212121"/>
<path d="M58 108.5H62V112.5H58V108.5Z" fill="#212121"/>
<path d="M54 112.5H58V116.5H54V112.5Z" fill="#212121"/>
<path d="M50 112.5H54V116.5H50V112.5Z" fill="#212121"/>
<path d="M46 112.5H50V116.5H46V112.5Z" fill="#212121"/>
<path d="M42 108.5H46V112.5H42V108.5Z" fill="#212121"/>
<path d="M14 100.5H18V104.5H14V100.5Z" fill="#212121"/>
<path d="M38 100.5H42V104.5H38V100.5Z" fill="#212121"/>
<path d="M14 104.5H18V108.5H14V104.5Z" fill="#212121"/>
<path d="M38 104.5H42V108.5H38V104.5Z" fill="#212121"/>
<path d="M14 108.5H18V112.5H14V108.5Z" fill="#212121"/>
<path d="M14 112.5H18V116.5H14V112.5Z" fill="#212121"/>
<path d="M14 116.5H18V120.5H14V116.5Z" fill="#212121"/>
<path d="M14 120.5H18V124.5H14V120.5Z" fill="#212121"/>
<path d="M14 124.5H18V128.5H14V124.5Z" fill="#212121"/>
<path d="M18 124.5H22V128.5H18V124.5Z" fill="#212121"/>
</svg>
