<svg width="128" height="129" viewBox="0 0 128 129" fill="none" xmlns="http://www.w3.org/2000/svg">
<rect x="15" y="2" width="74" height="126" fill="white"/>
<rect x="88" y="25" width="26" height="103" fill="white"/>
<rect x="87" y="7" width="7" height="21" fill="white"/>
<rect x="91" y="12" width="7" height="21" fill="white"/>
<rect x="95" y="16" width="7" height="21" fill="white"/>
<rect x="99" y="20" width="7" height="21" fill="white"/>
<path d="M14 4.5H18V8.5H14V4.5Z" fill="#212121"/>
<path d="M14 0.5H18V4.5H14V0.5Z" fill="#212121"/>
<path d="M18 0.5H22V4.5H18V0.5Z" fill="#212121"/>
<path d="M22 0.5H26V4.5H22V0.5Z" fill="#212121"/>
<path d="M26 0.5H30V4.5H26V0.5Z" fill="#212121"/>
<path d="M30 0.5H34V4.5H30V0.5Z" fill="#212121"/>
<path d="M34 0.5H38V4.5H34V0.5Z" fill="#212121"/>
<path d="M38 0.5H42V4.5H38V0.5Z" fill="#212121"/>
<path d="M42 0.5H46V4.5H42V0.5Z" fill="#212121"/>
<path d="M46 0.5H50V4.5H46V0.5Z" fill="#212121"/>
<path d="M50 0.5H54V4.5H50V0.5Z" fill="#212121"/>
<path d="M54 0.5H58V4.5H54V0.5Z" fill="#212121"/>
<path d="M58 0.5H62V4.5H58V0.5Z" fill="#212121"/>
<path d="M62 0.5H66V4.5H62V0.5Z" fill="#212121"/>
<path d="M66 0.5H70V4.5H66V0.5Z" fill="#212121"/>
<path d="M70 0.5H74V4.5H70V0.5Z" fill="#212121"/>
<path d="M74 0.5H78V4.5H74V0.5Z" fill="#212121"/>
<path d="M78 0.5H82V4.5H78V0.5Z" fill="#212121"/>
<path d="M82 0.5H86V4.5H82V0.5Z" fill="#212121"/>
<path d="M86 0.5H90V4.5H86V0.5Z" fill="#212121"/>
<path d="M90 4.5H94V8.5H90V4.5Z" fill="#212121"/>
<path d="M94 8.5H98V12.5H94V8.5Z" fill="#212121"/>
<path d="M98 12.5H102V16.5H98V12.5Z" fill="#212121"/>
<path d="M102 16.5H106V20.5H102V16.5Z" fill="#212121"/>
<path d="M106 20.5H110V24.5H106V20.5Z" fill="#212121"/>
<path d="M110 24.5H114V28.5H110V24.5Z" fill="#212121"/>
<path d="M110 28.5H114V32.5H110V28.5Z" fill="#212121"/>
<path d="M110 32.5H114V36.5H110V32.5Z" fill="#212121"/>
<path d="M110 36.5H114V40.5H110V36.5Z" fill="#212121"/>
<path d="M110 40.5H114V44.5H110V40.5Z" fill="#212121"/>
<path d="M110 44.5H114V48.5H110V44.5Z" fill="#212121"/>
<path d="M110 48.5H114V52.5H110V48.5Z" fill="#212121"/>
<path d="M110 52.5H114V56.5H110V52.5Z" fill="#212121"/>
<path d="M110 56.5H114V60.5H110V56.5Z" fill="#212121"/>
<path d="M110 60.5H114V64.5H110V60.5Z" fill="#212121"/>
<path d="M110 64.5H114V68.5H110V64.5Z" fill="#212121"/>
<path d="M110 68.5H114V72.5H110V68.5Z" fill="#212121"/>
<path d="M110 72.5H114V76.5H110V72.5Z" fill="#212121"/>
<path d="M110 76.5H114V80.5H110V76.5Z" fill="#212121"/>
<path d="M110 80.5H114V84.5H110V80.5Z" fill="#212121"/>
<path d="M110 84.5H114V88.5H110V84.5Z" fill="#212121"/>
<path d="M110 88.5H114V92.5H110V88.5Z" fill="#212121"/>
<path d="M110 92.5H114V96.5H110V92.5Z" fill="#212121"/>
<path d="M110 96.5H114V100.5H110V96.5Z" fill="#212121"/>
<path d="M110 100.5H114V104.5H110V100.5Z" fill="#212121"/>
<path d="M110 104.5H114V108.5H110V104.5Z" fill="#212121"/>
<path d="M110 108.5H114V112.5H110V108.5Z" fill="#212121"/>
<path d="M110 112.5H114V116.5H110V112.5Z" fill="#212121"/>
<path d="M110 116.5H114V120.5H110V116.5Z" fill="#212121"/>
<path d="M110 120.5H114V124.5H110V120.5Z" fill="#212121"/>
<path d="M110 124.5H114V128.5H110V124.5Z" fill="#212121"/>
<path d="M106 124.5H110V128.5H106V124.5Z" fill="#212121"/>
<path d="M102 124.5H106V128.5H102V124.5Z" fill="#212121"/>
<path d="M102 112.5H106V116.5H102V112.5Z" fill="#212121"/>
<path d="M102 108.5H106V112.5H102V108.5Z" fill="#212121"/>
<path d="M102 104.5H106V108.5H102V104.5Z" fill="#212121"/>
<path d="M102 100.5H106V104.5H102V100.5Z" fill="#212121"/>
<path d="M98 112.5H102V116.5H98V112.5Z" fill="#212121"/>
<path d="M98 108.5H102V112.5H98V108.5Z" fill="#212121"/>
<path d="M98 104.5H102V108.5H98V104.5Z" fill="#212121"/>
<path d="M98 100.5H102V104.5H98V100.5Z" fill="#212121"/>
<path d="M94 112.5H98V116.5H94V112.5Z" fill="#212121"/>
<path d="M94 108.5H98V112.5H94V108.5Z" fill="#212121"/>
<path d="M94 104.5H98V108.5H94V104.5Z" fill="#212121"/>
<path d="M94 100.5H98V104.5H94V100.5Z" fill="#212121"/>
<path d="M90 112.5H94V116.5H90V112.5Z" fill="#212121"/>
<path d="M90 108.5H94V112.5H90V108.5Z" fill="#212121"/>
<path d="M90 104.5H94V108.5H90V104.5Z" fill="#212121"/>
<path d="M90 100.5H94V104.5H90V100.5Z" fill="#212121"/>
<path d="M86 112.5H90V116.5H86V112.5Z" fill="#212121"/>
<path d="M86 108.5H90V112.5H86V108.5Z" fill="#212121"/>
<path d="M86 104.5H90V108.5H86V104.5Z" fill="#212121"/>
<path d="M86 100.5H90V104.5H86V100.5Z" fill="#212121"/>
<path d="M82 112.5H86V116.5H82V112.5Z" fill="#212121"/>
<path d="M82 108.5H86V112.5H82V108.5Z" fill="#212121"/>
<path d="M82 104.5H86V108.5H82V104.5Z" fill="#212121"/>
<path d="M82 100.5H86V104.5H82V100.5Z" fill="#212121"/>
<path d="M78 112.5H82V116.5H78V112.5Z" fill="#212121"/>
<path d="M78 108.5H82V112.5H78V108.5Z" fill="#212121"/>
<path d="M78 104.5H82V108.5H78V104.5Z" fill="#212121"/>
<path d="M78 100.5H82V104.5H78V100.5Z" fill="#212121"/>
<path d="M78 96.5H82V100.5H78V96.5Z" fill="#212121"/>
<path d="M78 92.5H82V96.5H78V92.5Z" fill="#212121"/>
<path d="M82 92.5H86V96.5H82V92.5Z" fill="#212121"/>
<path d="M86 92.5H90V96.5H86V92.5Z" fill="#212121"/>
<path d="M86 96.5H90V100.5H86V96.5Z" fill="#212121"/>
<path d="M90 92.5H94V96.5H90V92.5Z" fill="#212121"/>
<path d="M90 96.5H94V100.5H90V96.5Z" fill="#212121"/>
<path d="M94 92.5H98V96.5H94V92.5Z" fill="#212121"/>
<path d="M94 96.5H98V100.5H94V96.5Z" fill="#212121"/>
<path d="M98 92.5H102V96.5H98V92.5Z" fill="#212121"/>
<path d="M98 96.5H102V100.5H98V96.5Z" fill="#212121"/>
<path d="M102 92.5H106V96.5H102V92.5Z" fill="#212121"/>
<path d="M102 96.5H106V100.5H102V96.5Z" fill="#212121"/>
<path d="M74 92.5H78V96.5H74V92.5Z" fill="#212121"/>
<path d="M66 92.5H70V96.5H66V92.5Z" fill="#212121"/>
<path d="M74 112.5H78V116.5H74V112.5Z" fill="#212121"/>
<path d="M74 108.5H78V112.5H74V108.5Z" fill="#212121"/>
<path d="M74 104.5H78V108.5H74V104.5Z" fill="#212121"/>
<path d="M74 100.5H78V104.5H74V100.5Z" fill="#212121"/>
<path d="M70 112.5H74V116.5H70V112.5Z" fill="#212121"/>
<path d="M70 108.5H74V112.5H70V108.5Z" fill="#212121"/>
<path d="M70 104.5H74V108.5H70V104.5Z" fill="#212121"/>
<path d="M66 104.5H70V108.5H66V104.5Z" fill="#212121"/>
<path d="M62 104.5H66V108.5H62V104.5Z" fill="#212121"/>
<path d="M70 100.5H74V104.5H70V100.5Z" fill="#212121"/>
<path d="M66 112.5H70V116.5H66V112.5Z" fill="#212121"/>
<path d="M62 112.5H66V116.5H62V112.5Z" fill="#212121"/>
<path d="M58 112.5H62V116.5H58V112.5Z" fill="#212121"/>
<path d="M46 112.5H50V116.5H46V112.5Z" fill="#212121"/>
<path d="M42 108.5H46V112.5H42V108.5Z" fill="#212121"/>
<path d="M34 108.5H38V112.5H34V108.5Z" fill="#212121"/>
<path d="M42 112.5H46V116.5H42V112.5Z" fill="#212121"/>
<path d="M38 108.5H42V112.5H38V108.5Z" fill="#212121"/>
<path d="M30 104.5H34V108.5H30V104.5Z" fill="#212121"/>
<path d="M34 104.5H38V108.5H34V104.5Z" fill="#212121"/>
<path d="M38 104.5H42V108.5H38V104.5Z" fill="#212121"/>
<path d="M42 104.5H46V108.5H42V104.5Z" fill="#212121"/>
<path d="M42 100.5H46V104.5H42V100.5Z" fill="#212121"/>
<path d="M42 96.5H46V100.5H42V96.5Z" fill="#212121"/>
<path d="M38 96.5H42V100.5H38V96.5Z" fill="#212121"/>
<path d="M38 92.5H42V96.5H38V92.5Z" fill="#212121"/>
<path d="M38 88.5H42V92.5H38V88.5Z" fill="#212121"/>
<path d="M38 84.5H42V88.5H38V84.5Z" fill="#212121"/>
<path d="M38 80.5H42V84.5H38V80.5Z" fill="#212121"/>
<path d="M38 76.5H42V80.5H38V76.5Z" fill="#212121"/>
<path d="M38 72.5H42V76.5H38V72.5Z" fill="#212121"/>
<path d="M42 68.5H46V72.5H42V68.5Z" fill="#212121"/>
<path d="M42 64.5H46V68.5H42V64.5Z" fill="#212121"/>
<path d="M42 60.5H46V64.5H42V60.5Z" fill="#212121"/>
<path d="M42 56.5H46V60.5H42V56.5Z" fill="#212121"/>
<path d="M42 52.5H46V56.5H42V52.5Z" fill="#212121"/>
<path d="M42 48.5H46V52.5H42V48.5Z" fill="#212121"/>
<path d="M42 44.5H46V48.5H42V44.5Z" fill="#212121"/>
<path d="M42 40.5H46V44.5H42V40.5Z" fill="#212121"/>
<path d="M42 36.5H46V40.5H42V36.5Z" fill="#212121"/>
<path d="M42 32.5H46V36.5H42V32.5Z" fill="#212121"/>
<path d="M42 28.5H46V32.5H42V28.5Z" fill="#212121"/>
<path d="M42 24.5H46V28.5H42V24.5Z" fill="#212121"/>
<path d="M42 20.5H46V24.5H42V20.5Z" fill="#212121"/>
<path d="M42 16.5H46V20.5H42V16.5Z" fill="#212121"/>
<path d="M42 12.5H46V16.5H42V12.5Z" fill="#212121"/>
<path d="M42 8.5H46V12.5H42V8.5Z" fill="#212121"/>
<path d="M42 88.5H46V92.5H42V88.5Z" fill="#212121"/>
<path d="M46 88.5H50V92.5H46V88.5Z" fill="#212121"/>
<path d="M46 92.5H50V96.5H46V92.5Z" fill="#212121"/>
<path d="M42 84.5H46V88.5H42V84.5Z" fill="#212121"/>
<path d="M46 84.5H50V88.5H46V84.5Z" fill="#212121"/>
<path d="M42 80.5H46V84.5H42V80.5Z" fill="#212121"/>
<path d="M42 76.5H46V80.5H42V76.5Z" fill="#212121"/>
<path d="M34 96.5H38V100.5H34V96.5Z" fill="#212121"/>
<path d="M34 92.5H38V96.5H34V92.5Z" fill="#212121"/>
<path d="M34 88.5H38V92.5H34V88.5Z" fill="#212121"/>
<path d="M34 84.5H38V88.5H34V84.5Z" fill="#212121"/>
<path d="M34 80.5H38V84.5H34V80.5Z" fill="#212121"/>
<path d="M34 76.5H38V80.5H34V76.5Z" fill="#212121"/>
<path d="M34 72.5H38V76.5H34V72.5Z" fill="#212121"/>
<path d="M30 96.5H34V100.5H30V96.5Z" fill="#212121"/>
<path d="M30 92.5H34V96.5H30V92.5Z" fill="#212121"/>
<path d="M30 88.5H34V92.5H30V88.5Z" fill="#212121"/>
<path d="M30 84.5H34V88.5H30V84.5Z" fill="#212121"/>
<path d="M30 80.5H34V84.5H30V80.5Z" fill="#212121"/>
<path d="M30 76.5H34V80.5H30V76.5Z" fill="#212121"/>
<path d="M30 72.5H34V76.5H30V72.5Z" fill="#212121"/>
<path d="M26 68.5H30V72.5H26V68.5Z" fill="#212121"/>
<path d="M26 64.5H30V68.5H26V64.5Z" fill="#212121"/>
<path d="M26 60.5H30V64.5H26V60.5Z" fill="#212121"/>
<path d="M26 56.5H30V60.5H26V56.5Z" fill="#212121"/>
<path d="M26 52.5H30V56.5H26V52.5Z" fill="#212121"/>
<path d="M26 48.5H30V52.5H26V48.5Z" fill="#212121"/>
<path d="M30 48.5H34V52.5H30V48.5Z" fill="#212121"/>
<path d="M34 48.5H38V52.5H34V48.5Z" fill="#212121"/>
<path d="M38 48.5H42V52.5H38V48.5Z" fill="#212121"/>
<path d="M26 44.5H30V48.5H26V44.5Z" fill="#212121"/>
<path d="M30 44.5H34V48.5H30V44.5Z" fill="#212121"/>
<path d="M34 44.5H38V48.5H34V44.5Z" fill="#212121"/>
<path d="M26 40.5H30V44.5H26V40.5Z" fill="#212121"/>
<path d="M30 40.5H34V44.5H30V40.5Z" fill="#212121"/>
<path d="M34 40.5H38V44.5H34V40.5Z" fill="#212121"/>
<path d="M26 36.5H30V40.5H26V36.5Z" fill="#212121"/>
<path d="M30 36.5H34V40.5H30V36.5Z" fill="#212121"/>
<path d="M34 36.5H38V40.5H34V36.5Z" fill="#212121"/>
<path d="M26 32.5H30V36.5H26V32.5Z" fill="#212121"/>
<path d="M30 32.5H34V36.5H30V32.5Z" fill="#212121"/>
<path d="M34 32.5H38V36.5H34V32.5Z" fill="#212121"/>
<path d="M26 28.5H30V32.5H26V28.5Z" fill="#212121"/>
<path d="M30 28.5H34V32.5H30V28.5Z" fill="#212121"/>
<path d="M34 28.5H38V32.5H34V28.5Z" fill="#212121"/>
<path d="M26 24.5H30V28.5H26V24.5Z" fill="#212121"/>
<path d="M30 24.5H34V28.5H30V24.5Z" fill="#212121"/>
<path d="M34 24.5H38V28.5H34V24.5Z" fill="#212121"/>
<path d="M26 20.5H30V24.5H26V20.5Z" fill="#212121"/>
<path d="M30 20.5H34V24.5H30V20.5Z" fill="#212121"/>
<path d="M34 20.5H38V24.5H34V20.5Z" fill="#212121"/>
<path d="M26 16.5H30V20.5H26V16.5Z" fill="#212121"/>
<path d="M30 16.5H34V20.5H30V16.5Z" fill="#212121"/>
<path d="M34 16.5H38V20.5H34V16.5Z" fill="#212121"/>
<path d="M26 12.5H30V16.5H26V12.5Z" fill="#212121"/>
<path d="M30 12.5H34V16.5H30V12.5Z" fill="#212121"/>
<path d="M34 12.5H38V16.5H34V12.5Z" fill="#212121"/>
<path d="M26 8.5H30V12.5H26V8.5Z" fill="#212121"/>
<path d="M30 8.5H34V12.5H30V8.5Z" fill="#212121"/>
<path d="M34 8.5H38V12.5H34V8.5Z" fill="#212121"/>
<path d="M30 100.5H34V104.5H30V100.5Z" fill="#212121"/>
<path d="M34 100.5H38V104.5H34V100.5Z" fill="#212121"/>
<path d="M26 96.5H30V100.5H26V96.5Z" fill="#212121"/>
<path d="M26 92.5H30V96.5H26V92.5Z" fill="#212121"/>
<path d="M26 88.5H30V92.5H26V88.5Z" fill="#212121"/>
<path d="M26 84.5H30V88.5H26V84.5Z" fill="#212121"/>
<path d="M26 80.5H30V84.5H26V80.5Z" fill="#212121"/>
<path d="M26 76.5H30V80.5H26V76.5Z" fill="#212121"/>
<path d="M46 96.5H50V100.5H46V96.5Z" fill="#212121"/>
<path d="M98 124.5H102V128.5H98V124.5Z" fill="#212121"/>
<path d="M94 124.5H98V128.5H94V124.5Z" fill="#212121"/>
<path d="M90 124.5H94V128.5H90V124.5Z" fill="#212121"/>
<path d="M86 124.5H90V128.5H86V124.5Z" fill="#212121"/>
<path d="M82 124.5H86V128.5H82V124.5Z" fill="#212121"/>
<path d="M78 124.5H82V128.5H78V124.5Z" fill="#212121"/>
<path d="M74 124.5H78V128.5H74V124.5Z" fill="#212121"/>
<path d="M70 124.5H74V128.5H70V124.5Z" fill="#212121"/>
<path d="M66 124.5H70V128.5H66V124.5Z" fill="#212121"/>
<path d="M62 124.5H66V128.5H62V124.5Z" fill="#212121"/>
<path d="M58 124.5H62V128.5H58V124.5Z" fill="#212121"/>
<path d="M54 124.5H58V128.5H54V124.5Z" fill="#212121"/>
<path d="M50 124.5H54V128.5H50V124.5Z" fill="#212121"/>
<path d="M46 124.5H50V128.5H46V124.5Z" fill="#212121"/>
<path d="M42 124.5H46V128.5H42V124.5Z" fill="#212121"/>
<path d="M38 124.5H42V128.5H38V124.5Z" fill="#212121"/>
<path d="M34 124.5H38V128.5H34V124.5Z" fill="#212121"/>
<path d="M30 124.5H34V128.5H30V124.5Z" fill="#212121"/>
<path d="M26 124.5H30V128.5H26V124.5Z" fill="#212121"/>
<path d="M22 124.5H26V128.5H22V124.5Z" fill="#212121"/>
<path d="M106 24.5H110V28.5H106V24.5Z" fill="#212121"/>
<path d="M102 24.5H106V28.5H102V24.5Z" fill="#212121"/>
<path d="M98 24.5H102V28.5H98V24.5Z" fill="#212121"/>
<path d="M94 24.5H98V28.5H94V24.5Z" fill="#212121"/>
<path d="M90 24.5H94V28.5H90V24.5Z" fill="#212121"/>
<path d="M86 24.5H90V28.5H86V24.5Z" fill="#212121"/>
<path d="M86 20.5H90V24.5H86V20.5Z" fill="#212121"/>
<path d="M86 16.5H90V20.5H86V16.5Z" fill="#212121"/>
<path d="M86 12.5H90V16.5H86V12.5Z" fill="#212121"/>
<path d="M86 8.5H90V12.5H86V8.5Z" fill="#212121"/>
<path d="M86 4.5H90V8.5H86V4.5Z" fill="#212121"/>
<path d="M14 8.5H18V12.5H14V8.5Z" fill="#212121"/>
<path d="M14 12.5H18V16.5H14V12.5Z" fill="#212121"/>
<path d="M14 16.5H18V20.5H14V16.5Z" fill="#212121"/>
<path d="M14 20.5H18V24.5H14V20.5Z" fill="#212121"/>
<path d="M14 24.5H18V28.5H14V24.5Z" fill="#212121"/>
<path d="M14 28.5H18V32.5H14V28.5Z" fill="#212121"/>
<path d="M14 32.5H18V36.5H14V32.5Z" fill="#212121"/>
<path d="M14 36.5H18V40.5H14V36.5Z" fill="#212121"/>
<path d="M14 40.5H18V44.5H14V40.5Z" fill="#212121"/>
<path d="M14 44.5H18V48.5H14V44.5Z" fill="#212121"/>
<path d="M14 48.5H18V52.5H14V48.5Z" fill="#212121"/>
<path d="M14 52.5H18V56.5H14V52.5Z" fill="#212121"/>
<path d="M14 56.5H18V60.5H14V56.5Z" fill="#212121"/>
<path d="M14 60.5H18V64.5H14V60.5Z" fill="#212121"/>
<path d="M14 64.5H18V68.5H14V64.5Z" fill="#212121"/>
<path d="M14 68.5H18V72.5H14V68.5Z" fill="#212121"/>
<path d="M14 72.5H18V76.5H14V72.5Z" fill="#212121"/>
<path d="M14 76.5H18V80.5H14V76.5Z" fill="#212121"/>
<path d="M14 80.5H18V84.5H14V80.5Z" fill="#212121"/>
<path d="M14 84.5H18V88.5H14V84.5Z" fill="#212121"/>
<path d="M14 88.5H18V92.5H14V88.5Z" fill="#212121"/>
<path d="M14 92.5H18V96.5H14V92.5Z" fill="#212121"/>
<path d="M14 96.5H18V100.5H14V96.5Z" fill="#212121"/>
<path d="M14 100.5H18V104.5H14V100.5Z" fill="#212121"/>
<path d="M14 104.5H18V108.5H14V104.5Z" fill="#212121"/>
<path d="M14 108.5H18V112.5H14V108.5Z" fill="#212121"/>
<path d="M14 112.5H18V116.5H14V112.5Z" fill="#212121"/>
<path d="M14 116.5H18V120.5H14V116.5Z" fill="#212121"/>
<path d="M14 120.5H18V124.5H14V120.5Z" fill="#212121"/>
<path d="M14 124.5H18V128.5H14V124.5Z" fill="#212121"/>
<path d="M18 124.5H22V128.5H18V124.5Z" fill="#212121"/>
</svg>
