<svg width="128" height="129" viewBox="0 0 128 129" fill="none" xmlns="http://www.w3.org/2000/svg">
<path d="M0 32.5H4V36.5H0V32.5Z" fill="#212121"/>
<path d="M0 36.5H4V40.5H0V36.5Z" fill="#212121"/>
<path d="M0 40.5H4V44.5H0V40.5Z" fill="#212121"/>
<path d="M0 44.5H4V48.5H0V44.5Z" fill="#212121"/>
<path d="M0 48.5H4V52.5H0V48.5Z" fill="#212121"/>
<path d="M0 52.5H4V56.5H0V52.5Z" fill="#212121"/>
<path d="M0 56.5H4V60.5H0V56.5Z" fill="#212121"/>
<path d="M0 60.5H4V64.5H0V60.5Z" fill="#212121"/>
<path d="M0 64.5H4V68.5H0V64.5Z" fill="#212121"/>
<path d="M0 68.5H4V72.5H0V68.5Z" fill="#212121"/>
<path d="M0 72.5H4V76.5H0V72.5Z" fill="#212121"/>
<path d="M0 76.5H4V80.5H0V76.5Z" fill="#212121"/>
<path d="M0 80.5H4V84.5H0V80.5Z" fill="#212121"/>
<path d="M0 84.5H4V88.5H0V84.5Z" fill="#212121"/>
<path d="M0 88.5H4V92.5H0V88.5Z" fill="#212121"/>
<path d="M0 92.5H4V96.5H0V92.5Z" fill="#212121"/>
<path d="M0 96.5H4V100.5H0V96.5Z" fill="#212121"/>
<path d="M0 100.5H4V104.5H0V100.5Z" fill="#212121"/>
<path d="M0 104.5H4V108.5H0V104.5Z" fill="#212121"/>
<path d="M124 32.5H128V36.5H124V32.5Z" fill="#212121"/>
<path d="M124 36.5H128V40.5H124V36.5Z" fill="#212121"/>
<path d="M124 40.5H128V44.5H124V40.5Z" fill="#212121"/>
<path d="M124 44.5H128V48.5H124V44.5Z" fill="#212121"/>
<path d="M124 48.5H128V52.5H124V48.5Z" fill="#212121"/>
<path d="M124 52.5H128V56.5H124V52.5Z" fill="#212121"/>
<path d="M124 56.5H128V60.5H124V56.5Z" fill="#212121"/>
<path d="M124 60.5H128V64.5H124V60.5Z" fill="#212121"/>
<path d="M124 64.5H128V68.5H124V64.5Z" fill="#212121"/>
<path d="M124 68.5H128V72.5H124V68.5Z" fill="#212121"/>
<path d="M124 72.5H128V76.5H124V72.5Z" fill="#212121"/>
<path d="M124 76.5H128V80.5H124V76.5Z" fill="#212121"/>
<path d="M124 80.5H128V84.5H124V80.5Z" fill="#212121"/>
<path d="M124 84.5H128V88.5H124V84.5Z" fill="#212121"/>
<path d="M124 88.5H128V92.5H124V88.5Z" fill="#212121"/>
<path d="M124 92.5H128V96.5H124V92.5Z" fill="#212121"/>
<path d="M124 96.5H128V100.5H124V96.5Z" fill="#212121"/>
<path d="M124 100.5H128V104.5H124V100.5Z" fill="#212121"/>
<path d="M124 104.5H128V108.5H124V104.5Z" fill="#212121"/>
<path d="M0 108.5H4V112.5H0V108.5Z" fill="#212121"/>
<path d="M4 108.5H8V112.5H4V108.5Z" fill="#212121"/>
<path d="M8 108.5H12V112.5H8V108.5Z" fill="#212121"/>
<path d="M12 108.5H16V112.5H12V108.5Z" fill="#212121"/>
<path d="M16 108.5H20V112.5H16V108.5Z" fill="#212121"/>
<path d="M20 108.5H24V112.5H20V108.5Z" fill="#212121"/>
<path d="M24 108.5H28V112.5H24V108.5Z" fill="#212121"/>
<path d="M28 108.5H32V112.5H28V108.5Z" fill="#212121"/>
<path d="M32 108.5H36V112.5H32V108.5Z" fill="#212121"/>
<path d="M36 108.5H40V112.5H36V108.5Z" fill="#212121"/>
<path d="M40 108.5H44V112.5H40V108.5Z" fill="#212121"/>
<path d="M44 108.5H48V112.5H44V108.5Z" fill="#212121"/>
<path d="M48 108.5H52V112.5H48V108.5Z" fill="#212121"/>
<path d="M52 108.5H56V112.5H52V108.5Z" fill="#212121"/>
<path d="M56 108.5H60V112.5H56V108.5Z" fill="#212121"/>
<path d="M60 108.5H64V112.5H60V108.5Z" fill="#212121"/>
<path d="M64 108.5H68V112.5H64V108.5Z" fill="#212121"/>
<path d="M68 108.5H72V112.5H68V108.5Z" fill="#212121"/>
<path d="M72 108.5H76V112.5H72V108.5Z" fill="#212121"/>
<path d="M76 108.5H80V112.5H76V108.5Z" fill="#212121"/>
<path d="M80 108.5H84V112.5H80V108.5Z" fill="#212121"/>
<path d="M84 108.5H88V112.5H84V108.5Z" fill="#212121"/>
<path d="M88 108.5H92V112.5H88V108.5Z" fill="#212121"/>
<path d="M92 108.5H96V112.5H92V108.5Z" fill="#212121"/>
<path d="M96 108.5H100V112.5H96V108.5Z" fill="#212121"/>
<path d="M100 108.5H104V112.5H100V108.5Z" fill="#212121"/>
<path d="M104 108.5H108V112.5H104V108.5Z" fill="#212121"/>
<path d="M108 108.5H112V112.5H108V108.5Z" fill="#212121"/>
<path d="M112 108.5H116V112.5H112V108.5Z" fill="#212121"/>
<path d="M116 108.5H120V112.5H116V108.5Z" fill="#212121"/>
<path d="M120 108.5H124V112.5H120V108.5Z" fill="#212121"/>
<path d="M4 28.5H8V32.5H4V28.5Z" fill="#212121"/>
<path d="M8 28.5H12V32.5H8V28.5Z" fill="#212121"/>
<path d="M8 24.5H12V28.5H8V24.5Z" fill="#212121"/>
<path d="M12 20.5H16V24.5H12V20.5Z" fill="#212121"/>
<path d="M16 16.5H20V20.5H16V16.5Z" fill="#212121"/>
<path d="M52 24.5H56V28.5H52V24.5Z" fill="#212121"/>
<path d="M48 20.5H52V24.5H48V20.5Z" fill="#212121"/>
<path d="M44 16.5H48V20.5H44V16.5Z" fill="#212121"/>
<path d="M40 16.5H44V20.5H40V16.5Z" fill="#212121"/>
<path d="M36 16.5H40V20.5H36V16.5Z" fill="#212121"/>
<path d="M32 16.5H36V20.5H32V16.5Z" fill="#212121"/>
<path d="M28 16.5H32V20.5H28V16.5Z" fill="#212121"/>
<path d="M24 16.5H28V20.5H24V16.5Z" fill="#212121"/>
<path d="M20 16.5H24V20.5H20V16.5Z" fill="#212121"/>
<path d="M12 28.5H16V32.5H12V28.5Z" fill="#212121"/>
<path d="M16 28.5H20V32.5H16V28.5Z" fill="#212121"/>
<path d="M20 28.5H24V32.5H20V28.5Z" fill="#212121"/>
<path d="M24 28.5H28V32.5H24V28.5Z" fill="#212121"/>
<path d="M28 28.5H32V32.5H28V28.5Z" fill="#212121"/>
<path d="M32 28.5H36V32.5H32V28.5Z" fill="#212121"/>
<path d="M36 28.5H40V32.5H36V28.5Z" fill="#212121"/>
<path d="M40 28.5H44V32.5H40V28.5Z" fill="#212121"/>
<path d="M44 28.5H48V32.5H44V28.5Z" fill="#212121"/>
<path d="M48 28.5H52V32.5H48V28.5Z" fill="#212121"/>
<path d="M52 28.5H56V32.5H52V28.5Z" fill="#212121"/>
<path d="M56 28.5H60V32.5H56V28.5Z" fill="#212121"/>
<path d="M60 28.5H64V32.5H60V28.5Z" fill="#212121"/>
<path d="M64 28.5H68V32.5H64V28.5Z" fill="#212121"/>
<path d="M68 28.5H72V32.5H68V28.5Z" fill="#212121"/>
<path d="M72 28.5H76V32.5H72V28.5Z" fill="#212121"/>
<path d="M76 28.5H80V32.5H76V28.5Z" fill="#212121"/>
<path d="M80 28.5H84V32.5H80V28.5Z" fill="#212121"/>
<path d="M84 28.5H88V32.5H84V28.5Z" fill="#212121"/>
<path d="M88 28.5H92V32.5H88V28.5Z" fill="#212121"/>
<path d="M92 28.5H96V32.5H92V28.5Z" fill="#212121"/>
<path d="M96 28.5H100V32.5H96V28.5Z" fill="#212121"/>
<path d="M100 28.5H104V32.5H100V28.5Z" fill="#212121"/>
<path d="M104 28.5H108V32.5H104V28.5Z" fill="#212121"/>
<path d="M108 28.5H112V32.5H108V28.5Z" fill="#212121"/>
<path d="M112 28.5H116V32.5H112V28.5Z" fill="#212121"/>
<path d="M116 28.5H120V32.5H116V28.5Z" fill="#212121"/>
<path d="M120 28.5H124V32.5H120V28.5Z" fill="#212121"/>
<path d="M124 108.5H128V112.5H124V108.5Z" fill="#212121"/>
</svg>
