<svg xmlns="http://www.w3.org/2000/svg" xmlns:xlink="http://www.w3.org/1999/xlink" width="1080" zoomAndPan="magnify" viewBox="0 0 810 809.999993" height="1080" preserveAspectRatio="xMidYMid meet" version="1.0"><defs><clipPath id="dc3dbe52b1"><path d="M 25.238281 202.628906 L 784.761719 202.628906 L 784.761719 684.324219 L 25.238281 684.324219 Z M 25.238281 202.628906 " clip-rule="nonzero"/></clipPath><clipPath id="c864e84ab1"><path d="M 71.152344 152.675781 L 329.804688 152.675781 L 329.804688 202.628906 L 71.152344 202.628906 Z M 71.152344 152.675781 " clip-rule="nonzero"/></clipPath><clipPath id="f0df593dd2"><path d="M 100.890625 125.675781 L 304.761719 125.675781 L 304.761719 169.109375 L 100.890625 169.109375 Z M 100.890625 125.675781 " clip-rule="nonzero"/></clipPath></defs><g clip-path="url(#dc3dbe52b1)"><path fill="#ffffff" d="M 25.238281 202.628906 L 785.414062 202.628906 L 785.414062 684.324219 L 25.238281 684.324219 Z M 25.238281 202.628906 " fill-opacity="1" fill-rule="nonzero"/></g><g clip-path="url(#c864e84ab1)"><path fill="#ffffff" d="M 71.152344 152.675781 L 329.714844 152.675781 L 329.714844 202.628906 L 71.152344 202.628906 Z M 71.152344 152.675781 " fill-opacity="1" fill-rule="nonzero"/></g><g clip-path="url(#f0df593dd2)"><path fill="#ffffff" d="M 100.890625 125.675781 L 304.832031 125.675781 L 304.832031 169.109375 L 100.890625 169.109375 Z M 100.890625 125.675781 " fill-opacity="1" fill-rule="nonzero"/></g><path fill="#000000" d="M 0 202.402344 L 25.3125 202.402344 L 25.3125 227.707031 L 0 227.707031 Z M 0 202.402344 " fill-opacity="1" fill-rule="nonzero"/><path fill="#000000" d="M 0 227.707031 L 25.3125 227.707031 L 25.3125 253.007812 L 0 253.007812 Z M 0 227.707031 " fill-opacity="1" fill-rule="nonzero"/><path fill="#000000" d="M 0 253.007812 L 25.3125 253.007812 L 25.3125 278.3125 L 0 278.3125 Z M 0 253.007812 " fill-opacity="1" fill-rule="nonzero"/><path fill="#000000" d="M 0 278.3125 L 25.3125 278.3125 L 25.3125 303.613281 L 0 303.613281 Z M 0 278.3125 " fill-opacity="1" fill-rule="nonzero"/><path fill="#000000" d="M 0 303.613281 L 25.3125 303.613281 L 25.3125 328.914062 L 0 328.914062 Z M 0 303.613281 " fill-opacity="1" fill-rule="nonzero"/><path fill="#000000" d="M 0 328.914062 L 25.3125 328.914062 L 25.3125 354.21875 L 0 354.21875 Z M 0 328.914062 " fill-opacity="1" fill-rule="nonzero"/><path fill="#000000" d="M 0 354.21875 L 25.3125 354.21875 L 25.3125 379.519531 L 0 379.519531 Z M 0 354.21875 " fill-opacity="1" fill-rule="nonzero"/><path fill="#000000" d="M 0 379.519531 L 25.3125 379.519531 L 25.3125 404.824219 L 0 404.824219 Z M 0 379.519531 " fill-opacity="1" fill-rule="nonzero"/><path fill="#000000" d="M 0 404.824219 L 25.3125 404.824219 L 25.3125 430.125 L 0 430.125 Z M 0 404.824219 " fill-opacity="1" fill-rule="nonzero"/><path fill="#000000" d="M 0 430.125 L 25.3125 430.125 L 25.3125 455.425781 L 0 455.425781 Z M 0 430.125 " fill-opacity="1" fill-rule="nonzero"/><path fill="#000000" d="M 0 455.425781 L 25.3125 455.425781 L 25.3125 480.730469 L 0 480.730469 Z M 0 455.425781 " fill-opacity="1" fill-rule="nonzero"/><path fill="#000000" d="M 0 480.730469 L 25.3125 480.730469 L 25.3125 506.03125 L 0 506.03125 Z M 0 480.730469 " fill-opacity="1" fill-rule="nonzero"/><path fill="#000000" d="M 0 506.03125 L 25.3125 506.03125 L 25.3125 531.332031 L 0 531.332031 Z M 0 506.03125 " fill-opacity="1" fill-rule="nonzero"/><path fill="#000000" d="M 0 531.332031 L 25.3125 531.332031 L 25.3125 556.636719 L 0 556.636719 Z M 0 531.332031 " fill-opacity="1" fill-rule="nonzero"/><path fill="#000000" d="M 0 556.636719 L 25.3125 556.636719 L 25.3125 581.9375 L 0 581.9375 Z M 0 556.636719 " fill-opacity="1" fill-rule="nonzero"/><path fill="#000000" d="M 0 581.9375 L 25.3125 581.9375 L 25.3125 607.242188 L 0 607.242188 Z M 0 581.9375 " fill-opacity="1" fill-rule="nonzero"/><path fill="#000000" d="M 0 607.242188 L 25.3125 607.242188 L 25.3125 632.542969 L 0 632.542969 Z M 0 607.242188 " fill-opacity="1" fill-rule="nonzero"/><path fill="#000000" d="M 0 632.542969 L 25.3125 632.542969 L 25.3125 657.84375 L 0 657.84375 Z M 0 632.542969 " fill-opacity="1" fill-rule="nonzero"/><path fill="#000000" d="M 0 657.84375 L 25.3125 657.84375 L 25.3125 683.148438 L 0 683.148438 Z M 0 657.84375 " fill-opacity="1" fill-rule="nonzero"/><path fill="#000000" d="M 784.6875 202.402344 L 810 202.402344 L 810 227.707031 L 784.6875 227.707031 Z M 784.6875 202.402344 " fill-opacity="1" fill-rule="nonzero"/><path fill="#000000" d="M 784.6875 227.707031 L 810 227.707031 L 810 253.007812 L 784.6875 253.007812 Z M 784.6875 227.707031 " fill-opacity="1" fill-rule="nonzero"/><path fill="#000000" d="M 784.6875 253.007812 L 810 253.007812 L 810 278.3125 L 784.6875 278.3125 Z M 784.6875 253.007812 " fill-opacity="1" fill-rule="nonzero"/><path fill="#000000" d="M 784.6875 278.3125 L 810 278.3125 L 810 303.613281 L 784.6875 303.613281 Z M 784.6875 278.3125 " fill-opacity="1" fill-rule="nonzero"/><path fill="#000000" d="M 784.6875 303.613281 L 810 303.613281 L 810 328.914062 L 784.6875 328.914062 Z M 784.6875 303.613281 " fill-opacity="1" fill-rule="nonzero"/><path fill="#000000" d="M 784.6875 328.914062 L 810 328.914062 L 810 354.21875 L 784.6875 354.21875 Z M 784.6875 328.914062 " fill-opacity="1" fill-rule="nonzero"/><path fill="#000000" d="M 784.6875 354.21875 L 810 354.21875 L 810 379.519531 L 784.6875 379.519531 Z M 784.6875 354.21875 " fill-opacity="1" fill-rule="nonzero"/><path fill="#000000" d="M 784.6875 379.519531 L 810 379.519531 L 810 404.824219 L 784.6875 404.824219 Z M 784.6875 379.519531 " fill-opacity="1" fill-rule="nonzero"/><path fill="#000000" d="M 784.6875 404.824219 L 810 404.824219 L 810 430.125 L 784.6875 430.125 Z M 784.6875 404.824219 " fill-opacity="1" fill-rule="nonzero"/><path fill="#000000" d="M 784.6875 430.125 L 810 430.125 L 810 455.425781 L 784.6875 455.425781 Z M 784.6875 430.125 " fill-opacity="1" fill-rule="nonzero"/><path fill="#000000" d="M 784.6875 455.425781 L 810 455.425781 L 810 480.730469 L 784.6875 480.730469 Z M 784.6875 455.425781 " fill-opacity="1" fill-rule="nonzero"/><path fill="#000000" d="M 784.6875 480.730469 L 810 480.730469 L 810 506.03125 L 784.6875 506.03125 Z M 784.6875 480.730469 " fill-opacity="1" fill-rule="nonzero"/><path fill="#000000" d="M 784.6875 506.03125 L 810 506.03125 L 810 531.332031 L 784.6875 531.332031 Z M 784.6875 506.03125 " fill-opacity="1" fill-rule="nonzero"/><path fill="#000000" d="M 784.6875 531.332031 L 810 531.332031 L 810 556.636719 L 784.6875 556.636719 Z M 784.6875 531.332031 " fill-opacity="1" fill-rule="nonzero"/><path fill="#000000" d="M 784.6875 556.636719 L 810 556.636719 L 810 581.9375 L 784.6875 581.9375 Z M 784.6875 556.636719 " fill-opacity="1" fill-rule="nonzero"/><path fill="#000000" d="M 784.6875 581.9375 L 810 581.9375 L 810 607.242188 L 784.6875 607.242188 Z M 784.6875 581.9375 " fill-opacity="1" fill-rule="nonzero"/><path fill="#000000" d="M 784.6875 607.242188 L 810 607.242188 L 810 632.542969 L 784.6875 632.542969 Z M 784.6875 607.242188 " fill-opacity="1" fill-rule="nonzero"/><path fill="#000000" d="M 784.6875 632.542969 L 810 632.542969 L 810 657.84375 L 784.6875 657.84375 Z M 784.6875 632.542969 " fill-opacity="1" fill-rule="nonzero"/><path fill="#000000" d="M 784.6875 657.84375 L 810 657.84375 L 810 683.148438 L 784.6875 683.148438 Z M 784.6875 657.84375 " fill-opacity="1" fill-rule="nonzero"/><path fill="#000000" d="M 0 683.148438 L 25.3125 683.148438 L 25.3125 708.449219 L 0 708.449219 Z M 0 683.148438 " fill-opacity="1" fill-rule="nonzero"/><path fill="#000000" d="M 25.3125 683.148438 L 50.625 683.148438 L 50.625 708.449219 L 25.3125 708.449219 Z M 25.3125 683.148438 " fill-opacity="1" fill-rule="nonzero"/><path fill="#000000" d="M 50.625 683.148438 L 75.9375 683.148438 L 75.9375 708.449219 L 50.625 708.449219 Z M 50.625 683.148438 " fill-opacity="1" fill-rule="nonzero"/><path fill="#000000" d="M 75.9375 683.148438 L 101.25 683.148438 L 101.25 708.449219 L 75.9375 708.449219 Z M 75.9375 683.148438 " fill-opacity="1" fill-rule="nonzero"/><path fill="#000000" d="M 101.25 683.148438 L 126.5625 683.148438 L 126.5625 708.449219 L 101.25 708.449219 Z M 101.25 683.148438 " fill-opacity="1" fill-rule="nonzero"/><path fill="#000000" d="M 126.5625 683.148438 L 151.875 683.148438 L 151.875 708.449219 L 126.5625 708.449219 Z M 126.5625 683.148438 " fill-opacity="1" fill-rule="nonzero"/><path fill="#000000" d="M 151.875 683.148438 L 177.1875 683.148438 L 177.1875 708.449219 L 151.875 708.449219 Z M 151.875 683.148438 " fill-opacity="1" fill-rule="nonzero"/><path fill="#000000" d="M 177.1875 683.148438 L 202.5 683.148438 L 202.5 708.449219 L 177.1875 708.449219 Z M 177.1875 683.148438 " fill-opacity="1" fill-rule="nonzero"/><path fill="#000000" d="M 202.5 683.148438 L 227.8125 683.148438 L 227.8125 708.449219 L 202.5 708.449219 Z M 202.5 683.148438 " fill-opacity="1" fill-rule="nonzero"/><path fill="#000000" d="M 227.8125 683.148438 L 253.125 683.148438 L 253.125 708.449219 L 227.8125 708.449219 Z M 227.8125 683.148438 " fill-opacity="1" fill-rule="nonzero"/><path fill="#000000" d="M 253.125 683.148438 L 278.4375 683.148438 L 278.4375 708.449219 L 253.125 708.449219 Z M 253.125 683.148438 " fill-opacity="1" fill-rule="nonzero"/><path fill="#000000" d="M 278.4375 683.148438 L 303.75 683.148438 L 303.75 708.449219 L 278.4375 708.449219 Z M 278.4375 683.148438 " fill-opacity="1" fill-rule="nonzero"/><path fill="#000000" d="M 303.75 683.148438 L 329.0625 683.148438 L 329.0625 708.449219 L 303.75 708.449219 Z M 303.75 683.148438 " fill-opacity="1" fill-rule="nonzero"/><path fill="#000000" d="M 329.0625 683.148438 L 354.375 683.148438 L 354.375 708.449219 L 329.0625 708.449219 Z M 329.0625 683.148438 " fill-opacity="1" fill-rule="nonzero"/><path fill="#000000" d="M 354.375 683.148438 L 379.6875 683.148438 L 379.6875 708.449219 L 354.375 708.449219 Z M 354.375 683.148438 " fill-opacity="1" fill-rule="nonzero"/><path fill="#000000" d="M 379.6875 683.148438 L 405 683.148438 L 405 708.449219 L 379.6875 708.449219 Z M 379.6875 683.148438 " fill-opacity="1" fill-rule="nonzero"/><path fill="#000000" d="M 405 683.148438 L 430.3125 683.148438 L 430.3125 708.449219 L 405 708.449219 Z M 405 683.148438 " fill-opacity="1" fill-rule="nonzero"/><path fill="#000000" d="M 430.3125 683.148438 L 455.625 683.148438 L 455.625 708.449219 L 430.3125 708.449219 Z M 430.3125 683.148438 " fill-opacity="1" fill-rule="nonzero"/><path fill="#000000" d="M 455.625 683.148438 L 480.9375 683.148438 L 480.9375 708.449219 L 455.625 708.449219 Z M 455.625 683.148438 " fill-opacity="1" fill-rule="nonzero"/><path fill="#000000" d="M 480.9375 683.148438 L 506.25 683.148438 L 506.25 708.449219 L 480.9375 708.449219 Z M 480.9375 683.148438 " fill-opacity="1" fill-rule="nonzero"/><path fill="#000000" d="M 506.25 683.148438 L 531.5625 683.148438 L 531.5625 708.449219 L 506.25 708.449219 Z M 506.25 683.148438 " fill-opacity="1" fill-rule="nonzero"/><path fill="#000000" d="M 531.5625 683.148438 L 556.875 683.148438 L 556.875 708.449219 L 531.5625 708.449219 Z M 531.5625 683.148438 " fill-opacity="1" fill-rule="nonzero"/><path fill="#000000" d="M 556.875 683.148438 L 582.1875 683.148438 L 582.1875 708.449219 L 556.875 708.449219 Z M 556.875 683.148438 " fill-opacity="1" fill-rule="nonzero"/><path fill="#000000" d="M 582.1875 683.148438 L 607.5 683.148438 L 607.5 708.449219 L 582.1875 708.449219 Z M 582.1875 683.148438 " fill-opacity="1" fill-rule="nonzero"/><path fill="#000000" d="M 607.5 683.148438 L 632.8125 683.148438 L 632.8125 708.449219 L 607.5 708.449219 Z M 607.5 683.148438 " fill-opacity="1" fill-rule="nonzero"/><path fill="#000000" d="M 632.8125 683.148438 L 658.125 683.148438 L 658.125 708.449219 L 632.8125 708.449219 Z M 632.8125 683.148438 " fill-opacity="1" fill-rule="nonzero"/><path fill="#000000" d="M 658.125 683.148438 L 683.4375 683.148438 L 683.4375 708.449219 L 658.125 708.449219 Z M 658.125 683.148438 " fill-opacity="1" fill-rule="nonzero"/><path fill="#000000" d="M 683.4375 683.148438 L 708.75 683.148438 L 708.75 708.449219 L 683.4375 708.449219 Z M 683.4375 683.148438 " fill-opacity="1" fill-rule="nonzero"/><path fill="#000000" d="M 708.75 683.148438 L 734.0625 683.148438 L 734.0625 708.449219 L 708.75 708.449219 Z M 708.75 683.148438 " fill-opacity="1" fill-rule="nonzero"/><path fill="#000000" d="M 734.0625 683.148438 L 759.375 683.148438 L 759.375 708.449219 L 734.0625 708.449219 Z M 734.0625 683.148438 " fill-opacity="1" fill-rule="nonzero"/><path fill="#000000" d="M 759.375 683.148438 L 784.6875 683.148438 L 784.6875 708.449219 L 759.375 708.449219 Z M 759.375 683.148438 " fill-opacity="1" fill-rule="nonzero"/><path fill="#000000" d="M 25.3125 177.101562 L 50.625 177.101562 L 50.625 202.402344 L 25.3125 202.402344 Z M 25.3125 177.101562 " fill-opacity="1" fill-rule="nonzero"/><path fill="#000000" d="M 50.625 177.101562 L 75.9375 177.101562 L 75.9375 202.402344 L 50.625 202.402344 Z M 50.625 177.101562 " fill-opacity="1" fill-rule="nonzero"/><path fill="#000000" d="M 50.625 151.800781 L 75.9375 151.800781 L 75.9375 177.101562 L 50.625 177.101562 Z M 50.625 151.800781 " fill-opacity="1" fill-rule="nonzero"/><path fill="#000000" d="M 75.9375 126.496094 L 101.25 126.496094 L 101.25 151.800781 L 75.9375 151.800781 Z M 75.9375 126.496094 " fill-opacity="1" fill-rule="nonzero"/><path fill="#000000" d="M 101.25 101.195312 L 126.5625 101.195312 L 126.5625 126.496094 L 101.25 126.496094 Z M 101.25 101.195312 " fill-opacity="1" fill-rule="nonzero"/><path fill="#000000" d="M 329.0625 151.800781 L 354.375 151.800781 L 354.375 177.101562 L 329.0625 177.101562 Z M 329.0625 151.800781 " fill-opacity="1" fill-rule="nonzero"/><path fill="#000000" d="M 303.75 126.496094 L 329.0625 126.496094 L 329.0625 151.800781 L 303.75 151.800781 Z M 303.75 126.496094 " fill-opacity="1" fill-rule="nonzero"/><path fill="#000000" d="M 278.4375 101.195312 L 303.75 101.195312 L 303.75 126.496094 L 278.4375 126.496094 Z M 278.4375 101.195312 " fill-opacity="1" fill-rule="nonzero"/><path fill="#000000" d="M 253.125 101.195312 L 278.4375 101.195312 L 278.4375 126.496094 L 253.125 126.496094 Z M 253.125 101.195312 " fill-opacity="1" fill-rule="nonzero"/><path fill="#000000" d="M 227.8125 101.195312 L 253.125 101.195312 L 253.125 126.496094 L 227.8125 126.496094 Z M 227.8125 101.195312 " fill-opacity="1" fill-rule="nonzero"/><path fill="#000000" d="M 202.5 101.195312 L 227.8125 101.195312 L 227.8125 126.496094 L 202.5 126.496094 Z M 202.5 101.195312 " fill-opacity="1" fill-rule="nonzero"/><path fill="#000000" d="M 177.1875 101.195312 L 202.5 101.195312 L 202.5 126.496094 L 177.1875 126.496094 Z M 177.1875 101.195312 " fill-opacity="1" fill-rule="nonzero"/><path fill="#000000" d="M 151.875 101.195312 L 177.1875 101.195312 L 177.1875 126.496094 L 151.875 126.496094 Z M 151.875 101.195312 " fill-opacity="1" fill-rule="nonzero"/><path fill="#000000" d="M 126.5625 101.195312 L 151.875 101.195312 L 151.875 126.496094 L 126.5625 126.496094 Z M 126.5625 101.195312 " fill-opacity="1" fill-rule="nonzero"/><path fill="#000000" d="M 75.9375 177.101562 L 101.25 177.101562 L 101.25 202.402344 L 75.9375 202.402344 Z M 75.9375 177.101562 " fill-opacity="1" fill-rule="nonzero"/><path fill="#000000" d="M 101.25 177.101562 L 126.5625 177.101562 L 126.5625 202.402344 L 101.25 202.402344 Z M 101.25 177.101562 " fill-opacity="1" fill-rule="nonzero"/><path fill="#000000" d="M 126.5625 177.101562 L 151.875 177.101562 L 151.875 202.402344 L 126.5625 202.402344 Z M 126.5625 177.101562 " fill-opacity="1" fill-rule="nonzero"/><path fill="#000000" d="M 151.875 177.101562 L 177.1875 177.101562 L 177.1875 202.402344 L 151.875 202.402344 Z M 151.875 177.101562 " fill-opacity="1" fill-rule="nonzero"/><path fill="#000000" d="M 177.1875 177.101562 L 202.5 177.101562 L 202.5 202.402344 L 177.1875 202.402344 Z M 177.1875 177.101562 " fill-opacity="1" fill-rule="nonzero"/><path fill="#000000" d="M 202.5 177.101562 L 227.8125 177.101562 L 227.8125 202.402344 L 202.5 202.402344 Z M 202.5 177.101562 " fill-opacity="1" fill-rule="nonzero"/><path fill="#000000" d="M 227.8125 177.101562 L 253.125 177.101562 L 253.125 202.402344 L 227.8125 202.402344 Z M 227.8125 177.101562 " fill-opacity="1" fill-rule="nonzero"/><path fill="#000000" d="M 253.125 177.101562 L 278.4375 177.101562 L 278.4375 202.402344 L 253.125 202.402344 Z M 253.125 177.101562 " fill-opacity="1" fill-rule="nonzero"/><path fill="#000000" d="M 278.4375 177.101562 L 303.75 177.101562 L 303.75 202.402344 L 278.4375 202.402344 Z M 278.4375 177.101562 " fill-opacity="1" fill-rule="nonzero"/><path fill="#000000" d="M 303.75 177.101562 L 329.0625 177.101562 L 329.0625 202.402344 L 303.75 202.402344 Z M 303.75 177.101562 " fill-opacity="1" fill-rule="nonzero"/><path fill="#000000" d="M 329.0625 177.101562 L 354.375 177.101562 L 354.375 202.402344 L 329.0625 202.402344 Z M 329.0625 177.101562 " fill-opacity="1" fill-rule="nonzero"/><path fill="#000000" d="M 354.375 177.101562 L 379.6875 177.101562 L 379.6875 202.402344 L 354.375 202.402344 Z M 354.375 177.101562 " fill-opacity="1" fill-rule="nonzero"/><path fill="#000000" d="M 379.6875 177.101562 L 405 177.101562 L 405 202.402344 L 379.6875 202.402344 Z M 379.6875 177.101562 " fill-opacity="1" fill-rule="nonzero"/><path fill="#000000" d="M 405 177.101562 L 430.3125 177.101562 L 430.3125 202.402344 L 405 202.402344 Z M 405 177.101562 " fill-opacity="1" fill-rule="nonzero"/><path fill="#000000" d="M 430.3125 177.101562 L 455.625 177.101562 L 455.625 202.402344 L 430.3125 202.402344 Z M 430.3125 177.101562 " fill-opacity="1" fill-rule="nonzero"/><path fill="#000000" d="M 455.625 177.101562 L 480.9375 177.101562 L 480.9375 202.402344 L 455.625 202.402344 Z M 455.625 177.101562 " fill-opacity="1" fill-rule="nonzero"/><path fill="#000000" d="M 480.9375 177.101562 L 506.25 177.101562 L 506.25 202.402344 L 480.9375 202.402344 Z M 480.9375 177.101562 " fill-opacity="1" fill-rule="nonzero"/><path fill="#000000" d="M 506.25 177.101562 L 531.5625 177.101562 L 531.5625 202.402344 L 506.25 202.402344 Z M 506.25 177.101562 " fill-opacity="1" fill-rule="nonzero"/><path fill="#000000" d="M 531.5625 177.101562 L 556.875 177.101562 L 556.875 202.402344 L 531.5625 202.402344 Z M 531.5625 177.101562 " fill-opacity="1" fill-rule="nonzero"/><path fill="#000000" d="M 556.875 177.101562 L 582.1875 177.101562 L 582.1875 202.402344 L 556.875 202.402344 Z M 556.875 177.101562 " fill-opacity="1" fill-rule="nonzero"/><path fill="#000000" d="M 582.1875 177.101562 L 607.5 177.101562 L 607.5 202.402344 L 582.1875 202.402344 Z M 582.1875 177.101562 " fill-opacity="1" fill-rule="nonzero"/><path fill="#000000" d="M 607.5 177.101562 L 632.8125 177.101562 L 632.8125 202.402344 L 607.5 202.402344 Z M 607.5 177.101562 " fill-opacity="1" fill-rule="nonzero"/><path fill="#000000" d="M 632.8125 177.101562 L 658.125 177.101562 L 658.125 202.402344 L 632.8125 202.402344 Z M 632.8125 177.101562 " fill-opacity="1" fill-rule="nonzero"/><path fill="#000000" d="M 658.125 177.101562 L 683.4375 177.101562 L 683.4375 202.402344 L 658.125 202.402344 Z M 658.125 177.101562 " fill-opacity="1" fill-rule="nonzero"/><path fill="#000000" d="M 683.4375 177.101562 L 708.75 177.101562 L 708.75 202.402344 L 683.4375 202.402344 Z M 683.4375 177.101562 " fill-opacity="1" fill-rule="nonzero"/><path fill="#000000" d="M 708.75 177.101562 L 734.0625 177.101562 L 734.0625 202.402344 L 708.75 202.402344 Z M 708.75 177.101562 " fill-opacity="1" fill-rule="nonzero"/><path fill="#000000" d="M 734.0625 177.101562 L 759.375 177.101562 L 759.375 202.402344 L 734.0625 202.402344 Z M 734.0625 177.101562 " fill-opacity="1" fill-rule="nonzero"/><path fill="#000000" d="M 759.375 177.101562 L 784.6875 177.101562 L 784.6875 202.402344 L 759.375 202.402344 Z M 759.375 177.101562 " fill-opacity="1" fill-rule="nonzero"/><path fill="#000000" d="M 784.6875 683.148438 L 810 683.148438 L 810 708.449219 L 784.6875 708.449219 Z M 784.6875 683.148438 " fill-opacity="1" fill-rule="nonzero"/></svg>