<svg width="100" height="129" viewBox="0 0 100 129" fill="none" xmlns="http://www.w3.org/2000/svg">
<rect x="7" y="4" width="85" height="122" fill="white"/>
<rect x="2" y="9" width="94" height="100" fill="white"/>
<path d="M8 0.5H92V4.5H8V0.5Z" fill="#212121"/>
<path d="M92 4.5H96V8.5H92V4.5Z" fill="#212121"/>
<path d="M0 8.5H4V108.5H0V8.5Z" fill="#212121"/>
<path d="M96 8.5H100V108.5H96V8.5Z" fill="#212121"/>
<path d="M4 4.5H8V8.5H4V4.5Z" fill="#212121"/>
<path d="M12 16.5H16V20.5H12V16.5Z" fill="#212121"/>
<path d="M84 16.5H88V20.5H84V16.5Z" fill="#212121"/>
<path d="M12 20.5H16V24.5H12V20.5Z" fill="#212121"/>
<path d="M84 20.5H88V24.5H84V20.5Z" fill="#212121"/>
<path d="M12 24.5H16V28.5H12V24.5Z" fill="#212121"/>
<path d="M84 24.5H88V28.5H84V24.5Z" fill="#212121"/>
<path d="M12 28.5H16V32.5H12V28.5Z" fill="#212121"/>
<path d="M32 28.5H36V32.5H32V28.5Z" fill="#212121"/>
<path d="M60 28.5H64V32.5H60V28.5Z" fill="#212121"/>
<path d="M48 28.5H52V32.5H48V28.5Z" fill="#212121"/>
<path d="M48 32.5H52V36.5H48V32.5Z" fill="#212121"/>
<path d="M48 36.5H52V40.5H48V36.5Z" fill="#212121"/>
<path d="M48 40.5H52V44.5H48V40.5Z" fill="#212121"/>
<path d="M48 44.5H52V48.5H48V44.5Z" fill="#212121"/>
<path d="M44 44.5H48V48.5H44V44.5Z" fill="#212121"/>
<path d="M44 56.5H48V60.5H44V56.5Z" fill="#212121"/>
<path d="M40 56.5H44V60.5H40V56.5Z" fill="#212121"/>
<path d="M48 56.5H52V60.5H48V56.5Z" fill="#212121"/>
<path d="M52 56.5H56V60.5H52V56.5Z" fill="#212121"/>
<path d="M56 52.5H60V56.5H56V52.5Z" fill="#212121"/>
<path d="M36 52.5H40V56.5H36V52.5Z" fill="#212121"/>
<path d="M32 32.5H36V36.5H32V32.5Z" fill="#212121"/>
<path d="M60 32.5H64V36.5H60V32.5Z" fill="#212121"/>
<path d="M84 28.5H88V32.5H84V28.5Z" fill="#212121"/>
<path d="M12 32.5H16V36.5H12V32.5Z" fill="#212121"/>
<path d="M84 32.5H88V36.5H84V32.5Z" fill="#212121"/>
<path d="M12 36.5H16V40.5H12V36.5Z" fill="#212121"/>
<path d="M84 36.5H88V40.5H84V36.5Z" fill="#212121"/>
<path d="M12 40.5H16V44.5H12V40.5Z" fill="#212121"/>
<path d="M84 40.5H88V44.5H84V40.5Z" fill="#212121"/>
<path d="M12 44.5H16V48.5H12V44.5Z" fill="#212121"/>
<path d="M84 44.5H88V48.5H84V44.5Z" fill="#212121"/>
<path d="M12 48.5H16V52.5H12V48.5Z" fill="#212121"/>
<path d="M84 48.5H88V52.5H84V48.5Z" fill="#212121"/>
<path d="M12 52.5H16V56.5H12V52.5Z" fill="#212121"/>
<path d="M84 52.5H88V56.5H84V52.5Z" fill="#212121"/>
<path d="M12 56.5H16V60.5H12V56.5Z" fill="#212121"/>
<path d="M84 56.5H88V60.5H84V56.5Z" fill="#212121"/>
<path d="M12 60.5H16V64.5H12V60.5Z" fill="#212121"/>
<path d="M84 60.5H88V64.5H84V60.5Z" fill="#212121"/>
<path d="M12 64.5H16V68.5H12V64.5Z" fill="#212121"/>
<path d="M12 92.5H16V96.5H12V92.5Z" fill="#212121"/>
<path d="M16 92.5H20V96.5H16V92.5Z" fill="#212121"/>
<path d="M60 88.5H64V92.5H60V88.5Z" fill="#212121"/>
<path d="M68 88.5H72V92.5H68V88.5Z" fill="#212121"/>
<path d="M76 88.5H80V92.5H76V88.5Z" fill="#212121"/>
<path d="M64 88.5H68V92.5H64V88.5Z" fill="#212121"/>
<path d="M72 88.5H76V92.5H72V88.5Z" fill="#212121"/>
<path d="M80 88.5H84V92.5H80V88.5Z" fill="#212121"/>
<path d="M8 108.5H92V112.5H8V108.5Z" fill="#212121"/>
<path d="M84 64.5H88V68.5H84V64.5Z" fill="#212121"/>
<path d="M16 68.5H84V72.5H16V68.5Z" fill="#212121"/>
<path d="M16 12.5H20V16.5H16V12.5Z" fill="#212121"/>
<path d="M20 12.5H24V16.5H20V12.5Z" fill="#212121"/>
<path d="M24 12.5H28V16.5H24V12.5Z" fill="#212121"/>
<path d="M28 12.5H32V16.5H28V12.5Z" fill="#212121"/>
<path d="M32 12.5H36V16.5H32V12.5Z" fill="#212121"/>
<path d="M36 12.5H40V16.5H36V12.5Z" fill="#212121"/>
<path d="M40 12.5H44V16.5H40V12.5Z" fill="#212121"/>
<path d="M44 12.5H48V16.5H44V12.5Z" fill="#212121"/>
<path d="M48 12.5H52V16.5H48V12.5Z" fill="#212121"/>
<path d="M52 12.5H56V16.5H52V12.5Z" fill="#212121"/>
<path d="M56 12.5H60V16.5H56V12.5Z" fill="#212121"/>
<path d="M60 12.5H64V16.5H60V12.5Z" fill="#212121"/>
<path d="M64 12.5H68V16.5H64V12.5Z" fill="#212121"/>
<path d="M68 12.5H72V16.5H68V12.5Z" fill="#212121"/>
<path d="M72 12.5H76V16.5H72V12.5Z" fill="#212121"/>
<path d="M76 12.5H80V16.5H76V12.5Z" fill="#212121"/>
<path d="M80 12.5H84V16.5H80V12.5Z" fill="#212121"/>
<path d="M4 108.5H8V128.5H4V108.5Z" fill="#212121"/>
<path d="M92 108.5H96V128.5H92V108.5Z" fill="#212121"/>
<path d="M8 124.5H12V128.5H8V124.5Z" fill="#212121"/>
<path d="M12 124.5H16V128.5H12V124.5Z" fill="#212121"/>
<path d="M16 124.5H20V128.5H16V124.5Z" fill="#212121"/>
<path d="M20 124.5H24V128.5H20V124.5Z" fill="#212121"/>
<path d="M24 124.5H28V128.5H24V124.5Z" fill="#212121"/>
<path d="M28 124.5H32V128.5H28V124.5Z" fill="#212121"/>
<path d="M32 124.5H36V128.5H32V124.5Z" fill="#212121"/>
<path d="M36 124.5H40V128.5H36V124.5Z" fill="#212121"/>
<path d="M40 124.5H44V128.5H40V124.5Z" fill="#212121"/>
<path d="M44 124.5H48V128.5H44V124.5Z" fill="#212121"/>
<path d="M48 124.5H52V128.5H48V124.5Z" fill="#212121"/>
<path d="M52 124.5H56V128.5H52V124.5Z" fill="#212121"/>
<path d="M56 124.5H60V128.5H56V124.5Z" fill="#212121"/>
<path d="M60 124.5H64V128.5H60V124.5Z" fill="#212121"/>
<path d="M64 124.5H68V128.5H64V124.5Z" fill="#212121"/>
<path d="M68 124.5H72V128.5H68V124.5Z" fill="#212121"/>
<path d="M72 124.5H76V128.5H72V124.5Z" fill="#212121"/>
<path d="M76 124.5H80V128.5H76V124.5Z" fill="#212121"/>
<path d="M80 124.5H84V128.5H80V124.5Z" fill="#212121"/>
<path d="M84 124.5H88V128.5H84V124.5Z" fill="#212121"/>
<path d="M88 124.5H92V128.5H88V124.5Z" fill="#212121"/>
<path d="M92 124.5H96V128.5H92V124.5Z" fill="#212121"/>
</svg>
