<!-- src/assets/OpenFolderIcon.svg -->
<svg xmlns="http://www.w3.org/2000/svg" width="64" height="64" viewBox="0 0 62 62">
  <!-- White background for the entire folder -->
  <path
    d="M2 16 L62 16 L62 54 L2 54 Z
       M6 12 L26 12 L26 16 L6 16 Z
       M8 10 L24 10 L24 13 L8 13 Z"
    fill="white"
  />

  <!-- Manually creating the pixelated pattern effect -->
  <!-- Each black "pixel" is a 2x2 square -->

  <!-- Column 1 -->
  <rect x="4" y="14" width="2" height="2" fill="black" />
  <rect x="4" y="18" width="2" height="2" fill="black" />
  <rect x="4" y="22" width="2" height="2" fill="black" />
  <rect x="4" y="26" width="2" height="2" fill="black" />
  <rect x="4" y="30" width="2" height="2" fill="black" />
  <rect x="4" y="34" width="2" height="2" fill="black" />
  <rect x="4" y="38" width="2" height="2" fill="black" />
  <rect x="4" y="42" width="2" height="2" fill="black" />
  <rect x="4" y="46" width="2" height="2" fill="black" />
  <rect x="4" y="50" width="2" height="2" fill="black" />

  <!-- Column 2 (offset by one white pixel vertically) -->
  <rect x="8" y="12" width="2" height="2" fill="black" />
  <rect x="8" y="16" width="2" height="2" fill="black" />
  <rect x="8" y="20" width="2" height="2" fill="black" />
  <rect x="8" y="24" width="2" height="2" fill="black" />
  <rect x="8" y="28" width="2" height="2" fill="black" />
  <rect x="8" y="32" width="2" height="2" fill="black" />
  <rect x="8" y="36" width="2" height="2" fill="black" />
  <rect x="8" y="40" width="2" height="2" fill="black" />
  <rect x="8" y="44" width="2" height="2" fill="black" />
  <rect x="8" y="48" width="2" height="2" fill="black" />
  <rect x="8" y="52" width="2" height="2" fill="black" />

  <!-- Column 3 -->
  <rect x="12" y="10" width="2" height="2" fill="black" />
  <rect x="12" y="14" width="2" height="2" fill="black" />
  <rect x="12" y="18" width="2" height="2" fill="black" />
  <rect x="12" y="22" width="2" height="2" fill="black" />
  <rect x="12" y="26" width="2" height="2" fill="black" />
  <rect x="12" y="30" width="2" height="2" fill="black" />
  <rect x="12" y="34" width="2" height="2" fill="black" />
  <rect x="12" y="38" width="2" height="2" fill="black" />
  <rect x="12" y="42" width="2" height="2" fill="black" />
  <rect x="12" y="46" width="2" height="2" fill="black" />
  <rect x="12" y="50" width="2" height="2" fill="black" />

  <!-- Column 4 (offset by one white pixel vertically) -->
  <rect x="16" y="12" width="2" height="2" fill="black" />
  <rect x="16" y="16" width="2" height="2" fill="black" />
  <rect x="16" y="20" width="2" height="2" fill="black" />
  <rect x="16" y="24" width="2" height="2" fill="black" />
  <rect x="16" y="28" width="2" height="2" fill="black" />
  <rect x="16" y="32" width="2" height="2" fill="black" />
  <rect x="16" y="36" width="2" height="2" fill="black" />
  <rect x="16" y="40" width="2" height="2" fill="black" />
  <rect x="16" y="44" width="2" height="2" fill="black" />
  <rect x="16" y="48" width="2" height="2" fill="black" />
  <rect x="16" y="52" width="2" height="2" fill="black" />

  <!-- Column 5 -->
  <rect x="20" y="10" width="2" height="2" fill="black" />
  <rect x="20" y="14" width="2" height="2" fill="black" />
  <rect x="20" y="18" width="2" height="2" fill="black" />
  <rect x="20" y="22" width="2" height="2" fill="black" />
  <rect x="20" y="26" width="2" height="2" fill="black" />
  <rect x="20" y="30" width="2" height="2" fill="black" />
  <rect x="20" y="34" width="2" height="2" fill="black" />
  <rect x="20" y="38" width="2" height="2" fill="black" />
  <rect x="20" y="42" width="2" height="2" fill="black" />
  <rect x="20" y="46" width="2" height="2" fill="black" />
  <rect x="20" y="50" width="2" height="2" fill="black" />

  <!-- Column 6 (offset by one white pixel vertically) -->
  <rect x="24" y="12" width="2" height="2" fill="black" />
  <rect x="24" y="16" width="2" height="2" fill="black" />
  <rect x="24" y="20" width="2" height="2" fill="black" />
  <rect x="24" y="24" width="2" height="2" fill="black" />
  <rect x="24" y="28" width="2" height="2" fill="black" />
  <rect x="24" y="32" width="2" height="2" fill="black" />
  <rect x="24" y="36" width="2" height="2" fill="black" />
  <rect x="24" y="40" width="2" height="2" fill="black" />
  <rect x="24" y="44" width="2" height="2" fill="black" />
  <rect x="24" y="48" width="2" height="2" fill="black" />
  <rect x="24" y="52" width="2" height="2" fill="black" />

  <!-- Column 7 -->
  <rect x="28" y="18" width="2" height="2" fill="black" />
  <rect x="28" y="22" width="2" height="2" fill="black" />
  <rect x="28" y="26" width="2" height="2" fill="black" />
  <rect x="28" y="30" width="2" height="2" fill="black" />
  <rect x="28" y="34" width="2" height="2" fill="black" />
  <rect x="28" y="38" width="2" height="2" fill="black" />
  <rect x="28" y="42" width="2" height="2" fill="black" />
  <rect x="28" y="46" width="2" height="2" fill="black" />
  <rect x="28" y="50" width="2" height="2" fill="black" />


  <!-- Column 2 (offset by one white pixel vertically) -->
  <rect x="32" y="16" width="2" height="2" fill="black" />
  <rect x="32" y="20" width="2" height="2" fill="black" />
  <rect x="32" y="24" width="2" height="2" fill="black" />
  <rect x="32" y="28" width="2" height="2" fill="black" />
  <rect x="32" y="32" width="2" height="2" fill="black" />
  <rect x="32" y="36" width="2" height="2" fill="black" />
  <rect x="32" y="40" width="2" height="2" fill="black" />
  <rect x="32" y="44" width="2" height="2" fill="black" />
  <rect x="32" y="48" width="2" height="2" fill="black" />
  <rect x="32" y="52" width="2" height="2" fill="black" />

  <!-- Column 3 -->
  <rect x="36" y="18" width="2" height="2" fill="black" />
  <rect x="36" y="22" width="2" height="2" fill="black" />
  <rect x="36" y="26" width="2" height="2" fill="black" />
  <rect x="36" y="30" width="2" height="2" fill="black" />
  <rect x="36" y="34" width="2" height="2" fill="black" />
  <rect x="36" y="38" width="2" height="2" fill="black" />
  <rect x="36" y="42" width="2" height="2" fill="black" />
  <rect x="36" y="46" width="2" height="2" fill="black" />
  <rect x="36" y="50" width="2" height="2" fill="black" />

  <!-- Column 4 (offset by one white pixel vertically) -->
  <rect x="40" y="16" width="2" height="2" fill="black" />
  <rect x="40" y="20" width="2" height="2" fill="black" />
  <rect x="40" y="24" width="2" height="2" fill="black" />
  <rect x="40" y="28" width="2" height="2" fill="black" />
  <rect x="40" y="32" width="2" height="2" fill="black" />
  <rect x="40" y="36" width="2" height="2" fill="black" />
  <rect x="40" y="40" width="2" height="2" fill="black" />
  <rect x="40" y="44" width="2" height="2" fill="black" />
  <rect x="40" y="48" width="2" height="2" fill="black" />
  <rect x="40" y="52" width="2" height="2" fill="black" />
  
  <!-- Column 5 -->
  <rect x="44" y="18" width="2" height="2" fill="black" />
  <rect x="44" y="22" width="2" height="2" fill="black" />
  <rect x="44" y="26" width="2" height="2" fill="black" />
  <rect x="44" y="30" width="2" height="2" fill="black" />
  <rect x="44" y="34" width="2" height="2" fill="black" />
  <rect x="44" y="38" width="2" height="2" fill="black" />
  <rect x="44" y="42" width="2" height="2" fill="black" />
  <rect x="44" y="46" width="2" height="2" fill="black" />
  <rect x="44" y="50" width="2" height="2" fill="black" />

  <!-- Column 6 (offset by one white pixel vertically) -->
  <rect x="48" y="16" width="2" height="2" fill="black" />
  <rect x="48" y="20" width="2" height="2" fill="black" />
  <rect x="48" y="24" width="2" height="2" fill="black" />
  <rect x="48" y="28" width="2" height="2" fill="black" />
  <rect x="48" y="32" width="2" height="2" fill="black" />
  <rect x="48" y="36" width="2" height="2" fill="black" />
  <rect x="48" y="40" width="2" height="2" fill="black" />
  <rect x="48" y="44" width="2" height="2" fill="black" />
  <rect x="48" y="48" width="2" height="2" fill="black" />
  <rect x="48" y="52" width="2" height="2" fill="black" />

  <!-- Column 7 -->
  <rect x="52" y="18" width="2" height="2" fill="black" />
  <rect x="52" y="22" width="2" height="2" fill="black" />
  <rect x="52" y="26" width="2" height="2" fill="black" />
  <rect x="52" y="30" width="2" height="2" fill="black" />
  <rect x="52" y="34" width="2" height="2" fill="black" />
  <rect x="52" y="38" width="2" height="2" fill="black" />
  <rect x="52" y="42" width="2" height="2" fill="black" />
  <rect x="52" y="46" width="2" height="2" fill="black" />
  <rect x="52" y="50" width="2" height="2" fill="black" />

  <rect x="56" y="16" width="2" height="2" fill="black" />
  <rect x="56" y="20" width="2" height="2" fill="black" />
  <rect x="56" y="24" width="2" height="2" fill="black" />
  <rect x="56" y="28" width="2" height="2" fill="black" />
  <rect x="56" y="32" width="2" height="2" fill="black" />
  <rect x="56" y="36" width="2" height="2" fill="black" />
  <rect x="56" y="40" width="2" height="2" fill="black" />
  <rect x="56" y="44" width="2" height="2" fill="black" />
  <rect x="56" y="48" width="2" height="2" fill="black" />
  <rect x="56" y="52" width="2" height="2" fill="black" />

  <rect x="60" y="18" width="2" height="2" fill="black" />
  <rect x="60" y="22" width="2" height="2" fill="black" />
  <rect x="60" y="26" width="2" height="2" fill="black" />
  <rect x="60" y="30" width="2" height="2" fill="black" />
  <rect x="60" y="34" width="2" height="2" fill="black" />
  <rect x="60" y="38" width="2" height="2" fill="black" />
  <rect x="60" y="42" width="2" height="2" fill="black" />
  <rect x="60" y="46" width="2" height="2" fill="black" />
  <rect x="60" y="50" width="2" height="2" fill="black" />

</svg>
