<svg width="128" height="129" viewBox="0 0 128 129" fill="none" xmlns="http://www.w3.org/2000/svg">
<path d="M14 10.5H18V14.5H14V10.5Z" fill="#212121"/>
<path d="M10 14.5H14V18.5H10V14.5Z" fill="#212121"/>
<path d="M10 18.5H14V22.5H10V18.5Z" fill="#212121"/>
<path d="M10 22.5H14V26.5H10V22.5Z" fill="#212121"/>
<path d="M10 26.5H14V30.5H10V26.5Z" fill="#212121"/>
<path d="M10 30.5H14V34.5H10V30.5Z" fill="#212121"/>
<path d="M10 34.5H14V38.5H10V34.5Z" fill="#212121"/>
<path d="M10 38.5H14V42.5H10V38.5Z" fill="#212121"/>
<path d="M10 42.5H14V46.5H10V42.5Z" fill="#212121"/>
<path d="M10 46.5H14V50.5H10V46.5Z" fill="#212121"/>
<path d="M10 50.5H14V54.5H10V50.5Z" fill="#212121"/>
<path d="M10 54.5H14V58.5H10V54.5Z" fill="#212121"/>
<path d="M10 58.5H14V62.5H10V58.5Z" fill="#212121"/>
<path d="M10 62.5H14V66.5H10V62.5Z" fill="#212121"/>
<path d="M10 66.5H14V70.5H10V66.5Z" fill="#212121"/>
<path d="M10 70.5H14V74.5H10V70.5Z" fill="#212121"/>
<path d="M10 74.5H14V78.5H10V74.5Z" fill="#212121"/>
<path d="M10 78.5H14V82.5H10V78.5Z" fill="#212121"/>
<path d="M10 82.5H14V86.5H10V82.5Z" fill="#212121"/>
<path d="M10 86.5H14V90.5H10V86.5Z" fill="#212121"/>
<path d="M10 90.5H14V94.5H10V90.5Z" fill="#212121"/>
<path d="M10 94.5H14V98.5H10V94.5Z" fill="#212121"/>
<path d="M10 98.5H14V102.5H10V98.5Z" fill="#212121"/>
<path d="M10 102.5H14V106.5H10V102.5Z" fill="#212121"/>
<path d="M10 106.5H14V110.5H10V106.5Z" fill="#212121"/>
<path d="M10 110.5H14V114.5H10V110.5Z" fill="#212121"/>
<path d="M14 114.5H18V118.5H14V114.5Z" fill="#212121"/>
<path d="M18 114.5H22V118.5H18V114.5Z" fill="#212121"/>
<path d="M22 114.5H26V118.5H22V114.5Z" fill="#212121"/>
<path d="M26 114.5H30V118.5H26V114.5Z" fill="#212121"/>
<path d="M30 114.5H34V118.5H30V114.5Z" fill="#212121"/>
<path d="M34 114.5H38V118.5H34V114.5Z" fill="#212121"/>
<path d="M38 114.5H42V118.5H38V114.5Z" fill="#212121"/>
<path d="M42 114.5H46V118.5H42V114.5Z" fill="#212121"/>
<path d="M46 114.5H50V118.5H46V114.5Z" fill="#212121"/>
<path d="M50 114.5H54V118.5H50V114.5Z" fill="#212121"/>
<path d="M54 114.5H58V118.5H54V114.5Z" fill="#212121"/>
<path d="M58 114.5H62V118.5H58V114.5Z" fill="#212121"/>
<path d="M62 114.5H66V118.5H62V114.5Z" fill="#212121"/>
<path d="M66 114.5H70V118.5H66V114.5Z" fill="#212121"/>
<path d="M70 114.5H74V118.5H70V114.5Z" fill="#212121"/>
<path d="M74 114.5H78V118.5H74V114.5Z" fill="#212121"/>
<path d="M78 114.5H82V118.5H78V114.5Z" fill="#212121"/>
<path d="M82 114.5H86V118.5H82V114.5Z" fill="#212121"/>
<path d="M86 114.5H90V118.5H86V114.5Z" fill="#212121"/>
<path d="M90 114.5H94V118.5H90V114.5Z" fill="#212121"/>
<path d="M94 114.5H98V118.5H94V114.5Z" fill="#212121"/>
<path d="M98 114.5H102V118.5H98V114.5Z" fill="#212121"/>
<path d="M102 114.5H106V118.5H102V114.5Z" fill="#212121"/>
<path d="M106 114.5H110V118.5H106V114.5Z" fill="#212121"/>
<path d="M110 114.5H114V118.5H110V114.5Z" fill="#212121"/>
<path d="M114 110.5H118V114.5H114V110.5Z" fill="#212121"/>
<path d="M114 106.5H118V110.5H114V106.5Z" fill="#212121"/>
<path d="M114 102.5H118V106.5H114V102.5Z" fill="#212121"/>
<path d="M114 98.5H118V102.5H114V98.5Z" fill="#212121"/>
<path d="M114 94.5H118V98.5H114V94.5Z" fill="#212121"/>
<path d="M114 90.5H118V94.5H114V90.5Z" fill="#212121"/>
<path d="M114 86.5H118V90.5H114V86.5Z" fill="#212121"/>
<path d="M114 82.5H118V86.5H114V82.5Z" fill="#212121"/>
<path d="M114 78.5H118V82.5H114V78.5Z" fill="#212121"/>
<path d="M114 74.5H118V78.5H114V74.5Z" fill="#212121"/>
<path d="M114 70.5H118V74.5H114V70.5Z" fill="#212121"/>
<path d="M114 66.5H118V70.5H114V66.5Z" fill="#212121"/>
<path d="M114 62.5H118V66.5H114V62.5Z" fill="#212121"/>
<path d="M114 58.5H118V62.5H114V58.5Z" fill="#212121"/>
<path d="M114 54.5H118V58.5H114V54.5Z" fill="#212121"/>
<path d="M114 50.5H118V54.5H114V50.5Z" fill="#212121"/>
<path d="M114 46.5H118V50.5H114V46.5Z" fill="#212121"/>
<path d="M114 42.5H118V46.5H114V42.5Z" fill="#212121"/>
<path d="M114 38.5H118V42.5H114V38.5Z" fill="#212121"/>
<path d="M114 34.5H118V38.5H114V34.5Z" fill="#212121"/>
<path d="M114 30.5H118V34.5H114V30.5Z" fill="#212121"/>
<path d="M114 26.5H118V30.5H114V26.5Z" fill="#212121"/>
<path d="M114 22.5H118V26.5H114V22.5Z" fill="#212121"/>
<path d="M110 18.5H114V22.5H110V18.5Z" fill="#212121"/>
<path d="M106 14.5H110V18.5H106V14.5Z" fill="#212121"/>
<path d="M102 10.5H106V14.5H102V10.5Z" fill="#212121"/>
<path d="M98 10.5H102V14.5H98V10.5Z" fill="#212121"/>
<path d="M94 10.5H98V14.5H94V10.5Z" fill="#212121"/>
<path d="M90 10.5H94V14.5H90V10.5Z" fill="#212121"/>
<path d="M86 10.5H90V14.5H86V10.5Z" fill="#212121"/>
<path d="M82 10.5H86V14.5H82V10.5Z" fill="#212121"/>
<path d="M78 10.5H82V14.5H78V10.5Z" fill="#212121"/>
<path d="M74 10.5H78V14.5H74V10.5Z" fill="#212121"/>
<path d="M70 10.5H74V14.5H70V10.5Z" fill="#212121"/>
<path d="M66 10.5H70V14.5H66V10.5Z" fill="#212121"/>
<path d="M62 10.5H66V14.5H62V10.5Z" fill="#212121"/>
<path d="M58 10.5H62V14.5H58V10.5Z" fill="#212121"/>
<path d="M54 10.5H58V14.5H54V10.5Z" fill="#212121"/>
<path d="M50 10.5H54V14.5H50V10.5Z" fill="#212121"/>
<path d="M46 10.5H50V14.5H46V10.5Z" fill="#212121"/>
<path d="M42 10.5H46V14.5H42V10.5Z" fill="#212121"/>
<path d="M38 10.5H42V14.5H38V10.5Z" fill="#212121"/>
<path d="M34 10.5H38V14.5H34V10.5Z" fill="#212121"/>
<path d="M34 14.5H38V18.5H34V14.5Z" fill="#212121"/>
<path d="M34 18.5H38V22.5H34V18.5Z" fill="#212121"/>
<path d="M34 22.5H38V26.5H34V22.5Z" fill="#212121"/>
<path d="M34 26.5H38V30.5H34V26.5Z" fill="#212121"/>
<path d="M34 30.5H38V34.5H34V30.5Z" fill="#212121"/>
<path d="M34 34.5H38V38.5H34V34.5Z" fill="#212121"/>
<path d="M34 38.5H38V42.5H34V38.5Z" fill="#212121"/>
<path d="M34 42.5H38V46.5H34V42.5Z" fill="#212121"/>
<path d="M38 46.5H42V50.5H38V46.5Z" fill="#212121"/>
<path d="M30 62.5H34V66.5H30V62.5Z" fill="#212121"/>
<path d="M34 62.5H38V66.5H34V62.5Z" fill="#212121"/>
<path d="M38 62.5H42V66.5H38V62.5Z" fill="#212121"/>
<path d="M42 62.5H46V66.5H42V62.5Z" fill="#212121"/>
<path d="M46 62.5H50V66.5H46V62.5Z" fill="#212121"/>
<path d="M50 62.5H54V66.5H50V62.5Z" fill="#212121"/>
<path d="M54 62.5H58V66.5H54V62.5Z" fill="#212121"/>
<path d="M58 62.5H62V66.5H58V62.5Z" fill="#212121"/>
<path d="M62 62.5H66V66.5H62V62.5Z" fill="#212121"/>
<path d="M66 62.5H70V66.5H66V62.5Z" fill="#212121"/>
<path d="M70 62.5H74V66.5H70V62.5Z" fill="#212121"/>
<path d="M74 62.5H78V66.5H74V62.5Z" fill="#212121"/>
<path d="M78 62.5H82V66.5H78V62.5Z" fill="#212121"/>
<path d="M82 62.5H86V66.5H82V62.5Z" fill="#212121"/>
<path d="M86 62.5H90V66.5H86V62.5Z" fill="#212121"/>
<path d="M90 62.5H94V66.5H90V62.5Z" fill="#212121"/>
<path d="M94 62.5H98V66.5H94V62.5Z" fill="#212121"/>
<path d="M98 66.5H102V70.5H98V66.5Z" fill="#212121"/>
<path d="M98 70.5H102V74.5H98V70.5Z" fill="#212121"/>
<path d="M98 74.5H102V78.5H98V74.5Z" fill="#212121"/>
<path d="M98 78.5H102V82.5H98V78.5Z" fill="#212121"/>
<path d="M98 82.5H102V86.5H98V82.5Z" fill="#212121"/>
<path d="M98 86.5H102V90.5H98V86.5Z" fill="#212121"/>
<path d="M98 90.5H102V94.5H98V90.5Z" fill="#212121"/>
<path d="M98 94.5H102V98.5H98V94.5Z" fill="#212121"/>
<path d="M98 98.5H102V102.5H98V98.5Z" fill="#212121"/>
<path d="M98 102.5H102V106.5H98V102.5Z" fill="#212121"/>
<path d="M98 106.5H102V110.5H98V106.5Z" fill="#212121"/>
<path d="M98 110.5H102V114.5H98V110.5Z" fill="#212121"/>
<path d="M26 66.5H30V70.5H26V66.5Z" fill="#212121"/>
<path d="M26 70.5H30V74.5H26V70.5Z" fill="#212121"/>
<path d="M26 74.5H30V78.5H26V74.5Z" fill="#212121"/>
<path d="M26 78.5H30V82.5H26V78.5Z" fill="#212121"/>
<path d="M26 82.5H30V86.5H26V82.5Z" fill="#212121"/>
<path d="M26 86.5H30V90.5H26V86.5Z" fill="#212121"/>
<path d="M26 90.5H30V94.5H26V90.5Z" fill="#212121"/>
<path d="M26 94.5H30V98.5H26V94.5Z" fill="#212121"/>
<path d="M26 98.5H30V102.5H26V98.5Z" fill="#212121"/>
<path d="M26 102.5H30V106.5H26V102.5Z" fill="#212121"/>
<path d="M26 106.5H30V110.5H26V106.5Z" fill="#212121"/>
<path d="M26 110.5H30V114.5H26V110.5Z" fill="#212121"/>
<path d="M42 46.5H46V50.5H42V46.5Z" fill="#212121"/>
<path d="M46 46.5H50V50.5H46V46.5Z" fill="#212121"/>
<path d="M50 46.5H54V50.5H50V46.5Z" fill="#212121"/>
<path d="M54 46.5H58V50.5H54V46.5Z" fill="#212121"/>
<path d="M58 46.5H62V50.5H58V46.5Z" fill="#212121"/>
<path d="M62 46.5H66V50.5H62V46.5Z" fill="#212121"/>
<path d="M66 46.5H70V50.5H66V46.5Z" fill="#212121"/>
<path d="M70 46.5H74V50.5H70V46.5Z" fill="#212121"/>
<path d="M74 46.5H78V50.5H74V46.5Z" fill="#212121"/>
<path d="M78 46.5H82V50.5H78V46.5Z" fill="#212121"/>
<path d="M82 46.5H86V50.5H82V46.5Z" fill="#212121"/>
<path d="M86 46.5H90V50.5H86V46.5Z" fill="#212121"/>
<path d="M90 42.5H94V46.5H90V42.5Z" fill="#212121"/>
<path d="M90 38.5H94V42.5H90V38.5Z" fill="#212121"/>
<path d="M90 34.5H94V38.5H90V34.5Z" fill="#212121"/>
<path d="M90 30.5H94V34.5H90V30.5Z" fill="#212121"/>
<path d="M90 26.5H94V30.5H90V26.5Z" fill="#212121"/>
<path d="M90 22.5H94V26.5H90V22.5Z" fill="#212121"/>
<path d="M90 18.5H94V22.5H90V18.5Z" fill="#212121"/>
<path d="M78 22.5H82V26.5H78V22.5Z" fill="#212121"/>
<path d="M78 26.5H82V30.5H78V26.5Z" fill="#212121"/>
<path d="M78 30.5H82V34.5H78V30.5Z" fill="#212121"/>
<path d="M78 34.5H82V38.5H78V34.5Z" fill="#212121"/>
<path d="M74 38.5H78V42.5H74V38.5Z" fill="#212121"/>
<path d="M74 18.5H78V22.5H74V18.5Z" fill="#212121"/>
<path d="M70 18.5H74V22.5H70V18.5Z" fill="#212121"/>
<path d="M62 22.5H66V26.5H62V22.5Z" fill="#212121"/>
<path d="M66 18.5H70V22.5H66V18.5Z" fill="#212121"/>
<path d="M62 26.5H66V30.5H62V26.5Z" fill="#212121"/>
<path d="M62 30.5H66V34.5H62V30.5Z" fill="#212121"/>
<path d="M62 34.5H66V38.5H62V34.5Z" fill="#212121"/>
<path d="M66 38.5H70V42.5H66V38.5Z" fill="#212121"/>
<path d="M70 38.5H74V42.5H70V38.5Z" fill="#212121"/>
<path d="M90 14.5H94V18.5H90V14.5Z" fill="#212121"/>
<path d="M30 10.5H34V14.5H30V10.5Z" fill="#212121"/>
<path d="M26 10.5H30V14.5H26V10.5Z" fill="#212121"/>
<path d="M22 10.5H26V14.5H22V10.5Z" fill="#212121"/>
<path d="M18 10.5H22V14.5H18V10.5Z" fill="#212121"/>
</svg>
