<svg width="768" height="704" viewBox="0 0 768 704" fill="none" xmlns="http://www.w3.org/2000/svg">
<rect x="48" width="669" height="27" fill="black"/>
<rect x="24" y="27" width="719" height="650" fill="white"/>
<rect x="128" y="128" width="32" height="32" fill="black"/>
<rect x="160" y="160" width="32" height="32" fill="black"/>
<rect x="192" y="192" width="32" height="32" fill="black"/>
<rect x="160" y="224" width="32" height="32" fill="black"/>
<rect x="128" y="256" width="32" height="32" fill="black"/>
<rect x="24" y="27" width="24" height="27" fill="black"/>
<rect x="717" y="27" width="26" height="27" fill="black"/>
<rect x="717" y="650" width="26" height="27" fill="black"/>
<rect x="24" y="650" width="24" height="27" fill="black"/>
<rect x="256" y="256" width="144" height="32" fill="black"/>
<rect x="48" y="677" width="669" height="27" fill="black"/>
<rect x="743" y="650" width="596" height="25" transform="rotate(-90 743 650)" fill="black"/>
<rect y="650" width="596" height="23" transform="rotate(-90 0 650)" fill="black"/>
</svg>
