<svg width="128" height="129" viewBox="0 0 128 129" fill="none" xmlns="http://www.w3.org/2000/svg">
<path d="M22 8.5H26V12.5H22V8.5Z" fill="#212121"/>
<path d="M102 8.5H106V12.5H102V8.5Z" fill="#212121"/>
<path d="M98 8.5H102V12.5H98V8.5Z" fill="#212121"/>
<path d="M94 8.5H98V12.5H94V8.5Z" fill="#212121"/>
<path d="M90 8.5H94V12.5H90V8.5Z" fill="#212121"/>
<path d="M86 8.5H90V12.5H86V8.5Z" fill="#212121"/>
<path d="M82 8.5H86V12.5H82V8.5Z" fill="#212121"/>
<path d="M78 8.5H82V12.5H78V8.5Z" fill="#212121"/>
<path d="M74 8.5H78V12.5H74V8.5Z" fill="#212121"/>
<path d="M70 8.5H74V12.5H70V8.5Z" fill="#212121"/>
<path d="M66 8.5H70V12.5H66V8.5Z" fill="#212121"/>
<path d="M62 8.5H66V12.5H62V8.5Z" fill="#212121"/>
<path d="M58 8.5H62V12.5H58V8.5Z" fill="#212121"/>
<path d="M54 8.5H58V12.5H54V8.5Z" fill="#212121"/>
<path d="M50 8.5H54V12.5H50V8.5Z" fill="#212121"/>
<path d="M50 4.5H54V8.5H50V4.5Z" fill="#212121"/>
<path d="M74 4.5H78V8.5H74V4.5Z" fill="#212121"/>
<path d="M70 0.5H74V4.5H70V0.5Z" fill="#212121"/>
<path d="M66 0.5H70V4.5H66V0.5Z" fill="#212121"/>
<path d="M62 0.5H66V4.5H62V0.5Z" fill="#212121"/>
<path d="M58 0.5H62V4.5H58V0.5Z" fill="#212121"/>
<path d="M54 0.5H58V4.5H54V0.5Z" fill="#212121"/>
<path d="M46 8.5H50V12.5H46V8.5Z" fill="#212121"/>
<path d="M42 8.5H46V12.5H42V8.5Z" fill="#212121"/>
<path d="M38 8.5H42V12.5H38V8.5Z" fill="#212121"/>
<path d="M34 8.5H38V12.5H34V8.5Z" fill="#212121"/>
<path d="M30 8.5H34V12.5H30V8.5Z" fill="#212121"/>
<path d="M26 8.5H30V12.5H26V8.5Z" fill="#212121"/>
<path d="M18 12.5H22V16.5H18V12.5Z" fill="#212121"/>
<path d="M18 16.5H22V20.5H18V16.5Z" fill="#212121"/>
<path d="M18 20.5H22V24.5H18V20.5Z" fill="#212121"/>
<path d="M22 20.5H26V24.5H22V20.5Z" fill="#212121"/>
<path d="M22 24.5H26V28.5H22V24.5Z" fill="#212121"/>
<path d="M22 28.5H26V32.5H22V28.5Z" fill="#212121"/>
<path d="M22 32.5H26V36.5H22V32.5Z" fill="#212121"/>
<path d="M22 36.5H26V40.5H22V36.5Z" fill="#212121"/>
<path d="M22 40.5H26V44.5H22V40.5Z" fill="#212121"/>
<path d="M22 44.5H26V48.5H22V44.5Z" fill="#212121"/>
<path d="M22 48.5H26V52.5H22V48.5Z" fill="#212121"/>
<path d="M22 52.5H26V56.5H22V52.5Z" fill="#212121"/>
<path d="M22 56.5H26V60.5H22V56.5Z" fill="#212121"/>
<path d="M22 60.5H26V64.5H22V60.5Z" fill="#212121"/>
<path d="M22 64.5H26V68.5H22V64.5Z" fill="#212121"/>
<path d="M22 68.5H26V72.5H22V68.5Z" fill="#212121"/>
<path d="M22 72.5H26V76.5H22V72.5Z" fill="#212121"/>
<path d="M22 76.5H26V80.5H22V76.5Z" fill="#212121"/>
<path d="M22 80.5H26V84.5H22V80.5Z" fill="#212121"/>
<path d="M22 84.5H26V88.5H22V84.5Z" fill="#212121"/>
<path d="M22 88.5H26V92.5H22V88.5Z" fill="#212121"/>
<path d="M22 92.5H26V96.5H22V92.5Z" fill="#212121"/>
<path d="M22 96.5H26V100.5H22V96.5Z" fill="#212121"/>
<path d="M22 100.5H26V104.5H22V100.5Z" fill="#212121"/>
<path d="M22 104.5H26V108.5H22V104.5Z" fill="#212121"/>
<path d="M22 108.5H26V112.5H22V108.5Z" fill="#212121"/>
<path d="M22 112.5H26V116.5H22V112.5Z" fill="#212121"/>
<path d="M22 116.5H26V120.5H22V116.5Z" fill="#212121"/>
<path d="M22 120.5H26V124.5H22V120.5Z" fill="#212121"/>
<path d="M26 124.5H30V128.5H26V124.5Z" fill="#212121"/>
<path d="M30 124.5H34V128.5H30V124.5Z" fill="#212121"/>
<path d="M34 124.5H38V128.5H34V124.5Z" fill="#212121"/>
<path d="M38 124.5H42V128.5H38V124.5Z" fill="#212121"/>
<path d="M42 124.5H46V128.5H42V124.5Z" fill="#212121"/>
<path d="M46 124.5H50V128.5H46V124.5Z" fill="#212121"/>
<path d="M50 124.5H54V128.5H50V124.5Z" fill="#212121"/>
<path d="M54 124.5H58V128.5H54V124.5Z" fill="#212121"/>
<path d="M58 124.5H62V128.5H58V124.5Z" fill="#212121"/>
<path d="M62 124.5H66V128.5H62V124.5Z" fill="#212121"/>
<path d="M66 124.5H70V128.5H66V124.5Z" fill="#212121"/>
<path d="M70 124.5H74V128.5H70V124.5Z" fill="#212121"/>
<path d="M74 124.5H78V128.5H74V124.5Z" fill="#212121"/>
<path d="M78 124.5H82V128.5H78V124.5Z" fill="#212121"/>
<path d="M82 124.5H86V128.5H82V124.5Z" fill="#212121"/>
<path d="M86 124.5H90V128.5H86V124.5Z" fill="#212121"/>
<path d="M90 124.5H94V128.5H90V124.5Z" fill="#212121"/>
<path d="M94 124.5H98V128.5H94V124.5Z" fill="#212121"/>
<path d="M98 124.5H102V128.5H98V124.5Z" fill="#212121"/>
<path d="M26 20.5H30V24.5H26V20.5Z" fill="#212121"/>
<path d="M30 20.5H34V24.5H30V20.5Z" fill="#212121"/>
<path d="M34 20.5H38V24.5H34V20.5Z" fill="#212121"/>
<path d="M38 20.5H42V24.5H38V20.5Z" fill="#212121"/>
<path d="M42 20.5H46V24.5H42V20.5Z" fill="#212121"/>
<path d="M42 32.5H46V36.5H42V32.5Z" fill="#212121"/>
<path d="M38 36.5H42V40.5H38V36.5Z" fill="#212121"/>
<path d="M38 40.5H42V44.5H38V40.5Z" fill="#212121"/>
<path d="M38 44.5H42V48.5H38V44.5Z" fill="#212121"/>
<path d="M38 48.5H42V52.5H38V48.5Z" fill="#212121"/>
<path d="M38 52.5H42V56.5H38V52.5Z" fill="#212121"/>
<path d="M38 56.5H42V60.5H38V56.5Z" fill="#212121"/>
<path d="M38 60.5H42V64.5H38V60.5Z" fill="#212121"/>
<path d="M38 64.5H42V68.5H38V64.5Z" fill="#212121"/>
<path d="M38 68.5H42V72.5H38V68.5Z" fill="#212121"/>
<path d="M38 72.5H42V76.5H38V72.5Z" fill="#212121"/>
<path d="M38 76.5H42V80.5H38V76.5Z" fill="#212121"/>
<path d="M38 80.5H42V84.5H38V80.5Z" fill="#212121"/>
<path d="M38 84.5H42V88.5H38V84.5Z" fill="#212121"/>
<path d="M38 88.5H42V92.5H38V88.5Z" fill="#212121"/>
<path d="M38 92.5H42V96.5H38V92.5Z" fill="#212121"/>
<path d="M38 96.5H42V100.5H38V96.5Z" fill="#212121"/>
<path d="M38 100.5H42V104.5H38V100.5Z" fill="#212121"/>
<path d="M38 104.5H42V108.5H38V104.5Z" fill="#212121"/>
<path d="M38 108.5H42V112.5H38V108.5Z" fill="#212121"/>
<path d="M42 112.5H46V116.5H42V112.5Z" fill="#212121"/>
<path d="M58 32.5H62V36.5H58V32.5Z" fill="#212121"/>
<path d="M54 36.5H58V40.5H54V36.5Z" fill="#212121"/>
<path d="M54 40.5H58V44.5H54V40.5Z" fill="#212121"/>
<path d="M54 44.5H58V48.5H54V44.5Z" fill="#212121"/>
<path d="M54 48.5H58V52.5H54V48.5Z" fill="#212121"/>
<path d="M54 52.5H58V56.5H54V52.5Z" fill="#212121"/>
<path d="M54 56.5H58V60.5H54V56.5Z" fill="#212121"/>
<path d="M54 60.5H58V64.5H54V60.5Z" fill="#212121"/>
<path d="M54 64.5H58V68.5H54V64.5Z" fill="#212121"/>
<path d="M54 68.5H58V72.5H54V68.5Z" fill="#212121"/>
<path d="M54 72.5H58V76.5H54V72.5Z" fill="#212121"/>
<path d="M54 76.5H58V80.5H54V76.5Z" fill="#212121"/>
<path d="M54 80.5H58V84.5H54V80.5Z" fill="#212121"/>
<path d="M54 84.5H58V88.5H54V84.5Z" fill="#212121"/>
<path d="M54 88.5H58V92.5H54V88.5Z" fill="#212121"/>
<path d="M54 92.5H58V96.5H54V92.5Z" fill="#212121"/>
<path d="M54 96.5H58V100.5H54V96.5Z" fill="#212121"/>
<path d="M54 100.5H58V104.5H54V100.5Z" fill="#212121"/>
<path d="M54 104.5H58V108.5H54V104.5Z" fill="#212121"/>
<path d="M54 108.5H58V112.5H54V108.5Z" fill="#212121"/>
<path d="M58 112.5H62V116.5H58V112.5Z" fill="#212121"/>
<path d="M74 32.5H78V36.5H74V32.5Z" fill="#212121"/>
<path d="M70 36.5H74V40.5H70V36.5Z" fill="#212121"/>
<path d="M70 40.5H74V44.5H70V40.5Z" fill="#212121"/>
<path d="M70 44.5H74V48.5H70V44.5Z" fill="#212121"/>
<path d="M70 48.5H74V52.5H70V48.5Z" fill="#212121"/>
<path d="M70 52.5H74V56.5H70V52.5Z" fill="#212121"/>
<path d="M70 56.5H74V60.5H70V56.5Z" fill="#212121"/>
<path d="M70 60.5H74V64.5H70V60.5Z" fill="#212121"/>
<path d="M70 64.5H74V68.5H70V64.5Z" fill="#212121"/>
<path d="M70 68.5H74V72.5H70V68.5Z" fill="#212121"/>
<path d="M70 72.5H74V76.5H70V72.5Z" fill="#212121"/>
<path d="M70 76.5H74V80.5H70V76.5Z" fill="#212121"/>
<path d="M70 80.5H74V84.5H70V80.5Z" fill="#212121"/>
<path d="M70 84.5H74V88.5H70V84.5Z" fill="#212121"/>
<path d="M70 88.5H74V92.5H70V88.5Z" fill="#212121"/>
<path d="M70 92.5H74V96.5H70V92.5Z" fill="#212121"/>
<path d="M70 96.5H74V100.5H70V96.5Z" fill="#212121"/>
<path d="M70 100.5H74V104.5H70V100.5Z" fill="#212121"/>
<path d="M70 104.5H74V108.5H70V104.5Z" fill="#212121"/>
<path d="M70 108.5H74V112.5H70V108.5Z" fill="#212121"/>
<path d="M74 112.5H78V116.5H74V112.5Z" fill="#212121"/>
<path d="M90 32.5H94V36.5H90V32.5Z" fill="#212121"/>
<path d="M86 36.5H90V40.5H86V36.5Z" fill="#212121"/>
<path d="M86 40.5H90V44.5H86V40.5Z" fill="#212121"/>
<path d="M86 44.5H90V48.5H86V44.5Z" fill="#212121"/>
<path d="M86 48.5H90V52.5H86V48.5Z" fill="#212121"/>
<path d="M86 52.5H90V56.5H86V52.5Z" fill="#212121"/>
<path d="M86 56.5H90V60.5H86V56.5Z" fill="#212121"/>
<path d="M86 60.5H90V64.5H86V60.5Z" fill="#212121"/>
<path d="M86 64.5H90V68.5H86V64.5Z" fill="#212121"/>
<path d="M86 68.5H90V72.5H86V68.5Z" fill="#212121"/>
<path d="M86 72.5H90V76.5H86V72.5Z" fill="#212121"/>
<path d="M86 76.5H90V80.5H86V76.5Z" fill="#212121"/>
<path d="M86 80.5H90V84.5H86V80.5Z" fill="#212121"/>
<path d="M86 84.5H90V88.5H86V84.5Z" fill="#212121"/>
<path d="M86 88.5H90V92.5H86V88.5Z" fill="#212121"/>
<path d="M86 92.5H90V96.5H86V92.5Z" fill="#212121"/>
<path d="M86 96.5H90V100.5H86V96.5Z" fill="#212121"/>
<path d="M86 100.5H90V104.5H86V100.5Z" fill="#212121"/>
<path d="M86 104.5H90V108.5H86V104.5Z" fill="#212121"/>
<path d="M86 108.5H90V112.5H86V108.5Z" fill="#212121"/>
<path d="M90 112.5H94V116.5H90V112.5Z" fill="#212121"/>
<path d="M46 20.5H50V24.5H46V20.5Z" fill="#212121"/>
<path d="M50 20.5H54V24.5H50V20.5Z" fill="#212121"/>
<path d="M54 20.5H58V24.5H54V20.5Z" fill="#212121"/>
<path d="M58 20.5H62V24.5H58V20.5Z" fill="#212121"/>
<path d="M62 20.5H66V24.5H62V20.5Z" fill="#212121"/>
<path d="M66 20.5H70V24.5H66V20.5Z" fill="#212121"/>
<path d="M70 20.5H74V24.5H70V20.5Z" fill="#212121"/>
<path d="M74 20.5H78V24.5H74V20.5Z" fill="#212121"/>
<path d="M78 20.5H82V24.5H78V20.5Z" fill="#212121"/>
<path d="M82 20.5H86V24.5H82V20.5Z" fill="#212121"/>
<path d="M86 20.5H90V24.5H86V20.5Z" fill="#212121"/>
<path d="M90 20.5H94V24.5H90V20.5Z" fill="#212121"/>
<path d="M94 20.5H98V24.5H94V20.5Z" fill="#212121"/>
<path d="M98 20.5H102V24.5H98V20.5Z" fill="#212121"/>
<path d="M102 20.5H106V24.5H102V20.5Z" fill="#212121"/>
<path d="M102 24.5H106V28.5H102V24.5Z" fill="#212121"/>
<path d="M102 28.5H106V32.5H102V28.5Z" fill="#212121"/>
<path d="M102 32.5H106V36.5H102V32.5Z" fill="#212121"/>
<path d="M102 36.5H106V40.5H102V36.5Z" fill="#212121"/>
<path d="M102 40.5H106V44.5H102V40.5Z" fill="#212121"/>
<path d="M102 44.5H106V48.5H102V44.5Z" fill="#212121"/>
<path d="M102 48.5H106V52.5H102V48.5Z" fill="#212121"/>
<path d="M102 52.5H106V56.5H102V52.5Z" fill="#212121"/>
<path d="M102 56.5H106V60.5H102V56.5Z" fill="#212121"/>
<path d="M102 60.5H106V64.5H102V60.5Z" fill="#212121"/>
<path d="M102 64.5H106V68.5H102V64.5Z" fill="#212121"/>
<path d="M102 68.5H106V72.5H102V68.5Z" fill="#212121"/>
<path d="M102 72.5H106V76.5H102V72.5Z" fill="#212121"/>
<path d="M102 76.5H106V80.5H102V76.5Z" fill="#212121"/>
<path d="M102 80.5H106V84.5H102V80.5Z" fill="#212121"/>
<path d="M102 84.5H106V88.5H102V84.5Z" fill="#212121"/>
<path d="M102 88.5H106V92.5H102V88.5Z" fill="#212121"/>
<path d="M102 92.5H106V96.5H102V92.5Z" fill="#212121"/>
<path d="M102 96.5H106V100.5H102V96.5Z" fill="#212121"/>
<path d="M102 100.5H106V104.5H102V100.5Z" fill="#212121"/>
<path d="M102 104.5H106V108.5H102V104.5Z" fill="#212121"/>
<path d="M102 108.5H106V112.5H102V108.5Z" fill="#212121"/>
<path d="M102 112.5H106V116.5H102V112.5Z" fill="#212121"/>
<path d="M102 116.5H106V120.5H102V116.5Z" fill="#212121"/>
<path d="M102 120.5H106V124.5H102V120.5Z" fill="#212121"/>
<path d="M106 20.5H110V24.5H106V20.5Z" fill="#212121"/>
<path d="M106 16.5H110V20.5H106V16.5Z" fill="#212121"/>
<path d="M106 12.5H110V16.5H106V12.5Z" fill="#212121"/>
</svg>
