<svg xmlns="http://www.w3.org/2000/svg" xmlns:xlink="http://www.w3.org/1999/xlink" width="1080" zoomAndPan="magnify" viewBox="0 0 810 809.999993" height="1080" preserveAspectRatio="xMidYMid meet" version="1.0"><defs><clipPath id="f3d68e3c78"><path d="M 166.636719 133.859375 L 643.949219 133.859375 L 643.949219 781 L 166.636719 781 Z M 166.636719 133.859375 " clip-rule="nonzero"/></clipPath><clipPath id="1669682a3e"><path d="M 141.054688 78.503906 L 670.367188 78.503906 L 670.367188 148.664062 L 141.054688 148.664062 Z M 141.054688 78.503906 " clip-rule="nonzero"/></clipPath><clipPath id="0d781f8fe7"><path d="M 340.753906 28.148438 L 468.476562 28.148438 L 468.476562 59.011719 L 340.753906 59.011719 Z M 340.753906 28.148438 " clip-rule="nonzero"/></clipPath></defs><g clip-path="url(#f3d68e3c78)"><path fill="#ffffff" d="M 166.636719 133.859375 L 643.949219 133.859375 L 643.949219 780.84375 L 166.636719 780.84375 Z M 166.636719 133.859375 " fill-opacity="1" fill-rule="nonzero"/></g><g clip-path="url(#1669682a3e)"><path fill="#ffffff" d="M 141.054688 78.503906 L 670.261719 78.503906 L 670.261719 148.664062 L 141.054688 148.664062 Z M 141.054688 78.503906 " fill-opacity="1" fill-rule="nonzero"/></g><path fill="#000000" d="M 141.613281 53.851562 L 166.691406 53.851562 L 166.691406 78.933594 L 141.613281 78.933594 Z M 141.613281 53.851562 " fill-opacity="1" fill-rule="nonzero"/><path fill="#000000" d="M 643.175781 53.851562 L 668.253906 53.851562 L 668.253906 78.933594 L 643.175781 78.933594 Z M 643.175781 53.851562 " fill-opacity="1" fill-rule="nonzero"/><path fill="#000000" d="M 618.097656 53.851562 L 643.175781 53.851562 L 643.175781 78.933594 L 618.097656 78.933594 Z M 618.097656 53.851562 " fill-opacity="1" fill-rule="nonzero"/><path fill="#000000" d="M 593.019531 53.851562 L 618.097656 53.851562 L 618.097656 78.933594 L 593.019531 78.933594 Z M 593.019531 53.851562 " fill-opacity="1" fill-rule="nonzero"/><path fill="#000000" d="M 567.941406 53.851562 L 593.019531 53.851562 L 593.019531 78.933594 L 567.941406 78.933594 Z M 567.941406 53.851562 " fill-opacity="1" fill-rule="nonzero"/><path fill="#000000" d="M 542.863281 53.851562 L 567.941406 53.851562 L 567.941406 78.933594 L 542.863281 78.933594 Z M 542.863281 53.851562 " fill-opacity="1" fill-rule="nonzero"/><path fill="#000000" d="M 517.785156 53.851562 L 542.863281 53.851562 L 542.863281 78.933594 L 517.785156 78.933594 Z M 517.785156 53.851562 " fill-opacity="1" fill-rule="nonzero"/><path fill="#000000" d="M 492.707031 53.851562 L 517.785156 53.851562 L 517.785156 78.933594 L 492.707031 78.933594 Z M 492.707031 53.851562 " fill-opacity="1" fill-rule="nonzero"/><path fill="#000000" d="M 467.628906 53.851562 L 492.707031 53.851562 L 492.707031 78.933594 L 467.628906 78.933594 Z M 467.628906 53.851562 " fill-opacity="1" fill-rule="nonzero"/><path fill="#000000" d="M 442.550781 53.851562 L 467.628906 53.851562 L 467.628906 78.933594 L 442.550781 78.933594 Z M 442.550781 53.851562 " fill-opacity="1" fill-rule="nonzero"/><path fill="#000000" d="M 417.472656 53.851562 L 442.550781 53.851562 L 442.550781 78.933594 L 417.472656 78.933594 Z M 417.472656 53.851562 " fill-opacity="1" fill-rule="nonzero"/><path fill="#000000" d="M 392.394531 53.851562 L 417.472656 53.851562 L 417.472656 78.933594 L 392.394531 78.933594 Z M 392.394531 53.851562 " fill-opacity="1" fill-rule="nonzero"/><path fill="#000000" d="M 367.316406 53.851562 L 392.394531 53.851562 L 392.394531 78.933594 L 367.316406 78.933594 Z M 367.316406 53.851562 " fill-opacity="1" fill-rule="nonzero"/><path fill="#000000" d="M 342.238281 53.851562 L 367.316406 53.851562 L 367.316406 78.933594 L 342.238281 78.933594 Z M 342.238281 53.851562 " fill-opacity="1" fill-rule="nonzero"/><path fill="#000000" d="M 317.160156 53.851562 L 342.238281 53.851562 L 342.238281 78.933594 L 317.160156 78.933594 Z M 317.160156 53.851562 " fill-opacity="1" fill-rule="nonzero"/><path fill="#000000" d="M 317.160156 28.769531 L 342.238281 28.769531 L 342.238281 53.851562 L 317.160156 53.851562 Z M 317.160156 28.769531 " fill-opacity="1" fill-rule="nonzero"/><path fill="#000000" d="M 467.628906 28.769531 L 492.707031 28.769531 L 492.707031 53.851562 L 467.628906 53.851562 Z M 467.628906 28.769531 " fill-opacity="1" fill-rule="nonzero"/><path fill="#000000" d="M 442.550781 3.6875 L 467.628906 3.6875 L 467.628906 28.769531 L 442.550781 28.769531 Z M 442.550781 3.6875 " fill-opacity="1" fill-rule="nonzero"/><path fill="#000000" d="M 417.472656 3.6875 L 442.550781 3.6875 L 442.550781 28.769531 L 417.472656 28.769531 Z M 417.472656 3.6875 " fill-opacity="1" fill-rule="nonzero"/><path fill="#000000" d="M 392.394531 3.6875 L 417.472656 3.6875 L 417.472656 28.769531 L 392.394531 28.769531 Z M 392.394531 3.6875 " fill-opacity="1" fill-rule="nonzero"/><path fill="#000000" d="M 367.316406 3.6875 L 392.394531 3.6875 L 392.394531 28.769531 L 367.316406 28.769531 Z M 367.316406 3.6875 " fill-opacity="1" fill-rule="nonzero"/><path fill="#000000" d="M 342.238281 3.6875 L 367.316406 3.6875 L 367.316406 28.769531 L 342.238281 28.769531 Z M 342.238281 3.6875 " fill-opacity="1" fill-rule="nonzero"/><path fill="#000000" d="M 292.082031 53.851562 L 317.160156 53.851562 L 317.160156 78.933594 L 292.082031 78.933594 Z M 292.082031 53.851562 " fill-opacity="1" fill-rule="nonzero"/><path fill="#000000" d="M 267.003906 53.851562 L 292.082031 53.851562 L 292.082031 78.933594 L 267.003906 78.933594 Z M 267.003906 53.851562 " fill-opacity="1" fill-rule="nonzero"/><path fill="#000000" d="M 241.925781 53.851562 L 267.003906 53.851562 L 267.003906 78.933594 L 241.925781 78.933594 Z M 241.925781 53.851562 " fill-opacity="1" fill-rule="nonzero"/><path fill="#000000" d="M 216.847656 53.851562 L 241.925781 53.851562 L 241.925781 78.933594 L 216.847656 78.933594 Z M 216.847656 53.851562 " fill-opacity="1" fill-rule="nonzero"/><path fill="#000000" d="M 191.769531 53.851562 L 216.847656 53.851562 L 216.847656 78.933594 L 191.769531 78.933594 Z M 191.769531 53.851562 " fill-opacity="1" fill-rule="nonzero"/><path fill="#000000" d="M 166.691406 53.851562 L 191.769531 53.851562 L 191.769531 78.933594 L 166.691406 78.933594 Z M 166.691406 53.851562 " fill-opacity="1" fill-rule="nonzero"/><path fill="#000000" d="M 116.535156 78.933594 L 141.613281 78.933594 L 141.613281 104.015625 L 116.535156 104.015625 Z M 116.535156 78.933594 " fill-opacity="1" fill-rule="nonzero"/><path fill="#000000" d="M 116.535156 104.015625 L 141.613281 104.015625 L 141.613281 129.097656 L 116.535156 129.097656 Z M 116.535156 104.015625 " fill-opacity="1" fill-rule="nonzero"/><path fill="#000000" d="M 116.535156 129.097656 L 141.613281 129.097656 L 141.613281 154.179688 L 116.535156 154.179688 Z M 116.535156 129.097656 " fill-opacity="1" fill-rule="nonzero"/><path fill="#000000" d="M 141.613281 129.097656 L 166.691406 129.097656 L 166.691406 154.179688 L 141.613281 154.179688 Z M 141.613281 129.097656 " fill-opacity="1" fill-rule="nonzero"/><path fill="#000000" d="M 141.613281 154.179688 L 166.691406 154.179688 L 166.691406 179.261719 L 141.613281 179.261719 Z M 141.613281 154.179688 " fill-opacity="1" fill-rule="nonzero"/><path fill="#000000" d="M 141.613281 179.261719 L 166.691406 179.261719 L 166.691406 204.34375 L 141.613281 204.34375 Z M 141.613281 179.261719 " fill-opacity="1" fill-rule="nonzero"/><path fill="#000000" d="M 141.613281 204.34375 L 166.691406 204.34375 L 166.691406 229.425781 L 141.613281 229.425781 Z M 141.613281 204.34375 " fill-opacity="1" fill-rule="nonzero"/><path fill="#000000" d="M 141.613281 229.425781 L 166.691406 229.425781 L 166.691406 254.507812 L 141.613281 254.507812 Z M 141.613281 229.425781 " fill-opacity="1" fill-rule="nonzero"/><path fill="#000000" d="M 141.613281 254.507812 L 166.691406 254.507812 L 166.691406 279.589844 L 141.613281 279.589844 Z M 141.613281 254.507812 " fill-opacity="1" fill-rule="nonzero"/><path fill="#000000" d="M 141.613281 279.589844 L 166.691406 279.589844 L 166.691406 304.671875 L 141.613281 304.671875 Z M 141.613281 279.589844 " fill-opacity="1" fill-rule="nonzero"/><path fill="#000000" d="M 141.613281 304.671875 L 166.691406 304.671875 L 166.691406 329.753906 L 141.613281 329.753906 Z M 141.613281 304.671875 " fill-opacity="1" fill-rule="nonzero"/><path fill="#000000" d="M 141.613281 329.753906 L 166.691406 329.753906 L 166.691406 354.835938 L 141.613281 354.835938 Z M 141.613281 329.753906 " fill-opacity="1" fill-rule="nonzero"/><path fill="#000000" d="M 141.613281 354.835938 L 166.691406 354.835938 L 166.691406 379.917969 L 141.613281 379.917969 Z M 141.613281 354.835938 " fill-opacity="1" fill-rule="nonzero"/><path fill="#000000" d="M 141.613281 379.917969 L 166.691406 379.917969 L 166.691406 405 L 141.613281 405 Z M 141.613281 379.917969 " fill-opacity="1" fill-rule="nonzero"/><path fill="#000000" d="M 141.613281 405 L 166.691406 405 L 166.691406 430.082031 L 141.613281 430.082031 Z M 141.613281 405 " fill-opacity="1" fill-rule="nonzero"/><path fill="#000000" d="M 141.613281 430.082031 L 166.691406 430.082031 L 166.691406 455.164062 L 141.613281 455.164062 Z M 141.613281 430.082031 " fill-opacity="1" fill-rule="nonzero"/><path fill="#000000" d="M 141.613281 455.164062 L 166.691406 455.164062 L 166.691406 480.246094 L 141.613281 480.246094 Z M 141.613281 455.164062 " fill-opacity="1" fill-rule="nonzero"/><path fill="#000000" d="M 141.613281 480.246094 L 166.691406 480.246094 L 166.691406 505.328125 L 141.613281 505.328125 Z M 141.613281 480.246094 " fill-opacity="1" fill-rule="nonzero"/><path fill="#000000" d="M 141.613281 505.328125 L 166.691406 505.328125 L 166.691406 530.410156 L 141.613281 530.410156 Z M 141.613281 505.328125 " fill-opacity="1" fill-rule="nonzero"/><path fill="#000000" d="M 141.613281 530.410156 L 166.691406 530.410156 L 166.691406 555.492188 L 141.613281 555.492188 Z M 141.613281 530.410156 " fill-opacity="1" fill-rule="nonzero"/><path fill="#000000" d="M 141.613281 555.492188 L 166.691406 555.492188 L 166.691406 580.574219 L 141.613281 580.574219 Z M 141.613281 555.492188 " fill-opacity="1" fill-rule="nonzero"/><path fill="#000000" d="M 141.613281 580.574219 L 166.691406 580.574219 L 166.691406 605.65625 L 141.613281 605.65625 Z M 141.613281 580.574219 " fill-opacity="1" fill-rule="nonzero"/><path fill="#000000" d="M 141.613281 605.65625 L 166.691406 605.65625 L 166.691406 630.738281 L 141.613281 630.738281 Z M 141.613281 605.65625 " fill-opacity="1" fill-rule="nonzero"/><path fill="#000000" d="M 141.613281 630.738281 L 166.691406 630.738281 L 166.691406 655.820312 L 141.613281 655.820312 Z M 141.613281 630.738281 " fill-opacity="1" fill-rule="nonzero"/><path fill="#000000" d="M 141.613281 655.820312 L 166.691406 655.820312 L 166.691406 680.902344 L 141.613281 680.902344 Z M 141.613281 655.820312 " fill-opacity="1" fill-rule="nonzero"/><path fill="#000000" d="M 141.613281 680.902344 L 166.691406 680.902344 L 166.691406 705.984375 L 141.613281 705.984375 Z M 141.613281 680.902344 " fill-opacity="1" fill-rule="nonzero"/><path fill="#000000" d="M 141.613281 705.984375 L 166.691406 705.984375 L 166.691406 731.066406 L 141.613281 731.066406 Z M 141.613281 705.984375 " fill-opacity="1" fill-rule="nonzero"/><path fill="#000000" d="M 141.613281 731.066406 L 166.691406 731.066406 L 166.691406 756.148438 L 141.613281 756.148438 Z M 141.613281 731.066406 " fill-opacity="1" fill-rule="nonzero"/><path fill="#000000" d="M 141.613281 756.148438 L 166.691406 756.148438 L 166.691406 781.230469 L 141.613281 781.230469 Z M 141.613281 756.148438 " fill-opacity="1" fill-rule="nonzero"/><path fill="#000000" d="M 166.691406 781.230469 L 191.769531 781.230469 L 191.769531 806.3125 L 166.691406 806.3125 Z M 166.691406 781.230469 " fill-opacity="1" fill-rule="nonzero"/><path fill="#000000" d="M 191.769531 781.230469 L 216.847656 781.230469 L 216.847656 806.3125 L 191.769531 806.3125 Z M 191.769531 781.230469 " fill-opacity="1" fill-rule="nonzero"/><path fill="#000000" d="M 216.847656 781.230469 L 241.925781 781.230469 L 241.925781 806.3125 L 216.847656 806.3125 Z M 216.847656 781.230469 " fill-opacity="1" fill-rule="nonzero"/><path fill="#000000" d="M 241.925781 781.230469 L 267.003906 781.230469 L 267.003906 806.3125 L 241.925781 806.3125 Z M 241.925781 781.230469 " fill-opacity="1" fill-rule="nonzero"/><path fill="#000000" d="M 267.003906 781.230469 L 292.082031 781.230469 L 292.082031 806.3125 L 267.003906 806.3125 Z M 267.003906 781.230469 " fill-opacity="1" fill-rule="nonzero"/><path fill="#000000" d="M 292.082031 781.230469 L 317.160156 781.230469 L 317.160156 806.3125 L 292.082031 806.3125 Z M 292.082031 781.230469 " fill-opacity="1" fill-rule="nonzero"/><path fill="#000000" d="M 317.160156 781.230469 L 342.238281 781.230469 L 342.238281 806.3125 L 317.160156 806.3125 Z M 317.160156 781.230469 " fill-opacity="1" fill-rule="nonzero"/><path fill="#000000" d="M 342.238281 781.230469 L 367.316406 781.230469 L 367.316406 806.3125 L 342.238281 806.3125 Z M 342.238281 781.230469 " fill-opacity="1" fill-rule="nonzero"/><path fill="#000000" d="M 367.316406 781.230469 L 392.394531 781.230469 L 392.394531 806.3125 L 367.316406 806.3125 Z M 367.316406 781.230469 " fill-opacity="1" fill-rule="nonzero"/><path fill="#000000" d="M 392.394531 781.230469 L 417.472656 781.230469 L 417.472656 806.3125 L 392.394531 806.3125 Z M 392.394531 781.230469 " fill-opacity="1" fill-rule="nonzero"/><path fill="#000000" d="M 417.472656 781.230469 L 442.550781 781.230469 L 442.550781 806.3125 L 417.472656 806.3125 Z M 417.472656 781.230469 " fill-opacity="1" fill-rule="nonzero"/><path fill="#000000" d="M 442.550781 781.230469 L 467.628906 781.230469 L 467.628906 806.3125 L 442.550781 806.3125 Z M 442.550781 781.230469 " fill-opacity="1" fill-rule="nonzero"/><path fill="#000000" d="M 467.628906 781.230469 L 492.707031 781.230469 L 492.707031 806.3125 L 467.628906 806.3125 Z M 467.628906 781.230469 " fill-opacity="1" fill-rule="nonzero"/><path fill="#000000" d="M 492.707031 781.230469 L 517.785156 781.230469 L 517.785156 806.3125 L 492.707031 806.3125 Z M 492.707031 781.230469 " fill-opacity="1" fill-rule="nonzero"/><path fill="#000000" d="M 517.785156 781.230469 L 542.863281 781.230469 L 542.863281 806.3125 L 517.785156 806.3125 Z M 517.785156 781.230469 " fill-opacity="1" fill-rule="nonzero"/><path fill="#000000" d="M 542.863281 781.230469 L 567.941406 781.230469 L 567.941406 806.3125 L 542.863281 806.3125 Z M 542.863281 781.230469 " fill-opacity="1" fill-rule="nonzero"/><path fill="#000000" d="M 567.941406 781.230469 L 593.019531 781.230469 L 593.019531 806.3125 L 567.941406 806.3125 Z M 567.941406 781.230469 " fill-opacity="1" fill-rule="nonzero"/><path fill="#000000" d="M 593.019531 781.230469 L 618.097656 781.230469 L 618.097656 806.3125 L 593.019531 806.3125 Z M 593.019531 781.230469 " fill-opacity="1" fill-rule="nonzero"/><path fill="#000000" d="M 618.097656 781.230469 L 643.175781 781.230469 L 643.175781 806.3125 L 618.097656 806.3125 Z M 618.097656 781.230469 " fill-opacity="1" fill-rule="nonzero"/><path fill="#000000" d="M 166.691406 129.097656 L 191.769531 129.097656 L 191.769531 154.179688 L 166.691406 154.179688 Z M 166.691406 129.097656 " fill-opacity="1" fill-rule="nonzero"/><path fill="#000000" d="M 191.769531 129.097656 L 216.847656 129.097656 L 216.847656 154.179688 L 191.769531 154.179688 Z M 191.769531 129.097656 " fill-opacity="1" fill-rule="nonzero"/><path fill="#000000" d="M 216.847656 129.097656 L 241.925781 129.097656 L 241.925781 154.179688 L 216.847656 154.179688 Z M 216.847656 129.097656 " fill-opacity="1" fill-rule="nonzero"/><path fill="#000000" d="M 241.925781 129.097656 L 267.003906 129.097656 L 267.003906 154.179688 L 241.925781 154.179688 Z M 241.925781 129.097656 " fill-opacity="1" fill-rule="nonzero"/><path fill="#000000" d="M 267.003906 129.097656 L 292.082031 129.097656 L 292.082031 154.179688 L 267.003906 154.179688 Z M 267.003906 129.097656 " fill-opacity="1" fill-rule="nonzero"/><path fill="#000000" d="M 267.003906 204.34375 L 292.082031 204.34375 L 292.082031 229.425781 L 267.003906 229.425781 Z M 267.003906 204.34375 " fill-opacity="1" fill-rule="nonzero"/><path fill="#000000" d="M 241.925781 229.425781 L 267.003906 229.425781 L 267.003906 254.507812 L 241.925781 254.507812 Z M 241.925781 229.425781 " fill-opacity="1" fill-rule="nonzero"/><path fill="#000000" d="M 241.925781 254.507812 L 267.003906 254.507812 L 267.003906 279.589844 L 241.925781 279.589844 Z M 241.925781 254.507812 " fill-opacity="1" fill-rule="nonzero"/><path fill="#000000" d="M 241.925781 279.589844 L 267.003906 279.589844 L 267.003906 304.671875 L 241.925781 304.671875 Z M 241.925781 279.589844 " fill-opacity="1" fill-rule="nonzero"/><path fill="#000000" d="M 241.925781 304.671875 L 267.003906 304.671875 L 267.003906 329.753906 L 241.925781 329.753906 Z M 241.925781 304.671875 " fill-opacity="1" fill-rule="nonzero"/><path fill="#000000" d="M 241.925781 329.753906 L 267.003906 329.753906 L 267.003906 354.835938 L 241.925781 354.835938 Z M 241.925781 329.753906 " fill-opacity="1" fill-rule="nonzero"/><path fill="#000000" d="M 241.925781 354.835938 L 267.003906 354.835938 L 267.003906 379.917969 L 241.925781 379.917969 Z M 241.925781 354.835938 " fill-opacity="1" fill-rule="nonzero"/><path fill="#000000" d="M 241.925781 379.917969 L 267.003906 379.917969 L 267.003906 405 L 241.925781 405 Z M 241.925781 379.917969 " fill-opacity="1" fill-rule="nonzero"/><path fill="#000000" d="M 241.925781 405 L 267.003906 405 L 267.003906 430.082031 L 241.925781 430.082031 Z M 241.925781 405 " fill-opacity="1" fill-rule="nonzero"/><path fill="#000000" d="M 241.925781 430.082031 L 267.003906 430.082031 L 267.003906 455.164062 L 241.925781 455.164062 Z M 241.925781 430.082031 " fill-opacity="1" fill-rule="nonzero"/><path fill="#000000" d="M 241.925781 455.164062 L 267.003906 455.164062 L 267.003906 480.246094 L 241.925781 480.246094 Z M 241.925781 455.164062 " fill-opacity="1" fill-rule="nonzero"/><path fill="#000000" d="M 241.925781 480.246094 L 267.003906 480.246094 L 267.003906 505.328125 L 241.925781 505.328125 Z M 241.925781 480.246094 " fill-opacity="1" fill-rule="nonzero"/><path fill="#000000" d="M 241.925781 505.328125 L 267.003906 505.328125 L 267.003906 530.410156 L 241.925781 530.410156 Z M 241.925781 505.328125 " fill-opacity="1" fill-rule="nonzero"/><path fill="#000000" d="M 241.925781 530.410156 L 267.003906 530.410156 L 267.003906 555.492188 L 241.925781 555.492188 Z M 241.925781 530.410156 " fill-opacity="1" fill-rule="nonzero"/><path fill="#000000" d="M 241.925781 555.492188 L 267.003906 555.492188 L 267.003906 580.574219 L 241.925781 580.574219 Z M 241.925781 555.492188 " fill-opacity="1" fill-rule="nonzero"/><path fill="#000000" d="M 241.925781 580.574219 L 267.003906 580.574219 L 267.003906 605.65625 L 241.925781 605.65625 Z M 241.925781 580.574219 " fill-opacity="1" fill-rule="nonzero"/><path fill="#000000" d="M 241.925781 605.65625 L 267.003906 605.65625 L 267.003906 630.738281 L 241.925781 630.738281 Z M 241.925781 605.65625 " fill-opacity="1" fill-rule="nonzero"/><path fill="#000000" d="M 241.925781 630.738281 L 267.003906 630.738281 L 267.003906 655.820312 L 241.925781 655.820312 Z M 241.925781 630.738281 " fill-opacity="1" fill-rule="nonzero"/><path fill="#000000" d="M 241.925781 655.820312 L 267.003906 655.820312 L 267.003906 680.902344 L 241.925781 680.902344 Z M 241.925781 655.820312 " fill-opacity="1" fill-rule="nonzero"/><path fill="#000000" d="M 241.925781 680.902344 L 267.003906 680.902344 L 267.003906 705.984375 L 241.925781 705.984375 Z M 241.925781 680.902344 " fill-opacity="1" fill-rule="nonzero"/><path fill="#000000" d="M 267.003906 705.984375 L 292.082031 705.984375 L 292.082031 731.066406 L 267.003906 731.066406 Z M 267.003906 705.984375 " fill-opacity="1" fill-rule="nonzero"/><path fill="#000000" d="M 367.316406 204.34375 L 392.394531 204.34375 L 392.394531 229.425781 L 367.316406 229.425781 Z M 367.316406 204.34375 " fill-opacity="1" fill-rule="nonzero"/><path fill="#000000" d="M 342.238281 229.425781 L 367.316406 229.425781 L 367.316406 254.507812 L 342.238281 254.507812 Z M 342.238281 229.425781 " fill-opacity="1" fill-rule="nonzero"/><path fill="#000000" d="M 342.238281 254.507812 L 367.316406 254.507812 L 367.316406 279.589844 L 342.238281 279.589844 Z M 342.238281 254.507812 " fill-opacity="1" fill-rule="nonzero"/><path fill="#000000" d="M 342.238281 279.589844 L 367.316406 279.589844 L 367.316406 304.671875 L 342.238281 304.671875 Z M 342.238281 279.589844 " fill-opacity="1" fill-rule="nonzero"/><path fill="#000000" d="M 342.238281 304.671875 L 367.316406 304.671875 L 367.316406 329.753906 L 342.238281 329.753906 Z M 342.238281 304.671875 " fill-opacity="1" fill-rule="nonzero"/><path fill="#000000" d="M 342.238281 329.753906 L 367.316406 329.753906 L 367.316406 354.835938 L 342.238281 354.835938 Z M 342.238281 329.753906 " fill-opacity="1" fill-rule="nonzero"/><path fill="#000000" d="M 342.238281 354.835938 L 367.316406 354.835938 L 367.316406 379.917969 L 342.238281 379.917969 Z M 342.238281 354.835938 " fill-opacity="1" fill-rule="nonzero"/><path fill="#000000" d="M 342.238281 379.917969 L 367.316406 379.917969 L 367.316406 405 L 342.238281 405 Z M 342.238281 379.917969 " fill-opacity="1" fill-rule="nonzero"/><path fill="#000000" d="M 342.238281 405 L 367.316406 405 L 367.316406 430.082031 L 342.238281 430.082031 Z M 342.238281 405 " fill-opacity="1" fill-rule="nonzero"/><path fill="#000000" d="M 342.238281 430.082031 L 367.316406 430.082031 L 367.316406 455.164062 L 342.238281 455.164062 Z M 342.238281 430.082031 " fill-opacity="1" fill-rule="nonzero"/><path fill="#000000" d="M 342.238281 455.164062 L 367.316406 455.164062 L 367.316406 480.246094 L 342.238281 480.246094 Z M 342.238281 455.164062 " fill-opacity="1" fill-rule="nonzero"/><path fill="#000000" d="M 342.238281 480.246094 L 367.316406 480.246094 L 367.316406 505.328125 L 342.238281 505.328125 Z M 342.238281 480.246094 " fill-opacity="1" fill-rule="nonzero"/><path fill="#000000" d="M 342.238281 505.328125 L 367.316406 505.328125 L 367.316406 530.410156 L 342.238281 530.410156 Z M 342.238281 505.328125 " fill-opacity="1" fill-rule="nonzero"/><path fill="#000000" d="M 342.238281 530.410156 L 367.316406 530.410156 L 367.316406 555.492188 L 342.238281 555.492188 Z M 342.238281 530.410156 " fill-opacity="1" fill-rule="nonzero"/><path fill="#000000" d="M 342.238281 555.492188 L 367.316406 555.492188 L 367.316406 580.574219 L 342.238281 580.574219 Z M 342.238281 555.492188 " fill-opacity="1" fill-rule="nonzero"/><path fill="#000000" d="M 342.238281 580.574219 L 367.316406 580.574219 L 367.316406 605.65625 L 342.238281 605.65625 Z M 342.238281 580.574219 " fill-opacity="1" fill-rule="nonzero"/><path fill="#000000" d="M 342.238281 605.65625 L 367.316406 605.65625 L 367.316406 630.738281 L 342.238281 630.738281 Z M 342.238281 605.65625 " fill-opacity="1" fill-rule="nonzero"/><path fill="#000000" d="M 342.238281 630.738281 L 367.316406 630.738281 L 367.316406 655.820312 L 342.238281 655.820312 Z M 342.238281 630.738281 " fill-opacity="1" fill-rule="nonzero"/><path fill="#000000" d="M 342.238281 655.820312 L 367.316406 655.820312 L 367.316406 680.902344 L 342.238281 680.902344 Z M 342.238281 655.820312 " fill-opacity="1" fill-rule="nonzero"/><path fill="#000000" d="M 342.238281 680.902344 L 367.316406 680.902344 L 367.316406 705.984375 L 342.238281 705.984375 Z M 342.238281 680.902344 " fill-opacity="1" fill-rule="nonzero"/><path fill="#000000" d="M 367.316406 705.984375 L 392.394531 705.984375 L 392.394531 731.066406 L 367.316406 731.066406 Z M 367.316406 705.984375 " fill-opacity="1" fill-rule="nonzero"/><path fill="#000000" d="M 467.628906 204.34375 L 492.707031 204.34375 L 492.707031 229.425781 L 467.628906 229.425781 Z M 467.628906 204.34375 " fill-opacity="1" fill-rule="nonzero"/><path fill="#000000" d="M 442.550781 229.425781 L 467.628906 229.425781 L 467.628906 254.507812 L 442.550781 254.507812 Z M 442.550781 229.425781 " fill-opacity="1" fill-rule="nonzero"/><path fill="#000000" d="M 442.550781 254.507812 L 467.628906 254.507812 L 467.628906 279.589844 L 442.550781 279.589844 Z M 442.550781 254.507812 " fill-opacity="1" fill-rule="nonzero"/><path fill="#000000" d="M 442.550781 279.589844 L 467.628906 279.589844 L 467.628906 304.671875 L 442.550781 304.671875 Z M 442.550781 279.589844 " fill-opacity="1" fill-rule="nonzero"/><path fill="#000000" d="M 442.550781 304.671875 L 467.628906 304.671875 L 467.628906 329.753906 L 442.550781 329.753906 Z M 442.550781 304.671875 " fill-opacity="1" fill-rule="nonzero"/><path fill="#000000" d="M 442.550781 329.753906 L 467.628906 329.753906 L 467.628906 354.835938 L 442.550781 354.835938 Z M 442.550781 329.753906 " fill-opacity="1" fill-rule="nonzero"/><path fill="#000000" d="M 442.550781 354.835938 L 467.628906 354.835938 L 467.628906 379.917969 L 442.550781 379.917969 Z M 442.550781 354.835938 " fill-opacity="1" fill-rule="nonzero"/><path fill="#000000" d="M 442.550781 379.917969 L 467.628906 379.917969 L 467.628906 405 L 442.550781 405 Z M 442.550781 379.917969 " fill-opacity="1" fill-rule="nonzero"/><path fill="#000000" d="M 442.550781 405 L 467.628906 405 L 467.628906 430.082031 L 442.550781 430.082031 Z M 442.550781 405 " fill-opacity="1" fill-rule="nonzero"/><path fill="#000000" d="M 442.550781 430.082031 L 467.628906 430.082031 L 467.628906 455.164062 L 442.550781 455.164062 Z M 442.550781 430.082031 " fill-opacity="1" fill-rule="nonzero"/><path fill="#000000" d="M 442.550781 455.164062 L 467.628906 455.164062 L 467.628906 480.246094 L 442.550781 480.246094 Z M 442.550781 455.164062 " fill-opacity="1" fill-rule="nonzero"/><path fill="#000000" d="M 442.550781 480.246094 L 467.628906 480.246094 L 467.628906 505.328125 L 442.550781 505.328125 Z M 442.550781 480.246094 " fill-opacity="1" fill-rule="nonzero"/><path fill="#000000" d="M 442.550781 505.328125 L 467.628906 505.328125 L 467.628906 530.410156 L 442.550781 530.410156 Z M 442.550781 505.328125 " fill-opacity="1" fill-rule="nonzero"/><path fill="#000000" d="M 442.550781 530.410156 L 467.628906 530.410156 L 467.628906 555.492188 L 442.550781 555.492188 Z M 442.550781 530.410156 " fill-opacity="1" fill-rule="nonzero"/><path fill="#000000" d="M 442.550781 555.492188 L 467.628906 555.492188 L 467.628906 580.574219 L 442.550781 580.574219 Z M 442.550781 555.492188 " fill-opacity="1" fill-rule="nonzero"/><path fill="#000000" d="M 442.550781 580.574219 L 467.628906 580.574219 L 467.628906 605.65625 L 442.550781 605.65625 Z M 442.550781 580.574219 " fill-opacity="1" fill-rule="nonzero"/><path fill="#000000" d="M 442.550781 605.65625 L 467.628906 605.65625 L 467.628906 630.738281 L 442.550781 630.738281 Z M 442.550781 605.65625 " fill-opacity="1" fill-rule="nonzero"/><path fill="#000000" d="M 442.550781 630.738281 L 467.628906 630.738281 L 467.628906 655.820312 L 442.550781 655.820312 Z M 442.550781 630.738281 " fill-opacity="1" fill-rule="nonzero"/><path fill="#000000" d="M 442.550781 655.820312 L 467.628906 655.820312 L 467.628906 680.902344 L 442.550781 680.902344 Z M 442.550781 655.820312 " fill-opacity="1" fill-rule="nonzero"/><path fill="#000000" d="M 442.550781 680.902344 L 467.628906 680.902344 L 467.628906 705.984375 L 442.550781 705.984375 Z M 442.550781 680.902344 " fill-opacity="1" fill-rule="nonzero"/><path fill="#000000" d="M 467.628906 705.984375 L 492.707031 705.984375 L 492.707031 731.066406 L 467.628906 731.066406 Z M 467.628906 705.984375 " fill-opacity="1" fill-rule="nonzero"/><path fill="#000000" d="M 567.941406 204.34375 L 593.019531 204.34375 L 593.019531 229.425781 L 567.941406 229.425781 Z M 567.941406 204.34375 " fill-opacity="1" fill-rule="nonzero"/><path fill="#000000" d="M 542.863281 229.425781 L 567.941406 229.425781 L 567.941406 254.507812 L 542.863281 254.507812 Z M 542.863281 229.425781 " fill-opacity="1" fill-rule="nonzero"/><path fill="#000000" d="M 542.863281 254.507812 L 567.941406 254.507812 L 567.941406 279.589844 L 542.863281 279.589844 Z M 542.863281 254.507812 " fill-opacity="1" fill-rule="nonzero"/><path fill="#000000" d="M 542.863281 279.589844 L 567.941406 279.589844 L 567.941406 304.671875 L 542.863281 304.671875 Z M 542.863281 279.589844 " fill-opacity="1" fill-rule="nonzero"/><path fill="#000000" d="M 542.863281 304.671875 L 567.941406 304.671875 L 567.941406 329.753906 L 542.863281 329.753906 Z M 542.863281 304.671875 " fill-opacity="1" fill-rule="nonzero"/><path fill="#000000" d="M 542.863281 329.753906 L 567.941406 329.753906 L 567.941406 354.835938 L 542.863281 354.835938 Z M 542.863281 329.753906 " fill-opacity="1" fill-rule="nonzero"/><path fill="#000000" d="M 542.863281 354.835938 L 567.941406 354.835938 L 567.941406 379.917969 L 542.863281 379.917969 Z M 542.863281 354.835938 " fill-opacity="1" fill-rule="nonzero"/><path fill="#000000" d="M 542.863281 379.917969 L 567.941406 379.917969 L 567.941406 405 L 542.863281 405 Z M 542.863281 379.917969 " fill-opacity="1" fill-rule="nonzero"/><path fill="#000000" d="M 542.863281 405 L 567.941406 405 L 567.941406 430.082031 L 542.863281 430.082031 Z M 542.863281 405 " fill-opacity="1" fill-rule="nonzero"/><path fill="#000000" d="M 542.863281 430.082031 L 567.941406 430.082031 L 567.941406 455.164062 L 542.863281 455.164062 Z M 542.863281 430.082031 " fill-opacity="1" fill-rule="nonzero"/><path fill="#000000" d="M 542.863281 455.164062 L 567.941406 455.164062 L 567.941406 480.246094 L 542.863281 480.246094 Z M 542.863281 455.164062 " fill-opacity="1" fill-rule="nonzero"/><path fill="#000000" d="M 542.863281 480.246094 L 567.941406 480.246094 L 567.941406 505.328125 L 542.863281 505.328125 Z M 542.863281 480.246094 " fill-opacity="1" fill-rule="nonzero"/><path fill="#000000" d="M 542.863281 505.328125 L 567.941406 505.328125 L 567.941406 530.410156 L 542.863281 530.410156 Z M 542.863281 505.328125 " fill-opacity="1" fill-rule="nonzero"/><path fill="#000000" d="M 542.863281 530.410156 L 567.941406 530.410156 L 567.941406 555.492188 L 542.863281 555.492188 Z M 542.863281 530.410156 " fill-opacity="1" fill-rule="nonzero"/><path fill="#000000" d="M 542.863281 555.492188 L 567.941406 555.492188 L 567.941406 580.574219 L 542.863281 580.574219 Z M 542.863281 555.492188 " fill-opacity="1" fill-rule="nonzero"/><path fill="#000000" d="M 542.863281 580.574219 L 567.941406 580.574219 L 567.941406 605.65625 L 542.863281 605.65625 Z M 542.863281 580.574219 " fill-opacity="1" fill-rule="nonzero"/><path fill="#000000" d="M 542.863281 605.65625 L 567.941406 605.65625 L 567.941406 630.738281 L 542.863281 630.738281 Z M 542.863281 605.65625 " fill-opacity="1" fill-rule="nonzero"/><path fill="#000000" d="M 542.863281 630.738281 L 567.941406 630.738281 L 567.941406 655.820312 L 542.863281 655.820312 Z M 542.863281 630.738281 " fill-opacity="1" fill-rule="nonzero"/><path fill="#000000" d="M 542.863281 655.820312 L 567.941406 655.820312 L 567.941406 680.902344 L 542.863281 680.902344 Z M 542.863281 655.820312 " fill-opacity="1" fill-rule="nonzero"/><path fill="#000000" d="M 542.863281 680.902344 L 567.941406 680.902344 L 567.941406 705.984375 L 542.863281 705.984375 Z M 542.863281 680.902344 " fill-opacity="1" fill-rule="nonzero"/><path fill="#000000" d="M 567.941406 705.984375 L 593.019531 705.984375 L 593.019531 731.066406 L 567.941406 731.066406 Z M 567.941406 705.984375 " fill-opacity="1" fill-rule="nonzero"/><path fill="#000000" d="M 292.082031 129.097656 L 317.160156 129.097656 L 317.160156 154.179688 L 292.082031 154.179688 Z M 292.082031 129.097656 " fill-opacity="1" fill-rule="nonzero"/><path fill="#000000" d="M 317.160156 129.097656 L 342.238281 129.097656 L 342.238281 154.179688 L 317.160156 154.179688 Z M 317.160156 129.097656 " fill-opacity="1" fill-rule="nonzero"/><path fill="#000000" d="M 342.238281 129.097656 L 367.316406 129.097656 L 367.316406 154.179688 L 342.238281 154.179688 Z M 342.238281 129.097656 " fill-opacity="1" fill-rule="nonzero"/><path fill="#000000" d="M 367.316406 129.097656 L 392.394531 129.097656 L 392.394531 154.179688 L 367.316406 154.179688 Z M 367.316406 129.097656 " fill-opacity="1" fill-rule="nonzero"/><path fill="#000000" d="M 392.394531 129.097656 L 417.472656 129.097656 L 417.472656 154.179688 L 392.394531 154.179688 Z M 392.394531 129.097656 " fill-opacity="1" fill-rule="nonzero"/><path fill="#000000" d="M 417.472656 129.097656 L 442.550781 129.097656 L 442.550781 154.179688 L 417.472656 154.179688 Z M 417.472656 129.097656 " fill-opacity="1" fill-rule="nonzero"/><path fill="#000000" d="M 442.550781 129.097656 L 467.628906 129.097656 L 467.628906 154.179688 L 442.550781 154.179688 Z M 442.550781 129.097656 " fill-opacity="1" fill-rule="nonzero"/><path fill="#000000" d="M 467.628906 129.097656 L 492.707031 129.097656 L 492.707031 154.179688 L 467.628906 154.179688 Z M 467.628906 129.097656 " fill-opacity="1" fill-rule="nonzero"/><path fill="#000000" d="M 492.707031 129.097656 L 517.785156 129.097656 L 517.785156 154.179688 L 492.707031 154.179688 Z M 492.707031 129.097656 " fill-opacity="1" fill-rule="nonzero"/><path fill="#000000" d="M 517.785156 129.097656 L 542.863281 129.097656 L 542.863281 154.179688 L 517.785156 154.179688 Z M 517.785156 129.097656 " fill-opacity="1" fill-rule="nonzero"/><path fill="#000000" d="M 542.863281 129.097656 L 567.941406 129.097656 L 567.941406 154.179688 L 542.863281 154.179688 Z M 542.863281 129.097656 " fill-opacity="1" fill-rule="nonzero"/><path fill="#000000" d="M 567.941406 129.097656 L 593.019531 129.097656 L 593.019531 154.179688 L 567.941406 154.179688 Z M 567.941406 129.097656 " fill-opacity="1" fill-rule="nonzero"/><path fill="#000000" d="M 593.019531 129.097656 L 618.097656 129.097656 L 618.097656 154.179688 L 593.019531 154.179688 Z M 593.019531 129.097656 " fill-opacity="1" fill-rule="nonzero"/><path fill="#000000" d="M 618.097656 129.097656 L 643.175781 129.097656 L 643.175781 154.179688 L 618.097656 154.179688 Z M 618.097656 129.097656 " fill-opacity="1" fill-rule="nonzero"/><path fill="#000000" d="M 643.175781 129.097656 L 668.253906 129.097656 L 668.253906 154.179688 L 643.175781 154.179688 Z M 643.175781 129.097656 " fill-opacity="1" fill-rule="nonzero"/><path fill="#000000" d="M 643.175781 154.179688 L 668.253906 154.179688 L 668.253906 179.261719 L 643.175781 179.261719 Z M 643.175781 154.179688 " fill-opacity="1" fill-rule="nonzero"/><path fill="#000000" d="M 643.175781 179.261719 L 668.253906 179.261719 L 668.253906 204.34375 L 643.175781 204.34375 Z M 643.175781 179.261719 " fill-opacity="1" fill-rule="nonzero"/><path fill="#000000" d="M 643.175781 204.34375 L 668.253906 204.34375 L 668.253906 229.425781 L 643.175781 229.425781 Z M 643.175781 204.34375 " fill-opacity="1" fill-rule="nonzero"/><path fill="#000000" d="M 643.175781 229.425781 L 668.253906 229.425781 L 668.253906 254.507812 L 643.175781 254.507812 Z M 643.175781 229.425781 " fill-opacity="1" fill-rule="nonzero"/><path fill="#000000" d="M 643.175781 254.507812 L 668.253906 254.507812 L 668.253906 279.589844 L 643.175781 279.589844 Z M 643.175781 254.507812 " fill-opacity="1" fill-rule="nonzero"/><path fill="#000000" d="M 643.175781 279.589844 L 668.253906 279.589844 L 668.253906 304.671875 L 643.175781 304.671875 Z M 643.175781 279.589844 " fill-opacity="1" fill-rule="nonzero"/><path fill="#000000" d="M 643.175781 304.671875 L 668.253906 304.671875 L 668.253906 329.753906 L 643.175781 329.753906 Z M 643.175781 304.671875 " fill-opacity="1" fill-rule="nonzero"/><path fill="#000000" d="M 643.175781 329.753906 L 668.253906 329.753906 L 668.253906 354.835938 L 643.175781 354.835938 Z M 643.175781 329.753906 " fill-opacity="1" fill-rule="nonzero"/><path fill="#000000" d="M 643.175781 354.835938 L 668.253906 354.835938 L 668.253906 379.917969 L 643.175781 379.917969 Z M 643.175781 354.835938 " fill-opacity="1" fill-rule="nonzero"/><path fill="#000000" d="M 643.175781 379.917969 L 668.253906 379.917969 L 668.253906 405 L 643.175781 405 Z M 643.175781 379.917969 " fill-opacity="1" fill-rule="nonzero"/><path fill="#000000" d="M 643.175781 405 L 668.253906 405 L 668.253906 430.082031 L 643.175781 430.082031 Z M 643.175781 405 " fill-opacity="1" fill-rule="nonzero"/><path fill="#000000" d="M 643.175781 430.082031 L 668.253906 430.082031 L 668.253906 455.164062 L 643.175781 455.164062 Z M 643.175781 430.082031 " fill-opacity="1" fill-rule="nonzero"/><path fill="#000000" d="M 643.175781 455.164062 L 668.253906 455.164062 L 668.253906 480.246094 L 643.175781 480.246094 Z M 643.175781 455.164062 " fill-opacity="1" fill-rule="nonzero"/><path fill="#000000" d="M 643.175781 480.246094 L 668.253906 480.246094 L 668.253906 505.328125 L 643.175781 505.328125 Z M 643.175781 480.246094 " fill-opacity="1" fill-rule="nonzero"/><path fill="#000000" d="M 643.175781 505.328125 L 668.253906 505.328125 L 668.253906 530.410156 L 643.175781 530.410156 Z M 643.175781 505.328125 " fill-opacity="1" fill-rule="nonzero"/><path fill="#000000" d="M 643.175781 530.410156 L 668.253906 530.410156 L 668.253906 555.492188 L 643.175781 555.492188 Z M 643.175781 530.410156 " fill-opacity="1" fill-rule="nonzero"/><path fill="#000000" d="M 643.175781 555.492188 L 668.253906 555.492188 L 668.253906 580.574219 L 643.175781 580.574219 Z M 643.175781 555.492188 " fill-opacity="1" fill-rule="nonzero"/><path fill="#000000" d="M 643.175781 580.574219 L 668.253906 580.574219 L 668.253906 605.65625 L 643.175781 605.65625 Z M 643.175781 580.574219 " fill-opacity="1" fill-rule="nonzero"/><path fill="#000000" d="M 643.175781 605.65625 L 668.253906 605.65625 L 668.253906 630.738281 L 643.175781 630.738281 Z M 643.175781 605.65625 " fill-opacity="1" fill-rule="nonzero"/><path fill="#000000" d="M 643.175781 630.738281 L 668.253906 630.738281 L 668.253906 655.820312 L 643.175781 655.820312 Z M 643.175781 630.738281 " fill-opacity="1" fill-rule="nonzero"/><path fill="#000000" d="M 643.175781 655.820312 L 668.253906 655.820312 L 668.253906 680.902344 L 643.175781 680.902344 Z M 643.175781 655.820312 " fill-opacity="1" fill-rule="nonzero"/><path fill="#000000" d="M 643.175781 680.902344 L 668.253906 680.902344 L 668.253906 705.984375 L 643.175781 705.984375 Z M 643.175781 680.902344 " fill-opacity="1" fill-rule="nonzero"/><path fill="#000000" d="M 643.175781 705.984375 L 668.253906 705.984375 L 668.253906 731.066406 L 643.175781 731.066406 Z M 643.175781 705.984375 " fill-opacity="1" fill-rule="nonzero"/><path fill="#000000" d="M 643.175781 731.066406 L 668.253906 731.066406 L 668.253906 756.148438 L 643.175781 756.148438 Z M 643.175781 731.066406 " fill-opacity="1" fill-rule="nonzero"/><path fill="#000000" d="M 643.175781 756.148438 L 668.253906 756.148438 L 668.253906 781.230469 L 643.175781 781.230469 Z M 643.175781 756.148438 " fill-opacity="1" fill-rule="nonzero"/><path fill="#000000" d="M 668.253906 129.097656 L 693.332031 129.097656 L 693.332031 154.179688 L 668.253906 154.179688 Z M 668.253906 129.097656 " fill-opacity="1" fill-rule="nonzero"/><path fill="#000000" d="M 668.253906 104.015625 L 693.332031 104.015625 L 693.332031 129.097656 L 668.253906 129.097656 Z M 668.253906 104.015625 " fill-opacity="1" fill-rule="nonzero"/><path fill="#000000" d="M 668.253906 78.933594 L 693.332031 78.933594 L 693.332031 104.015625 L 668.253906 104.015625 Z M 668.253906 78.933594 " fill-opacity="1" fill-rule="nonzero"/><g clip-path="url(#0d781f8fe7)"><path fill="#ffffff" d="M 340.753906 28.148438 L 468.421875 28.148438 L 468.421875 59.011719 L 340.753906 59.011719 Z M 340.753906 28.148438 " fill-opacity="1" fill-rule="nonzero"/></g></svg>